<svg width="50" height="50" viewBox="0 0 50 50" fill="none" xmlns="http://www.w3.org/2000/svg">
<path d="M46 17.7917C44.5902 18.4426 43.0523 18.7693 41.4995 18.7475C39.9468 18.7257 38.4187 18.3562 37.0276 17.666C35.6365 16.9757 34.4178 15.9825 33.4613 14.7592C32.5047 13.5359 31.8345 12.1137 31.5 10.5972C29.4614 9.65869 27.2443 9.17075 25 9.16667C21.1179 9.14921 17.3648 10.5599 14.4553 13.1302C11.5458 15.7005 9.68306 19.2509 9.22159 23.1056C8.76013 26.9602 9.7322 30.85 11.9528 34.0345C14.1733 37.2189 17.4873 39.4756 21.2639 40.375L20.8334 42.5417C16.5523 41.4982 12.8006 38.9253 10.2851 35.3076C7.76947 31.6898 6.66365 27.2771 7.17592 22.9006C7.68819 18.5241 9.78318 14.486 13.0662 11.547C16.3493 8.60804 20.5937 6.97106 25 6.94445C27.1395 6.94438 29.2614 7.33018 31.2639 8.08334C31.2973 6.6721 31.6187 5.28257 32.2084 4.00001C27.4393 2.35099 22.252 2.36776 17.4938 4.04756C12.7355 5.72737 8.68736 8.97095 6.01058 13.2485C3.33379 17.5261 2.18652 22.585 2.75613 27.5988C3.32574 32.6127 5.57858 37.2852 9.14671 40.8533C12.7148 44.4215 17.3874 46.6743 22.4012 47.2439C27.4151 47.8135 32.4739 46.6662 36.7515 43.9895C41.0291 41.3127 44.2727 37.2646 45.9525 32.5063C47.6323 27.748 47.649 22.5607 46 17.7917V17.7917ZM33.6111 32.1945C33.5102 32.3471 33.3802 32.4784 33.2284 32.5806C33.0766 32.6828 32.9061 32.7541 32.7267 32.7902C32.5473 32.8264 32.3625 32.8267 32.183 32.7912C32.0035 32.7557 31.8327 32.685 31.6806 32.5833L23.4861 27.0278V14.9306C23.4861 14.5622 23.6325 14.2089 23.8929 13.9485C24.1534 13.688 24.5067 13.5417 24.875 13.5417C25.2434 13.5417 25.5967 13.688 25.8571 13.9485C26.1176 14.2089 26.2639 14.5622 26.2639 14.9306V25.5556L33.2084 30.2639C33.3622 30.3637 33.4947 30.493 33.5982 30.6442C33.7018 30.7955 33.7744 30.9658 33.8119 31.1453C33.8493 31.3248 33.8509 31.5099 33.8164 31.6899C33.782 31.87 33.7122 32.0415 33.6111 32.1945V32.1945Z" fill="white"/>
<path d="M41.6667 15.2778C45.502 15.2778 48.6111 12.1686 48.6111 8.33333C48.6111 4.49802 45.502 1.38889 41.6667 1.38889C37.8314 1.38889 34.7222 4.49802 34.7222 8.33333C34.7222 12.1686 37.8314 15.2778 41.6667 15.2778Z" fill="#F2994A"/>
</svg>
