<svg width="40" height="40" viewBox="0 0 40 40" fill="none" xmlns="http://www.w3.org/2000/svg">
<path d="M20 21.6667C24.1437 21.6667 27.5 18.3105 27.5 14.1667C27.5 10.023 24.1437 6.66675 20 6.66675C15.8563 6.66675 12.5 10.023 12.5 14.1667C12.5 18.3105 15.8563 21.6667 20 21.6667Z" fill="#F2994A"/>
<mask id="mask0" mask-type="alpha" maskUnits="userSpaceOnUse" x="5" y="23" width="30" height="12">
<path fill-rule="evenodd" clip-rule="evenodd" d="M12.0272 27.8678C11.311 28.3075 10.8333 29.0979 10.8333 29.9999C10.8333 31.3806 11.9526 32.4999 13.3333 32.4999C14.7141 32.4999 15.8333 31.3806 15.8333 29.9999C15.8333 28.7298 14.8863 27.681 13.6599 27.521C13.6326 27.4232 13.6041 27.3103 13.5751 27.1837C13.4753 26.7475 13.38 26.1943 13.3091 25.6258C13.238 25.0565 13.1939 24.4919 13.191 24.0311C13.1899 23.8623 13.1945 23.7151 13.2038 23.5917C13.5244 23.4997 13.8459 23.4168 14.1667 23.3438C14.5344 23.26 14.7521 23.6941 14.9284 24.0458C14.953 24.0948 14.9767 24.1422 15 24.1863H18.3866C19.1497 24.1862 19.527 24.1863 19.9086 24.1863H19.9087H19.9087H19.9089C20.2817 24.1864 20.6588 24.1865 21.4042 24.1863H24.7911C24.9812 23.825 25.4143 23.2483 25.8333 23.3438C26.2802 23.4455 26.7287 23.5663 27.1741 23.7045L27.1713 23.7059C27.1703 23.704 27.1704 23.7043 27.1714 23.7071V23.7072C27.1753 23.7189 27.1937 23.7733 27.2118 23.8914C27.2326 24.026 27.247 24.2008 27.2529 24.4113C27.2647 24.8316 27.2412 25.3424 27.1914 25.8571C27.1416 26.3713 27.0676 26.869 26.9842 27.2618C26.9658 27.3488 26.9474 27.4283 26.9293 27.4999H25.8333C25.5177 27.4999 25.2292 27.6783 25.088 27.9606L24.2547 29.6273C24.1968 29.7429 24.1667 29.8705 24.1667 29.9999V31.6666C24.1667 32.1268 24.5397 32.4999 25 32.4999H26.6667V30.8333H25.8333V30.1966L26.3483 29.1666H28.6517L29.1667 30.1966V30.8333H28.3333V32.4999H30C30.4602 32.4999 30.8333 32.1268 30.8333 31.6666V29.9999C30.8333 29.8705 30.8033 29.7429 30.7453 29.6273L29.912 27.9606C29.7708 27.6783 29.4823 27.4999 29.1667 27.4999H28.6369C28.7259 27.056 28.8 26.5373 28.8503 26.0177C28.9047 25.456 28.9332 24.8731 28.9189 24.3646L28.9182 24.3417C32.2412 25.7456 35 28.055 35 30.4748V34.9999H5V30.4748C5 27.9479 8.00828 25.5415 11.5258 24.1608C11.5353 24.6788 11.5844 25.2651 11.6552 25.8323C11.7316 26.4444 11.8357 27.0543 11.9505 27.5557C11.9751 27.6631 12.0007 27.7677 12.0272 27.8678ZM13.3333 30.8455C13.782 30.8455 14.1667 30.4784 14.1667 29.9999C14.1667 29.5213 13.782 29.1543 13.3333 29.1543C12.8847 29.1543 12.5 29.5213 12.5 29.9999C12.5 30.4784 12.8847 30.8455 13.3333 30.8455Z" fill="white"/>
</mask>
<g mask="url(#mask0)">
<path fill-rule="evenodd" clip-rule="evenodd" d="M12.0272 27.8678C11.311 28.3075 10.8333 29.0979 10.8333 29.9999C10.8333 31.3806 11.9526 32.4999 13.3333 32.4999C14.7141 32.4999 15.8333 31.3806 15.8333 29.9999C15.8333 28.7298 14.8863 27.681 13.6599 27.521C13.6326 27.4232 13.6041 27.3103 13.5751 27.1837C13.4753 26.7475 13.38 26.1943 13.3091 25.6258C13.238 25.0565 13.1939 24.4919 13.191 24.0311C13.1899 23.8623 13.1945 23.7151 13.2038 23.5917C13.5244 23.4997 13.8459 23.4168 14.1667 23.3438C14.5344 23.26 14.7521 23.6941 14.9284 24.0458C14.953 24.0948 14.9767 24.1422 15 24.1863H18.3866C19.1497 24.1862 19.527 24.1863 19.9086 24.1863H19.9087H19.9087H19.9089C20.2817 24.1864 20.6588 24.1865 21.4042 24.1863H24.7911C24.9812 23.825 25.4143 23.2483 25.8333 23.3438C26.2802 23.4455 26.7287 23.5663 27.1741 23.7045L27.1713 23.7059C27.1703 23.704 27.1704 23.7043 27.1714 23.7071V23.7072C27.1753 23.7189 27.1937 23.7733 27.2118 23.8914C27.2326 24.026 27.247 24.2008 27.2529 24.4113C27.2647 24.8316 27.2412 25.3424 27.1914 25.8571C27.1416 26.3713 27.0676 26.869 26.9842 27.2618C26.9658 27.3488 26.9474 27.4283 26.9293 27.4999H25.8333C25.5177 27.4999 25.2292 27.6783 25.088 27.9606L24.2547 29.6273C24.1968 29.7429 24.1667 29.8705 24.1667 29.9999V31.6666C24.1667 32.1268 24.5397 32.4999 25 32.4999H26.6667V30.8333H25.8333V30.1966L26.3483 29.1666H28.6517L29.1667 30.1966V30.8333H28.3333V32.4999H30C30.4602 32.4999 30.8333 32.1268 30.8333 31.6666V29.9999C30.8333 29.8705 30.8033 29.7429 30.7453 29.6273L29.912 27.9606C29.7708 27.6783 29.4823 27.4999 29.1667 27.4999H28.6369C28.7259 27.056 28.8 26.5373 28.8503 26.0177C28.9047 25.456 28.9332 24.8731 28.9189 24.3646L28.9182 24.3417C32.2412 25.7456 35 28.055 35 30.4748V34.9999H5V30.4748C5 27.9479 8.00828 25.5415 11.5258 24.1608C11.5353 24.6788 11.5844 25.2651 11.6552 25.8323C11.7316 26.4444 11.8357 27.0543 11.9505 27.5557C11.9751 27.6631 12.0007 27.7677 12.0272 27.8678ZM13.3333 30.8455C13.782 30.8455 14.1667 30.4784 14.1667 29.9999C14.1667 29.5213 13.782 29.1543 13.3333 29.1543C12.8847 29.1543 12.5 29.5213 12.5 29.9999C12.5 30.4784 12.8847 30.8455 13.3333 30.8455Z" fill="#2D9CDB"/>
<path d="M12.0271 27.8679L12.8991 29.2883L13.9548 28.6401L13.6384 27.4423L12.0271 27.8679ZM13.6598 27.5211L12.0545 27.9691L12.3508 29.0312L13.4443 29.1738L13.6598 27.5211ZM13.575 27.1838L15.1997 26.8118L13.575 27.1838ZM13.309 25.6259L14.9628 25.4196L13.309 25.6259ZM13.1909 24.0312L11.5243 24.0417L13.1909 24.0312ZM13.2038 23.5918L12.7439 21.9898L11.6291 22.3098L11.5418 23.4663L13.2038 23.5918ZM14.1666 23.3438L13.7965 21.7188L14.1666 23.3438ZM14.9283 24.0459L16.4183 23.2988L14.9283 24.0459ZM14.9999 24.1864L13.5252 24.9628L13.9938 25.8531H14.9999V24.1864ZM18.3865 24.1864V25.8531H18.3869L18.3865 24.1864ZM19.9085 24.1864L19.9082 25.8531H19.9085V24.1864ZM19.9088 24.1864L19.9092 22.5198H19.9088V24.1864ZM21.4042 24.1864V22.5198H21.4038L21.4042 24.1864ZM24.791 24.1864V25.8531H25.7971L26.2658 24.9628L24.791 24.1864ZM25.8333 23.3438L26.2033 21.7188L25.8333 23.3438ZM27.174 23.7046L27.9193 25.1953L31.6278 23.3413L27.6678 22.1128L27.174 23.7046ZM27.1713 23.706L25.6811 24.4526L26.4271 25.9414L27.9165 25.1968L27.1713 23.706ZM27.1713 23.7072L28.7951 23.3316L28.7768 23.2526L28.751 23.1758L27.1713 23.7072ZM27.1713 23.7073L25.5475 24.0828L25.566 24.1628L25.5923 24.2405L27.1713 23.7073ZM27.1713 23.7073L28.751 23.1758L28.7504 23.1739L27.1713 23.7073ZM27.2118 23.8915L28.859 23.6378L27.2118 23.8915ZM27.2528 24.4113L25.5868 24.4581L27.2528 24.4113ZM27.1913 25.8572L25.5324 25.6967L27.1913 25.8572ZM26.9842 27.2619L28.6146 27.6078V27.6078L26.9842 27.2619ZM26.9293 27.5V29.1667H28.2273L28.5452 27.9081L26.9293 27.5ZM25.0879 27.9607L26.5786 28.706L25.0879 27.9607ZM24.2546 29.6273L25.7453 30.3727L24.2546 29.6273ZM26.6666 32.5V34.1667H28.3333V32.5H26.6666ZM26.6666 30.8333H28.3333V29.1667H26.6666V30.8333ZM25.8333 30.8333H24.1666V32.5H25.8333V30.8333ZM25.8333 30.1967L24.3425 29.4513L24.1666 29.8033V30.1967H25.8333ZM26.3483 29.1667V27.5H25.3183L24.8576 28.4213L26.3483 29.1667ZM28.6516 29.1667L30.1423 28.4213L29.6816 27.5H28.6516V29.1667ZM29.1666 30.1967H30.8333V29.8033L30.6573 29.4513L29.1666 30.1967ZM29.1666 30.8333V32.5H30.8333V30.8333H29.1666ZM28.3333 30.8333V29.1667H26.6666V30.8333H28.3333ZM28.3333 32.5H26.6666V34.1667H28.3333V32.5ZM30.7453 29.6273L32.236 28.8819L30.7453 29.6273ZM29.9119 27.9607L31.4027 27.2153L29.9119 27.9607ZM28.6368 27.5L27.0028 27.1722L26.6027 29.1667H28.6368V27.5ZM28.8502 26.0178L30.5091 26.1783L28.8502 26.0178ZM28.9188 24.3647L30.5848 24.3179V24.3158L28.9188 24.3647ZM28.9182 24.3418L29.5668 22.8065L27.1761 21.7963L27.2523 24.3907L28.9182 24.3418ZM34.9999 35V36.6667H36.6666V35H34.9999ZM4.99992 35H3.33325V36.6667H4.99992V35ZM11.5258 24.1608L13.1922 24.1304L13.1485 21.7333L10.9168 22.6094L11.5258 24.1608ZM11.6551 25.8323L10.0013 26.0387L11.6551 25.8323ZM11.9504 27.5558L10.3258 27.9278L11.9504 27.5558ZM12.4999 30C12.4999 29.7013 12.656 29.4375 12.8991 29.2883L11.155 26.4476C9.96575 27.1778 9.16659 28.4948 9.16659 30H12.4999ZM13.3333 30.8333C12.873 30.8333 12.4999 30.4603 12.4999 30H9.16659C9.16659 32.3012 11.0321 34.1667 13.3333 34.1667V30.8333ZM14.1666 30C14.1666 30.4603 13.7935 30.8333 13.3333 30.8333V34.1667C15.6344 34.1667 17.4999 32.3012 17.4999 30H14.1666ZM13.4443 29.1738C13.8513 29.2269 14.1666 29.5779 14.1666 30H17.4999C17.4999 27.8819 15.9211 26.1353 13.8754 25.8684L13.4443 29.1738ZM15.2652 27.0732C15.2461 27.0048 15.2239 26.9176 15.1997 26.8118L11.9504 27.5558C11.9842 27.7032 12.019 27.8418 12.0545 27.9691L15.2652 27.0732ZM15.1997 26.8118C15.1148 26.4408 15.0283 25.9441 14.9628 25.4196L11.6551 25.8323C11.7315 26.4445 11.8357 27.0544 11.9504 27.5558L15.1997 26.8118ZM14.9628 25.4196C14.897 24.8919 14.8599 24.3962 14.8576 24.0208L11.5243 24.0417C11.5278 24.5878 11.5788 25.2212 11.6551 25.8323L14.9628 25.4196ZM14.8576 24.0208C14.8568 23.8856 14.8606 23.7851 14.8657 23.7172L11.5418 23.4663C11.5283 23.6453 11.523 23.8392 11.5243 24.0417L14.8576 24.0208ZM13.7965 21.7188C13.4449 21.7988 13.0935 21.8894 12.7439 21.9898L13.6636 25.1938C13.9552 25.11 14.2468 25.0349 14.5367 24.9689L13.7965 21.7188ZM16.4183 23.2988C16.3546 23.1719 16.1653 22.7725 15.8816 22.4433C15.5654 22.0766 14.8405 21.4811 13.7965 21.7188L14.5367 24.9689C14.2581 25.0323 13.9666 24.9965 13.7199 24.8831C13.5056 24.7846 13.3899 24.6581 13.3569 24.6198C13.3213 24.5785 13.3164 24.5625 13.3408 24.6052C13.3648 24.6468 13.3909 24.6981 13.4385 24.7929L16.4183 23.2988ZM16.4747 23.41C16.4606 23.3832 16.4444 23.3511 16.4183 23.2988L13.4385 24.7929C13.4614 24.8387 13.4928 24.9013 13.5252 24.9628L16.4747 23.41ZM18.3865 22.5198H14.9999V25.8531H18.3865V22.5198ZM19.9088 22.5198C19.5271 22.5197 19.1497 22.5196 18.3862 22.5198L18.3869 25.8531C19.1498 25.8529 19.5267 25.853 19.9082 25.8531L19.9088 22.5198ZM19.9086 22.5198H19.9085V25.8531H19.9086V22.5198ZM19.9087 22.5198H19.9086V25.8531H19.9087V22.5198ZM19.9088 22.5198H19.9087V25.8531H19.9088V22.5198ZM19.9088 22.5198V25.8531V22.5198ZM19.9088 22.5198V25.8531V22.5198ZM19.9088 22.5198V25.8531V22.5198ZM21.4038 22.5198C20.6588 22.5199 20.2818 22.5198 19.9092 22.5198L19.9085 25.8531C20.2814 25.8532 20.6588 25.8533 21.4045 25.8531L21.4038 22.5198ZM24.791 22.5198H21.4042V25.8531H24.791V22.5198ZM26.2033 21.7188C25.1241 21.473 24.3428 22.1312 24.0709 22.3928C23.7218 22.7285 23.4672 23.1232 23.3162 23.41L26.2658 24.9628C26.2792 24.9374 26.3024 24.8983 26.3311 24.8581C26.3447 24.8391 26.357 24.8234 26.3671 24.8114C26.3774 24.7992 26.3827 24.7942 26.3818 24.795C26.3813 24.7954 26.3693 24.8071 26.3447 24.8248C26.3206 24.8422 26.2747 24.8725 26.2064 24.9033C26.0668 24.9664 25.7973 25.0449 25.4632 24.9689L26.2033 21.7188ZM27.6678 22.1128C27.1829 21.9623 26.6931 21.8303 26.2033 21.7188L25.4632 24.9689C25.8672 25.0609 26.2744 25.1706 26.6802 25.2964L27.6678 22.1128ZM27.9165 25.1968L27.9193 25.1953L26.4287 22.2138L26.4259 22.2153L27.9165 25.1968ZM28.751 23.1758C28.7493 23.1708 28.7528 23.181 28.7562 23.1915C28.7577 23.1962 28.7637 23.2146 28.7707 23.2384C28.7741 23.2503 28.7808 23.2737 28.7882 23.3033C28.7928 23.3222 28.8108 23.3943 28.8232 23.4886C28.8287 23.5309 28.8417 23.6388 28.8357 23.7773C28.8341 23.8124 28.8321 24.31 28.456 24.7657C28.2098 25.0639 27.8329 25.3047 27.3666 25.3598C26.9531 25.4088 26.6314 25.2925 26.4647 25.2146C26.1611 25.0727 25.9813 24.8734 25.9485 24.8381C25.8388 24.7197 25.7713 24.6103 25.7634 24.5979C25.741 24.5625 25.7247 24.5338 25.7174 24.5209C25.7023 24.4938 25.6912 24.4723 25.6888 24.4677C25.6848 24.4599 25.6818 24.4539 25.6811 24.4526L28.6613 22.9594C28.6604 22.9576 28.6572 22.9512 28.6531 22.9431C28.6505 22.9381 28.6393 22.9163 28.624 22.8891C28.6167 22.876 28.6003 22.8473 28.5778 22.8118C28.5699 22.7993 28.5025 22.6899 28.3927 22.5715C28.3598 22.5362 28.1801 22.3369 27.8765 22.195C27.7098 22.117 27.388 22.0007 26.9745 22.0497C26.5083 22.1049 26.1313 22.3456 25.8852 22.6439C25.5091 23.0996 25.507 23.5972 25.5055 23.6323C25.4994 23.7708 25.5124 23.8788 25.518 23.9211C25.5303 24.0153 25.5483 24.0876 25.553 24.1065C25.5604 24.1363 25.5671 24.1598 25.5706 24.1717C25.5777 24.1958 25.5838 24.2145 25.5854 24.2197C25.5878 24.227 25.5898 24.2328 25.5903 24.2347C25.5908 24.2359 25.5911 24.237 25.5913 24.2375C25.5915 24.2381 25.5917 24.2386 25.5917 24.2387L28.751 23.1758ZM28.7951 23.3316L25.5475 24.0828L28.7951 23.3316ZM28.7504 23.1739H28.7503L25.5923 24.2405H25.5923L28.7504 23.1739ZM28.859 23.6378C28.8254 23.4195 28.7835 23.2723 28.751 23.1758L25.5917 24.2387C25.5917 24.2387 25.5894 24.2322 25.5868 24.2239C25.5843 24.2158 25.5817 24.2076 25.5792 24.1993C25.5742 24.1825 25.5705 24.1686 25.5678 24.1578C25.5626 24.1366 25.5624 24.1313 25.5646 24.1453L28.859 23.6378ZM28.9188 24.3647C28.9118 24.1108 28.8937 23.8624 28.859 23.6378L25.5646 24.1453C25.5714 24.1897 25.5822 24.2911 25.5868 24.4581L28.9188 24.3647ZM28.8502 26.0178C28.9046 25.4561 28.9331 24.8732 28.9188 24.3647L25.5868 24.4581C25.5962 24.7902 25.5777 25.2288 25.5324 25.6967L28.8502 26.0178ZM28.6146 27.6078C28.7136 27.1413 28.7958 26.58 28.8502 26.0178L25.5324 25.6967C25.4873 26.1627 25.4215 26.5969 25.3538 26.9161L28.6146 27.6078ZM28.5452 27.9081C28.5691 27.8134 28.5923 27.7131 28.6146 27.6078L25.3538 26.9161C25.3393 26.9848 25.3256 27.0434 25.3133 27.0918L28.5452 27.9081ZM25.8333 29.1667H26.9293V25.8333H25.8333V29.1667ZM26.5786 28.706C26.4374 28.9883 26.1489 29.1667 25.8333 29.1667V25.8333C24.8863 25.8333 24.0207 26.3683 23.5972 27.2153L26.5786 28.706ZM25.7453 30.3727L26.5786 28.706L23.5972 27.2153L22.7638 28.8819L25.7453 30.3727ZM25.8333 30C25.8333 30.1293 25.8032 30.2569 25.7453 30.3727L22.7638 28.8819C22.5903 29.2291 22.4999 29.6118 22.4999 30H25.8333ZM25.8333 31.6667V30H22.4999V31.6667H25.8333ZM24.9999 30.8333C25.4602 30.8333 25.8333 31.2064 25.8333 31.6667H22.4999C22.4999 33.0473 23.6192 34.1667 24.9999 34.1667V30.8333ZM26.6666 30.8333H24.9999V34.1667H26.6666V30.8333ZM24.9999 30.8333V32.5H28.3333V30.8333H24.9999ZM25.8333 32.5H26.6666V29.1667H25.8333V32.5ZM24.1666 30.1967V30.8333H27.4999V30.1967H24.1666ZM24.8576 28.4213L24.3425 29.4513L27.324 30.9421L27.839 29.912L24.8576 28.4213ZM28.6516 27.5H26.3483V30.8333H28.6516V27.5ZM30.6573 29.4513L30.1423 28.4213L27.1608 29.912L27.6758 30.9421L30.6573 29.4513ZM30.8333 30.8333V30.1967H27.4999V30.8333H30.8333ZM28.3333 32.5H29.1666V29.1667H28.3333V32.5ZM29.9999 32.5V30.8333H26.6666V32.5H29.9999ZM29.9999 30.8333H28.3333V34.1667H29.9999V30.8333ZM29.1666 31.6667C29.1666 31.2064 29.5397 30.8333 29.9999 30.8333V34.1667C31.3807 34.1667 32.4999 33.0473 32.4999 31.6667H29.1666ZM29.1666 30V31.6667H32.4999V30H29.1666ZM29.2546 30.3727C29.1967 30.2569 29.1666 30.1293 29.1666 30H32.4999C32.4999 29.6118 32.4096 29.2291 32.236 28.8819L29.2546 30.3727ZM28.4213 28.706L29.2546 30.3727L32.236 28.8819L31.4027 27.2153L28.4213 28.706ZM29.1666 29.1667C28.8509 29.1667 28.5624 28.9883 28.4213 28.706L31.4027 27.2153C30.9792 26.3683 30.1135 25.8333 29.1666 25.8333V29.1667ZM28.6368 29.1667H29.1666V25.8333H28.6368V29.1667ZM27.1913 25.8572C27.1454 26.3312 27.0788 26.7931 27.0028 27.1722L30.2709 27.8278C30.373 27.3191 30.4544 26.7435 30.5091 26.1783L27.1913 25.8572ZM27.2528 24.4113C27.2647 24.8317 27.2411 25.3425 27.1913 25.8572L30.5091 26.1783C30.568 25.5698 30.6016 24.9146 30.5848 24.3179L27.2528 24.4113ZM27.2523 24.3907L27.2529 24.4136L30.5848 24.3158L30.5842 24.2928L27.2523 24.3907ZM36.6666 30.4749C36.6666 28.6185 35.6205 27.0294 34.3563 25.822C33.0678 24.5917 31.3603 23.5642 29.5668 22.8065L28.2695 25.877C29.7991 26.5233 31.1323 27.3524 32.0541 28.2327C32.9999 29.1359 33.3333 29.9114 33.3333 30.4749H36.6666ZM36.6666 35V30.4749H33.3333V35H36.6666ZM4.99992 36.6667H34.9999V33.3333H4.99992V36.6667ZM3.33325 30.4749V35H6.66659V30.4749H3.33325ZM10.9168 22.6094C9.02025 23.3538 7.19808 24.3968 5.81889 25.6583C4.4702 26.8918 3.33325 28.5382 3.33325 30.4749H6.66659C6.66659 29.8848 7.03378 29.0644 8.06862 28.1178C9.07292 27.1993 10.5138 26.3485 12.1348 25.7123L10.9168 22.6094ZM9.85942 24.1912C9.87017 24.7839 9.9255 25.4313 10.0013 26.0387L13.309 25.6259C13.2432 25.0989 13.2003 24.5737 13.1922 24.1304L9.85942 24.1912ZM10.0013 26.0387C10.0832 26.6948 10.1961 27.3613 10.3258 27.9278L13.575 27.1838C13.4752 26.7476 13.3799 26.1943 13.309 25.6259L10.0013 26.0387ZM10.3258 27.9278C10.3539 28.0504 10.3838 28.1732 10.4157 28.2937L13.6384 27.4423C13.6173 27.3623 13.5962 27.2759 13.575 27.1838L10.3258 27.9278ZM12.4999 30C12.4999 29.5511 12.8684 29.1789 13.3333 29.1789V32.5123C14.6954 32.5123 15.8333 31.4059 15.8333 30H12.4999ZM13.3333 30.8211C12.8684 30.8211 12.4999 30.4488 12.4999 30H15.8333C15.8333 28.594 14.6954 27.4878 13.3333 27.4878V30.8211ZM14.1666 30C14.1666 30.4488 13.7981 30.8211 13.3333 30.8211V27.4878C11.9711 27.4878 10.8333 28.594 10.8333 30H14.1666ZM13.3333 29.1789C13.7981 29.1789 14.1666 29.5511 14.1666 30H10.8333C10.8333 31.4059 11.9711 32.5123 13.3333 32.5123V29.1789Z" fill="#2D9CDB"/>
</g>
</svg>
