<svg width="30" height="30" viewBox="0 0 30 30" fill="none" xmlns="http://www.w3.org/2000/svg">
<path d="M27.6114 7.29975L25.0254 4.71315C24.9346 4.62246 24.8115 4.57153 24.6831 4.57153C24.5547 4.57153 24.4316 4.62246 24.3408 4.71315L14.9961 14.0578L13.1751 12.2374C13.0843 12.1467 12.9612 12.0957 12.8328 12.0957C12.7044 12.0957 12.5813 12.1467 12.4905 12.2374L9.9039 14.824C9.85886 14.8689 9.82312 14.9223 9.79873 14.981C9.77434 15.0398 9.76179 15.1027 9.76179 15.1663C9.76179 15.2299 9.77434 15.2929 9.79873 15.3517C9.82312 15.4104 9.85886 15.4637 9.9039 15.5086L14.6385 20.242C14.7291 20.3326 14.8521 20.3839 14.9808 20.3839C14.9865 20.3839 14.9919 20.3809 14.9976 20.3809C15.0024 20.3809 15.0075 20.3836 15.0126 20.3836C15.0762 20.3837 15.1392 20.3712 15.1979 20.3468C15.2566 20.3225 15.31 20.2868 15.3549 20.2417L27.6114 7.98465C27.8004 7.79505 27.8004 7.48875 27.6114 7.29975Z" fill="#2D9CDB"/>
<path d="M21.6066 16.0874V22.4351H8.3934V9.22192H17.7114L20.7051 6.22852H6.9579V6.23062C6.951 6.23062 6.9447 6.22852 6.9375 6.22852C6.53661 6.2288 6.15172 6.38587 5.8651 6.66616C5.57848 6.94645 5.41284 7.32773 5.4036 7.72852H5.4V23.9285H5.4039C5.41335 24.3223 5.574 24.6974 5.85255 24.976C6.13111 25.2545 6.50618 25.4152 6.9 25.4246V25.4285H23.1V25.4246C23.4938 25.4152 23.869 25.2546 24.1475 24.976C24.4261 24.6975 24.5867 24.3224 24.5961 23.9285H24.6V13.094L21.6066 16.0874Z" fill="#2D9CDB"/>
</svg>
