<svg width="40" height="40" viewBox="0 0 40 40" fill="none" xmlns="http://www.w3.org/2000/svg">
<path fill-rule="evenodd" clip-rule="evenodd" d="M3.3335 30.8333C3.3335 30.3731 3.7066 30 4.16683 30H34.1668C34.6271 30 35.0002 30.3731 35.0002 30.8333C35.0002 31.2936 34.6271 31.6667 34.1668 31.6667H4.16683C3.7066 31.6667 3.3335 31.2936 3.3335 30.8333Z" fill="#2D9CDB"/>
<path fill-rule="evenodd" clip-rule="evenodd" d="M8.3335 18.3334V30.8334H31.6668V18.3334L20.0002 11.6667L8.3335 18.3334ZM23.3335 20.8334H28.3335V30.0001H23.3335V20.8334ZM20.8335 20.8334H11.6668V25.8334H20.8335V20.8334Z" fill="#F2994A"/>
<path d="M26.6665 12.3485V10H29.1665V14.1667L26.6665 12.3485Z" fill="#2D9CDB"/>
<path fill-rule="evenodd" clip-rule="evenodd" d="M25.8335 10.0001C25.8335 9.53983 26.2066 9.16675 26.6668 9.16675H29.1668C29.6271 9.16675 30.0002 9.53983 30.0002 10.0001V14.1667C30.0002 14.4802 29.8242 14.7671 29.545 14.9093C29.2657 15.0516 28.9302 15.0251 28.6767 14.8407L26.1767 13.0225C25.9611 12.8657 25.8335 12.6152 25.8335 12.3486V10.0001ZM27.5002 10.8334V11.9242L28.3335 12.5302V10.8334H27.5002Z" fill="#F2994A"/>
<path fill-rule="evenodd" clip-rule="evenodd" d="M19.5773 8.44857C19.8381 8.29514 20.1616 8.29514 20.4223 8.44857L35.3073 17.2044L34.4623 18.641L19.9998 10.1337L5.53742 18.641L4.69238 17.2044L19.5773 8.44857Z" fill="#2D9CDB"/>
</svg>
