<svg width="40" height="40" viewBox="0 0 40 40" fill="none" xmlns="http://www.w3.org/2000/svg">
<path fill-rule="evenodd" clip-rule="evenodd" d="M6.6665 35.8333C6.6665 35.3731 7.0396 35 7.49984 35H32.4998C32.9601 35 33.3332 35.3731 33.3332 35.8333C33.3332 36.2936 32.9601 36.6667 32.4998 36.6667H7.49984C7.0396 36.6667 6.6665 36.2936 6.6665 35.8333Z" fill="#2D9CDB"/>
<path fill-rule="evenodd" clip-rule="evenodd" d="M15.8335 6.66667H8.3335V5H15.8335V6.66667Z" fill="#2D9CDB"/>
<path fill-rule="evenodd" clip-rule="evenodd" d="M31.6665 6.66667H24.1665V5H31.6665V6.66667Z" fill="#2D9CDB"/>
<path fill-rule="evenodd" clip-rule="evenodd" d="M15.8333 9.16667H10V7.5H15.8333V9.16667Z" fill="#2D9CDB"/>
<path fill-rule="evenodd" clip-rule="evenodd" d="M29.9998 9.16667H24.1665V7.5H29.9998V9.16667Z" fill="#2D9CDB"/>
<path fill-rule="evenodd" clip-rule="evenodd" d="M26.6668 31.6667H13.3335V30H26.6668V31.6667Z" fill="#2D9CDB"/>
<path fill-rule="evenodd" clip-rule="evenodd" d="M24.1665 3.33325H15.8332C14.9127 3.33325 14.1665 4.07944 14.1665 4.99992V13.3333C14.1665 14.2538 14.9127 14.9999 15.8332 14.9999H24.1665C25.087 14.9999 25.8332 14.2538 25.8332 13.3333V4.99992C25.8332 4.07944 25.087 3.33325 24.1665 3.33325ZM20.8332 5.83325V8.33325H23.3332V9.99992H20.8332V12.4999H19.1665V9.99992H16.6665V8.33325H19.1665V5.83325H20.8332Z" fill="#2D9CDB"/>
<path fill-rule="evenodd" clip-rule="evenodd" d="M21.6665 4.99992V7.49992H24.1665V10.8333H21.6665V13.3333H18.3332V10.8333H15.8332V7.49992H18.3332V4.99992H21.6665ZM19.1665 8.33325H16.6665V9.99992H19.1665V12.4999H20.8332V9.99992H23.3332V8.33325H20.8332V5.83325H19.1665V8.33325ZM24.1665 4.16659H15.8332C15.3729 4.16659 14.9998 4.53969 14.9998 4.99992V13.3333C14.9998 13.7935 15.3729 14.1666 15.8332 14.1666H24.1665C24.6268 14.1666 24.9998 13.7935 24.9998 13.3333V4.99992C24.9998 4.53969 24.6268 4.16659 24.1665 4.16659ZM15.8332 3.33325H24.1665C25.087 3.33325 25.8332 4.07944 25.8332 4.99992V13.3333C25.8332 14.2538 25.087 14.9999 24.1665 14.9999H15.8332C14.9127 14.9999 14.1665 14.2538 14.1665 13.3333V4.99992C14.1665 4.07944 14.9127 3.33325 15.8332 3.33325Z" fill="#F2994A"/>
<path d="M13.3335 16.6667H16.6668V19.1667H13.3335V16.6667Z" fill="#F2994A"/>
<path d="M13.3335 20.8333H16.6668V23.3333H13.3335V20.8333Z" fill="#F2994A"/>
<path d="M13.3335 25H16.6668V27.5H13.3335V25Z" fill="#F2994A"/>
<path d="M18.3335 16.6667H21.6668V19.1667H18.3335V16.6667Z" fill="#F2994A"/>
<path d="M18.3335 20.8333H21.6668V23.3333H18.3335V20.8333Z" fill="#F2994A"/>
<path d="M18.3335 25H21.6668V27.5H18.3335V25Z" fill="#F2994A"/>
<path d="M23.3335 16.6667H26.6668V19.1667H23.3335V16.6667Z" fill="#F2994A"/>
<path d="M23.3335 20.8333H26.6668V23.3333H23.3335V20.8333Z" fill="#F2994A"/>
<path d="M23.3335 25H26.6668V27.5H23.3335V25Z" fill="#F2994A"/>
<path fill-rule="evenodd" clip-rule="evenodd" d="M10 34.9999V5.83325H11.6667V34.9999H10Z" fill="#F2994A"/>
<path fill-rule="evenodd" clip-rule="evenodd" d="M28.3335 34.9999V5.83325H30.0002V34.9999H28.3335Z" fill="#F2994A"/>
<path fill-rule="evenodd" clip-rule="evenodd" d="M19.1665 30H14.1665V35H19.1665V30ZM20.8332 30V35H25.8332V30H20.8332Z" fill="#F2994A"/>
<path fill-rule="evenodd" clip-rule="evenodd" d="M24.1665 35.0001V31.6667H25.8332V35.0001H24.1665Z" fill="#2D9CDB"/>
<path fill-rule="evenodd" clip-rule="evenodd" d="M14.1665 35.0001V31.6667H15.8332V35.0001H14.1665Z" fill="#2D9CDB"/>
</svg>
