<svg width="69" height="50" viewBox="0 0 69 50" fill="none" xmlns="http://www.w3.org/2000/svg">
<path d="M62.5 40.7H62.1625C63.017 40.7 63.7091 39.9932 63.7091 39.1216V1.57841C63.7091 0.705682 63.017 0 62.1625 0H6.05114C5.19659 0 4.50341 0.705682 4.50341 1.57841V39.1227C4.50341 39.9943 5.19659 40.7011 6.05114 40.7011H5.68182L0 46.2148C0 48.1068 1.53182 50 3.40568 50H64.7773C66.5443 50 68.1818 48.1114 68.1818 46.2136L62.5 40.7ZM34.1068 0.880681C34.2254 0.876351 34.3436 0.89595 34.4543 0.938307C34.5651 0.980664 34.6663 1.04491 34.7517 1.12721C34.8371 1.20951 34.9051 1.30818 34.9515 1.41733C34.998 1.52648 35.0219 1.64386 35.022 1.76248C35.0221 1.8811 34.9983 1.99851 34.952 2.10772C34.9057 2.21692 34.8378 2.31568 34.7525 2.39809C34.6672 2.4805 34.5662 2.54488 34.4554 2.58738C34.3447 2.62988 34.2265 2.64963 34.108 2.64545C33.8794 2.6374 33.6629 2.54098 33.504 2.3765C33.3451 2.21202 33.2562 1.99231 33.2561 1.76362C33.256 1.53493 33.3445 1.3151 33.5032 1.15041C33.6619 0.985725 33.8783 0.88903 34.1068 0.880681ZM6.14205 41.8364H62.0386L65.3773 45.0773H40.3886L39.9364 44.4773H28.2773L27.8239 45.0773H2.80227L6.14205 41.8364ZM38.9955 48.6795H29.1841C28.8477 48.6795 27.9523 48.6795 27.9523 47.5341H40.2284C40.2284 48.6795 39.3148 48.6795 38.9955 48.6795Z" fill="#095CB2"/>
</svg>
