<svg width="841" height="626" viewBox="0 0 841 626" fill="none" xmlns="http://www.w3.org/2000/svg">
<path d="M840.133 550.119H1.52588e-05V550.539H840.133V550.119Z" fill="#EBEBEB"/>
<path d="M755.952 577.155H700.301V577.575H755.952V577.155Z" fill="#EBEBEB"/>
<path d="M459.082 571.895H437.424V572.315H459.082V571.895Z" fill="#EBEBEB"/>
<path d="M587.539 573.677H541.936V574.097H587.539V573.677Z" fill="#EBEBEB"/>
<path d="M698.621 561.562H604.341V561.982H698.621V561.562Z" fill="#EBEBEB"/>
<path d="M132.724 581.002H88.1468V581.423H132.724V581.002Z" fill="#EBEBEB"/>
<path d="M186.325 581.002H147.679V581.423H186.325V581.002Z" fill="#EBEBEB"/>
<path d="M322.292 571.694H220.115V572.114H322.292V571.694Z" fill="#EBEBEB"/>
<path d="M398.223 475.179H73.7805C71.2389 475.175 68.8028 474.162 67.0072 472.363C65.2115 470.564 64.203 468.127 64.203 465.585V9.51031C64.2251 6.98323 65.2434 4.56693 67.0367 2.78625C68.8299 1.00557 71.2533 0.00432902 73.7805 0H398.223C400.768 0 403.208 1.01083 405.007 2.81011C406.807 4.6094 407.817 7.04975 407.817 9.59432V465.585C407.817 468.13 406.807 470.57 405.007 472.369C403.208 474.168 400.768 475.179 398.223 475.179ZM73.7805 0.336055C71.3503 0.340506 69.0211 1.30904 67.3042 3.02906C65.5873 4.74908 64.6231 7.08005 64.6231 9.51031V465.585C64.6231 468.015 65.5873 470.346 67.3042 472.066C69.0211 473.786 71.3503 474.755 73.7805 474.759H398.223C400.655 474.755 402.986 473.787 404.705 472.067C406.425 470.348 407.393 468.017 407.397 465.585V9.51031C407.393 7.07851 406.425 4.74758 404.705 3.02804C402.986 1.30849 400.655 0.340496 398.223 0.336055H73.7805Z" fill="#EBEBEB"/>
<path d="M761.682 475.179H437.222C434.679 475.175 432.241 474.163 430.443 472.364C428.645 470.566 427.632 468.128 427.628 465.585V9.51031C427.654 6.9817 428.676 4.56541 430.472 2.7852C432.268 1.00498 434.693 0.00428181 437.222 0H761.682C764.206 0.00874494 766.625 1.01194 768.415 2.79215C770.204 4.57235 771.22 6.98613 771.242 9.51031V465.585C771.242 468.124 770.236 470.559 768.444 472.357C766.652 474.156 764.22 475.17 761.682 475.179ZM437.222 0.336055C434.79 0.340496 432.459 1.30849 430.74 3.02804C429.02 4.74758 428.052 7.07851 428.048 9.51031V465.585C428.052 468.017 429.02 470.348 430.74 472.067C432.459 473.787 434.79 474.755 437.222 474.759H761.682C764.113 474.755 766.444 473.787 768.164 472.067C769.883 470.348 770.851 468.017 770.856 465.585V9.51031C770.851 7.07851 769.883 4.74758 768.164 3.02804C766.444 1.30849 764.113 0.340496 761.682 0.336055H437.222Z" fill="#EBEBEB"/>
<path d="M749.953 38.6461H495.645V550.119H749.953V38.6461Z" fill="#FAFAFA"/>
<path d="M668.158 104.177H577.424V230.751H668.158V104.177Z" fill="white"/>
<path d="M749.936 550.119H751.516L751.516 38.6461H749.936L749.936 550.119Z" fill="#EBEBEB"/>
<path d="M737.334 550.119H735.654V52.9284H509.927V550.119H508.247V51.2481H737.334V550.119Z" fill="#E0E0E0"/>
<path d="M717.793 303.843H682.726C682.025 303.883 681.323 303.779 680.663 303.538C680.004 303.298 679.4 302.925 678.89 302.443C678.379 301.961 677.972 301.379 677.694 300.734C677.417 300.09 677.273 299.395 677.273 298.693C677.273 297.99 677.417 297.296 677.694 296.651C677.972 296.006 678.379 295.425 678.89 294.942C679.4 294.46 680.004 294.087 680.663 293.847C681.323 293.606 682.025 293.502 682.726 293.543H717.793C718.494 293.502 719.196 293.606 719.856 293.847C720.515 294.087 721.119 294.46 721.629 294.942C722.14 295.425 722.546 296.006 722.824 296.651C723.102 297.296 723.246 297.99 723.246 298.693C723.246 299.395 723.102 300.09 722.824 300.734C722.546 301.379 722.14 301.961 721.629 302.443C721.119 302.925 720.515 303.298 719.856 303.538C719.196 303.779 718.494 303.883 717.793 303.843ZM682.726 295.223C682.25 295.19 681.772 295.255 681.323 295.414C680.873 295.574 680.461 295.824 680.112 296.149C679.763 296.475 679.485 296.868 679.295 297.306C679.104 297.743 679.006 298.215 679.006 298.693C679.006 299.17 679.104 299.642 679.295 300.079C679.485 300.517 679.763 300.911 680.112 301.236C680.461 301.561 680.873 301.812 681.323 301.971C681.772 302.13 682.25 302.195 682.726 302.162H717.793C718.269 302.195 718.747 302.13 719.196 301.971C719.646 301.812 720.058 301.561 720.407 301.236C720.756 300.911 721.034 300.517 721.224 300.079C721.415 299.642 721.513 299.17 721.513 298.693C721.513 298.215 721.415 297.743 721.224 297.306C721.034 296.868 720.756 296.475 720.407 296.149C720.058 295.824 719.646 295.574 719.196 295.414C718.747 295.255 718.269 295.19 717.793 295.223H682.726Z" fill="#E0E0E0"/>
<path d="M330.576 182.208H94.0445V202.506H330.576V182.208Z" fill="#FAFAFA"/>
<path d="M330.559 202.506H97.069V550.119H330.559V202.506Z" fill="#FAFAFA"/>
<path d="M330.576 550.119H347.714L347.714 182.225H330.576L330.576 550.119Z" fill="#F0F0F0"/>
<path d="M206.992 222.669H116.678V428.081H206.992V222.669Z" fill="#F0F0F0"/>
<path d="M181.183 222.669H159.995L142.487 428.065H163.658L181.183 222.669Z" fill="white"/>
<path d="M308.026 534.325H119.618C118.559 534.32 117.544 533.898 116.795 533.149C116.046 532.399 115.624 531.385 115.619 530.326V444.632C115.624 443.573 116.046 442.558 116.795 441.809C117.544 441.06 118.559 440.637 119.618 440.633H308.026C309.086 440.637 310.1 441.06 310.849 441.809C311.598 442.558 312.021 443.573 312.025 444.632V530.326C312.021 531.385 311.598 532.399 310.849 533.149C310.1 533.898 309.086 534.32 308.026 534.325ZM119.618 442.649C119.116 442.654 118.636 442.855 118.28 443.21C117.925 443.565 117.724 444.046 117.719 444.548V530.242C117.724 530.744 117.925 531.224 118.28 531.579C118.636 531.934 119.116 532.136 119.618 532.14H308.026C308.529 532.136 309.009 531.934 309.364 531.579C309.719 531.224 309.921 530.744 309.925 530.242V444.548C309.921 444.046 309.719 443.565 309.364 443.21C309.009 442.855 308.529 442.654 308.026 442.649H119.618Z" fill="#F0F0F0"/>
<path d="M295.727 461.25C294.855 461.25 294.004 460.991 293.279 460.507C292.555 460.022 291.991 459.334 291.658 458.528C291.325 457.723 291.239 456.837 291.41 455.983C291.582 455.128 292.003 454.344 292.62 453.729C293.237 453.114 294.023 452.696 294.878 452.528C295.733 452.36 296.619 452.449 297.423 452.785C298.227 453.121 298.914 453.688 299.395 454.414C299.877 455.14 300.132 455.993 300.129 456.864C300.129 457.442 300.015 458.013 299.794 458.547C299.572 459.08 299.248 459.564 298.839 459.971C298.43 460.379 297.944 460.702 297.41 460.921C296.876 461.14 296.304 461.252 295.727 461.25ZM295.727 454.529C295.272 454.529 294.827 454.664 294.448 454.917C294.069 455.17 293.774 455.529 293.6 455.95C293.426 456.371 293.38 456.833 293.469 457.28C293.558 457.726 293.777 458.137 294.099 458.459C294.421 458.78 294.831 459 295.278 459.089C295.724 459.177 296.187 459.132 296.608 458.958C297.028 458.783 297.388 458.488 297.641 458.11C297.894 457.731 298.029 457.286 298.029 456.831C298.027 456.531 297.965 456.234 297.848 455.958C297.732 455.681 297.561 455.431 297.348 455.22C297.134 455.009 296.881 454.843 296.603 454.73C296.325 454.617 296.027 454.56 295.727 454.562V454.529Z" fill="#F0F0F0"/>
<path d="M119.013 222.669H116.678V428.081H119.013V222.669Z" fill="#EBEBEB"/>
<path d="M310.967 222.669H220.653V428.081H310.967V222.669Z" fill="#F0F0F0"/>
<path d="M262.491 222.669H253.771L236.262 428.065H244.983L262.491 222.669Z" fill="white"/>
<path d="M275.614 222.669H266.893L249.368 428.065H258.089L275.614 222.669Z" fill="white"/>
<path d="M222.988 222.669H220.653V428.081H222.988V222.669Z" fill="#EBEBEB"/>
<path d="M330.559 202.506H97.069V205.077H330.559V202.506Z" fill="#EBEBEB"/>
<path d="M376.934 34.7815H134.421V151.846H376.934V34.7815Z" fill="#FAFAFA"/>
<path d="M286.821 136.79C278.224 136.79 269.82 134.241 262.672 129.465C255.523 124.688 249.952 117.899 246.662 109.957C243.372 102.014 242.511 93.2738 244.188 84.8417C245.865 76.4097 250.005 68.6643 256.085 62.5851C262.164 56.506 269.909 52.366 278.341 50.6887C286.773 49.0115 295.513 49.8723 303.456 53.1623C311.399 56.4524 318.188 62.0238 322.964 69.1722C327.741 76.3206 330.29 84.7247 330.29 93.322C330.272 104.845 325.687 115.891 317.539 124.039C309.391 132.187 298.345 136.773 286.821 136.79ZM286.821 51.5338C278.557 51.5338 270.477 53.9846 263.605 58.5764C256.733 63.1681 251.377 69.6945 248.214 77.3303C245.051 84.9661 244.224 93.3684 245.836 101.474C247.449 109.581 251.429 117.027 257.273 122.871C263.117 128.715 270.563 132.695 278.669 134.307C286.775 135.92 295.177 135.092 302.813 131.929C310.449 128.766 316.975 123.41 321.567 116.538C326.159 109.666 328.61 101.587 328.61 93.322C328.596 82.2432 324.189 71.6219 316.355 63.788C308.522 55.9541 297.9 51.5471 286.821 51.5338Z" fill="white"/>
<path d="M335.364 62.4555C337.41 56.9737 337.773 51.006 336.406 45.3168L331.869 45.1656C332.881 50.6887 332.195 56.3886 329.903 61.5146C313.386 61.3801 310.463 78.8045 297.273 74.9567C292.564 73.7642 287.655 73.5867 282.873 74.4358C280.884 74.74 278.919 75.1836 276.992 75.7632C259.517 80.3167 238.178 91.2049 234.38 107.554L238.43 108.327C238.43 108.327 241.068 96.1952 258.593 87.5419C256.927 89.7324 255.69 92.218 254.947 94.8678C244.176 134.489 317.217 127.515 336.591 113.687C360.283 96.8674 350.184 68.3028 335.364 62.4555Z" fill="#EBEBEB"/>
<path d="M219.56 48.0388H146.368V52.71H219.56V48.0388Z" fill="#EBEBEB"/>
<path d="M201.077 59.9519H146.368V64.623H201.077V59.9519Z" fill="#EBEBEB"/>
<path d="M219.56 83.7613H146.368V88.4324H219.56V83.7613Z" fill="#EBEBEB"/>
<path d="M181.754 95.6744H146.368V100.346H181.754V95.6744Z" fill="#EBEBEB"/>
<path d="M212.688 95.6744H187.484V100.346H212.688V95.6744Z" fill="#EBEBEB"/>
<path d="M205.278 107.587H146.368V112.259H205.278V107.587Z" fill="#EBEBEB"/>
<path d="M219.56 119.484H146.368V124.155H219.56V119.484Z" fill="#EBEBEB"/>
<path d="M454.361 550.119H385.285C384.503 550.118 383.749 549.832 383.161 549.316C382.574 548.8 382.194 548.088 382.093 547.313L368.146 436.332C368.092 435.879 368.134 435.421 368.269 434.986C368.404 434.551 368.63 434.15 368.932 433.809C369.233 433.467 369.604 433.194 370.019 433.006C370.434 432.818 370.883 432.72 371.339 432.719H468.307C468.762 432.72 469.212 432.818 469.627 433.006C470.042 433.194 470.413 433.467 470.714 433.809C471.016 434.15 471.242 434.551 471.377 434.986C471.512 435.421 471.554 435.879 471.5 436.332L457.553 547.313C457.455 548.09 457.076 548.804 456.488 549.32C455.9 549.837 455.144 550.121 454.361 550.119Z" fill="#EBEBEB"/>
<path opacity="0.7" d="M366.651 430.434C364.131 432.248 366.13 460.343 369.44 466.543C372.75 472.743 392.51 467.416 416.101 465.333C439.692 463.249 467.954 471.583 469.181 466.543C470.407 461.502 477.296 434.08 473.684 430.434C470.794 427.51 436.046 427.51 420.772 429.258C405.499 431.005 372.028 426.586 366.651 430.434Z" fill="#F5F5F5"/>
<path d="M420.067 626C599.994 626 745.853 617.484 745.853 606.979C745.853 596.475 599.994 587.959 420.067 587.959C240.139 587.959 94.2797 596.475 94.2797 606.979C94.2797 617.484 240.139 626 420.067 626Z" fill="#F5F5F5"/>
<path d="M275.564 77.9307C262.878 66.0177 241.958 63.7325 234.128 76.1329C226.298 88.5332 230.768 101.639 214.704 115.384C203.783 124.777 211.882 153.56 274.186 150.922C303.674 149.678 293.694 118.996 292.904 104.496C292.114 89.9951 292.064 72.2514 275.564 77.9307Z" fill="#263238"/>
<path d="M251.015 583.758L235.926 584.346L235.641 568.014L250.729 567.426L251.015 583.758Z" fill="#B55B52"/>
<path d="M234.985 581.221H252.04C252.34 581.218 252.633 581.318 252.868 581.504C253.104 581.691 253.268 581.953 253.334 582.246L256.291 595.772C256.359 596.102 256.352 596.443 256.271 596.769C256.189 597.096 256.036 597.4 255.822 597.66C255.607 597.919 255.337 598.128 255.032 598.269C254.726 598.411 254.393 598.482 254.056 598.477C248.091 598.376 245.201 598.024 237.69 598.024C233.07 598.024 221.089 598.511 214.704 598.511C208.319 598.511 207.513 592.193 210.117 591.622C221.879 589.051 228.718 585.522 232.482 582.145C233.172 581.536 234.065 581.206 234.985 581.221Z" fill="#263238"/>
<path opacity="0.2" d="M235.641 568.031L235.775 575.626L250.864 574.97L250.729 567.443L235.641 568.031Z" fill="black"/>
<path d="M213.394 254.812C210.033 272.926 213.898 361.459 219.023 400.559C225.845 452.479 232.902 573.038 232.902 573.038L253.065 571.828C253.065 571.828 258.106 444.867 253.989 403.18C256.325 349.529 262.105 255.821 262.105 255.821L213.394 254.812Z" fill="#2D9CDB"/>
<path opacity="0.2" d="M258.761 314.21C259.467 300.616 249.839 288.535 245.957 314.21C243.504 330.525 248.579 359.123 255.232 379.32C256.257 358.3 257.568 334.894 258.761 314.21Z" fill="black"/>
<path d="M361.879 532.964L352.066 542.34L338.775 528.091L348.571 518.732L361.879 532.964Z" fill="#B55B52"/>
<path d="M349.495 542.592L359.577 528.78C359.741 528.54 359.991 528.371 360.275 528.309C360.559 528.246 360.856 528.295 361.106 528.444L372.868 535.366C373.157 535.559 373.405 535.807 373.597 536.097C373.788 536.388 373.919 536.713 373.982 537.055C374.044 537.397 374.038 537.748 373.962 538.087C373.886 538.426 373.742 538.747 373.54 539.029C369.961 543.785 367.995 545.885 363.576 551.967C360.854 555.698 357.712 560.839 353.965 566.014C350.218 571.19 345.093 567.476 346.202 564.973C351.243 553.732 349.109 550.606 348.84 545.246C348.754 544.313 348.985 543.378 349.495 542.592Z" fill="#263238"/>
<path opacity="0.2" d="M338.775 528.108L345.631 535.434L355.36 525.991L348.588 518.732L338.775 528.108Z" fill="black"/>
<path d="M236.783 255.3C236.783 255.3 258.492 369.558 264.138 413.917C267.498 440.415 341.598 535.753 341.598 535.753L354.251 522.428C354.251 522.428 327.131 452.63 294.467 411.228C293.173 362.702 298.684 282.822 279.932 256.19L236.783 255.3Z" fill="#2D9CDB"/>
<path d="M217.729 167.691C217.729 177.503 217.275 187.131 216.553 196.86C215.83 206.589 214.872 216.267 213.31 226.013L213.024 227.844L212.638 229.911C212.346 231.266 212.027 232.594 211.68 233.893C210.941 236.464 210 238.934 209.16 241.32C207.321 245.998 205.235 250.575 202.909 255.031C198.329 263.744 193.112 272.106 187.299 280.05C186.686 280.874 185.79 281.441 184.783 281.645C183.776 281.848 182.73 281.673 181.845 281.152C180.96 280.631 180.298 279.802 179.987 278.824C179.675 277.845 179.736 276.786 180.158 275.849V275.749C184.107 267.213 187.938 258.459 191.281 249.788C192.962 245.453 194.457 241.068 195.734 236.766C196.339 234.616 196.877 232.482 197.297 230.398C197.515 229.356 197.667 228.331 197.818 227.323L197.986 225.828L198.154 224.148C199.011 214.839 199.515 205.396 199.985 195.936C200.456 186.476 200.674 176.932 200.943 167.556V167.472C200.979 165.244 201.898 163.121 203.499 161.571C205.1 160.021 207.251 159.17 209.479 159.205C211.707 159.241 213.83 160.16 215.38 161.761C216.93 163.362 217.781 165.513 217.746 167.741L217.729 167.691Z" fill="#B55B52"/>
<path d="M212.251 155.408C191.618 161.44 194.272 198.977 194.272 198.977L223.61 206.874C223.61 206.874 228.483 179.385 228.046 169.522C227.609 159.272 223.627 152.098 212.251 155.408Z" fill="#2D9CDB"/>
<path d="M182.342 273.682L172.009 282.47L186.493 288.384C186.493 288.384 190.979 281.545 188.896 275.06L182.342 273.682Z" fill="#B55B52"/>
<path d="M173.84 295.878L180.444 296.701C181.177 296.793 181.921 296.64 182.559 296.267C183.197 295.893 183.693 295.319 183.972 294.635L186.493 288.384L172.009 282.47L170.917 292.165C170.817 293.044 171.068 293.927 171.615 294.622C172.163 295.317 172.962 295.769 173.84 295.878Z" fill="#B55B52"/>
<path d="M205.581 165.17C204.656 202.808 213.31 230.28 213.411 254.812L279.932 256.19C279.445 231.625 279.647 215.595 290.216 171.572C290.675 169.655 290.73 167.662 290.376 165.723C290.022 163.783 289.268 161.938 288.161 160.306C287.054 158.675 285.619 157.292 283.948 156.246C282.276 155.2 280.405 154.514 278.454 154.232C274.472 153.644 270.052 153.089 265.566 152.787C255.512 151.855 245.405 151.642 235.321 152.148C228.231 152.652 220.602 153.694 215.158 154.517C212.572 154.902 210.201 156.176 208.453 158.121C206.705 160.065 205.689 162.558 205.581 165.17Z" fill="#2D9CDB"/>
<path d="M267.582 199.952L247.856 199.817C247.66 199.826 247.464 199.792 247.282 199.717C247.1 199.643 246.936 199.53 246.802 199.386C246.668 199.242 246.567 199.071 246.505 198.885C246.443 198.698 246.423 198.5 246.445 198.305L247.537 188.963C247.608 188.546 247.824 188.167 248.147 187.894C248.469 187.62 248.878 187.469 249.301 187.467L269.011 187.602C269.206 187.591 269.402 187.622 269.584 187.695C269.766 187.767 269.93 187.879 270.064 188.021C270.199 188.164 270.3 188.334 270.362 188.52C270.424 188.705 270.444 188.903 270.422 189.097L269.33 198.456C269.262 198.872 269.05 199.25 268.73 199.524C268.41 199.798 268.003 199.949 267.582 199.952Z" fill="white"/>
<path opacity="0.4" d="M235.422 152.165C235.422 152.165 224.568 159.76 236.044 178.814C245.466 169.649 255.341 160.962 265.633 152.787L235.422 152.165Z" fill="white"/>
<path d="M263.348 118.711C261.248 128.389 258.963 146.166 265.633 152.787C255.144 156.919 245.472 162.881 237.069 170.396C229.692 156.853 235.388 152.148 235.388 152.148C246.277 149.796 246.176 141.747 244.445 134.152L263.348 118.711Z" fill="#B55B52"/>
<path opacity="0.2" d="M261.298 120.391C261.036 126.174 259.541 131.834 256.913 136.992C255.081 140.537 250.192 142.033 245.268 142.319C245.431 139.572 245.165 136.817 244.479 134.152L261.298 120.391Z" fill="black"/>
<path d="M279.092 106.865C274.051 122.357 272.371 129.011 262.29 135.06C247.251 144.15 229.323 134.657 229.558 118.005C229.793 103.017 237.959 80.2159 254.88 77.8804C258.627 77.3379 262.45 77.7636 265.986 79.1169C269.522 80.4702 272.652 82.7061 275.079 85.6117C277.507 88.5172 279.15 91.9958 279.852 95.716C280.554 99.4363 280.293 103.274 279.092 106.865Z" fill="#B55B52"/>
<path d="M238.01 86.5169C246.411 88.8861 266.877 90.6503 270.977 88.1972C267.129 94.1117 270.792 110.276 276.74 114.191C284.755 107.755 286.536 92.1962 279.126 84.4838C271.716 76.7714 248.293 67.5467 238.01 86.5169Z" fill="#263238"/>
<path d="M281.445 116.342C280.914 117.818 280.094 119.173 279.032 120.327C277.97 121.481 276.688 122.411 275.261 123.063C271.464 124.743 268.943 121.517 269.481 117.602C269.968 114.09 272.539 108.965 276.605 108.898C277.483 108.91 278.344 109.138 279.112 109.562C279.881 109.986 280.533 110.593 281.011 111.328C281.49 112.064 281.78 112.907 281.855 113.781C281.931 114.655 281.79 115.535 281.445 116.342Z" fill="#B55B52"/>
<path d="M281.008 252.309L283.898 258.341C284.116 258.795 283.562 259.265 282.789 259.248L213.007 257.786C212.419 257.786 211.932 257.467 211.898 257.081L211.411 251.116C211.411 250.713 211.915 250.376 212.57 250.376L279.949 251.788C280.156 251.776 280.362 251.817 280.547 251.908C280.733 252 280.892 252.138 281.008 252.309Z" fill="#263238"/>
<path d="M271.817 259.652H273.615C273.967 259.652 274.253 259.467 274.236 259.248L273.547 251.485C273.547 251.267 273.211 251.065 272.858 251.065H271.044C270.691 251.065 270.422 251.233 270.439 251.469L271.111 259.215C271.145 259.467 271.447 259.652 271.817 259.652Z" fill="#2D9CDB"/>
<path d="M218.065 258.543H219.88C220.232 258.543 220.518 258.375 220.501 258.139L219.812 250.376C219.812 250.158 219.476 249.973 219.124 249.956H217.309C216.956 249.956 216.67 250.124 216.704 250.36L217.376 258.106C217.41 258.341 217.712 258.526 218.065 258.543Z" fill="#2D9CDB"/>
<path d="M244.932 259.097H246.747C247.1 259.097 247.386 258.929 247.369 258.694L246.68 250.948C246.68 250.713 246.344 250.528 245.991 250.528H244.176C243.823 250.528 243.555 250.713 243.571 250.931L244.244 258.694C244.277 258.895 244.58 259.097 244.932 259.097Z" fill="#2D9CDB"/>
<path d="M254.913 105.571C254.577 106.848 253.636 107.722 252.796 107.503C251.956 107.285 251.553 106.075 251.872 104.798C252.191 103.521 253.149 102.647 253.989 102.866C254.829 103.084 255.232 104.294 254.913 105.571Z" fill="#263238"/>
<path d="M240.429 101.875C240.11 103.168 239.169 104.025 238.329 103.807C237.489 103.588 237.069 102.395 237.405 101.102C237.741 99.8078 238.665 98.9677 239.505 99.1693C240.345 99.371 240.765 100.598 240.429 101.875Z" fill="#263238"/>
<path d="M239.858 99.3374L237.002 97.6571C237.002 97.6571 237.976 100.48 239.858 99.3374Z" fill="#263238"/>
<path d="M243.639 105.05C241.758 107.684 239.524 110.047 237.002 112.074C237.534 112.705 238.198 113.212 238.947 113.56C239.695 113.909 240.511 114.089 241.337 114.09L243.639 105.05Z" fill="#A02724"/>
<path d="M244.445 119.114C244.386 119.063 244.342 118.997 244.318 118.923C244.295 118.849 244.292 118.77 244.311 118.694C244.326 118.645 244.351 118.6 244.384 118.561C244.416 118.522 244.457 118.49 244.502 118.467C244.547 118.443 244.597 118.429 244.647 118.425C244.698 118.42 244.749 118.426 244.798 118.442C246.367 118.934 248.031 119.05 249.653 118.782C251.276 118.513 252.813 117.867 254.14 116.896C254.218 116.829 254.32 116.796 254.422 116.804C254.524 116.812 254.62 116.86 254.686 116.938C254.753 117.016 254.786 117.117 254.778 117.22C254.771 117.322 254.722 117.417 254.644 117.484C253.224 118.556 251.565 119.269 249.81 119.561C248.054 119.854 246.254 119.718 244.563 119.165L244.445 119.114Z" fill="#263238"/>
<path d="M262.81 99.6734C262.709 99.5824 262.623 99.4744 262.558 99.3541C262.211 98.4434 261.653 97.6285 260.928 96.9769C260.203 96.3253 259.334 95.8557 258.391 95.6072C258.189 95.5715 258.008 95.4568 257.89 95.2882C257.772 95.1196 257.726 94.911 257.761 94.7082C257.797 94.5054 257.912 94.3251 258.08 94.207C258.249 94.0888 258.457 94.0425 258.66 94.0781C259.859 94.3746 260.969 94.9532 261.898 95.7657C262.828 96.5783 263.549 97.6012 264.003 98.7492C264.063 98.9072 264.07 99.08 264.024 99.2423C263.978 99.4047 263.881 99.548 263.748 99.6513C263.614 99.7547 263.451 99.8126 263.283 99.8165C263.114 99.8205 262.949 99.7703 262.81 99.6734Z" fill="#263238"/>
<path d="M237.573 93.7085L237.472 93.6076C237.327 93.4627 237.246 93.2663 237.246 93.0616C237.246 92.8568 237.327 92.6604 237.472 92.5155C238.359 91.683 239.43 91.0712 240.598 90.7297C241.765 90.3881 242.997 90.3264 244.193 90.5496C244.293 90.5749 244.387 90.62 244.469 90.6821C244.552 90.7443 244.621 90.8223 244.672 90.9116C244.724 91.0008 244.757 91.0995 244.77 91.2018C244.783 91.3041 244.775 91.408 244.748 91.5073C244.696 91.7055 244.568 91.8753 244.392 91.9792C244.215 92.0832 244.005 92.1129 243.807 92.0618C242.848 91.8811 241.86 91.9316 240.925 92.2093C239.99 92.4869 239.134 92.9836 238.43 93.6581C238.308 93.7502 238.161 93.8042 238.009 93.8132C237.856 93.8221 237.705 93.7857 237.573 93.7085Z" fill="#263238"/>
<path d="M290.199 166.111C295.088 172.58 299.659 179.1 304.095 185.871C306.296 189.232 308.48 192.592 310.547 196.221C312.773 199.892 314.771 203.697 316.529 207.614C317.061 208.835 317.521 210.086 317.906 211.361C318.186 212.344 318.377 213.351 318.478 214.368C318.505 214.777 318.505 215.187 318.478 215.595V216.351C318.447 216.684 318.397 217.015 318.326 217.342L318.209 217.863V218.099V218.283L318.074 218.653C317.285 220.669 316.663 222.702 315.722 224.652C314.018 228.646 311.972 232.486 309.606 236.128C307.169 239.804 304.316 243.187 301.104 246.209C299.467 247.744 297.708 249.144 295.844 250.393C294.887 251.015 293.912 251.62 292.904 252.174L291.308 252.947C290.703 253.216 290.266 253.401 289.392 253.72L286.2 246.058C286.427 245.836 286.668 245.628 286.922 245.437L287.846 244.63C288.468 244.075 289.073 243.471 289.661 242.849C290.858 241.565 291.98 240.213 293.022 238.799C295.074 235.913 296.862 232.849 298.365 229.642C299.071 227.962 299.843 226.382 300.432 224.601C301.02 222.82 301.675 221.241 302.213 219.56C302.75 217.88 303.17 216.032 303.691 214.284V213.965V213.797V213.948V214.284C303.691 214.486 303.607 214.788 303.59 214.906C303.582 215.035 303.582 215.164 303.59 215.293V215.78C303.59 216.166 303.59 216.049 303.59 215.881C303.59 215.713 303.12 214.805 302.767 214.1C301.238 211.226 299.188 207.916 297.088 204.757C294.988 201.598 292.803 198.355 290.568 195.18C286.116 188.812 281.529 182.376 277.025 176.058L290.199 166.111Z" fill="#B55B52"/>
<path d="M293.845 251.738L280.89 260.895L275.076 247.654C275.076 247.654 282.94 243.437 289.14 246.26L293.845 251.738Z" fill="#B55B52"/>
<path d="M271.867 261.987L268.624 257.467C268.009 256.595 267.757 255.518 267.923 254.464C268.09 253.409 268.661 252.462 269.515 251.822L275.076 247.654L280.89 260.895L277.328 263.096C276.446 263.637 275.393 263.824 274.379 263.618C273.365 263.412 272.468 262.829 271.867 261.987Z" fill="#B55B52"/>
<path d="M264.272 162.112C259.87 179.604 287.023 209.546 287.023 209.546L309.858 185.837C309.858 185.837 299.423 163.557 285.796 156.567C276.286 151.694 266.221 154.4 264.272 162.112Z" fill="#2D9CDB"/>
<path d="M254.342 103.034L251.485 101.354C251.485 101.354 252.443 104.177 254.342 103.034Z" fill="#263238"/>
<path d="M225.156 208.84C225.033 208.839 224.913 208.802 224.812 208.734C224.71 208.665 224.631 208.567 224.584 208.454C224.53 208.304 224.536 208.14 224.602 207.995C224.668 207.85 224.789 207.738 224.937 207.681L227.558 206.673C230.014 205.766 232.134 204.132 233.635 201.988C235.136 199.844 235.947 197.293 235.96 194.676L236.145 170.11C236.198 168.24 235.607 166.408 234.471 164.921C233.336 163.434 231.724 162.383 229.906 161.942C228.087 161.501 226.173 161.698 224.483 162.5C222.792 163.302 221.428 164.659 220.619 166.346L209.26 188.19C208.04 190.496 207.547 193.118 207.847 195.709C208.147 198.301 209.226 200.741 210.941 202.707L212.789 204.808C212.851 204.865 212.901 204.936 212.934 205.014C212.967 205.092 212.984 205.176 212.982 205.261C212.981 205.346 212.962 205.429 212.926 205.506C212.89 205.583 212.839 205.652 212.775 205.707C212.711 205.763 212.636 205.805 212.555 205.83C212.473 205.854 212.388 205.862 212.304 205.852C212.219 205.841 212.138 205.813 212.066 205.769C211.993 205.726 211.93 205.667 211.882 205.597L210.033 203.312C208.141 201.175 206.945 198.512 206.606 195.678C206.267 192.844 206.8 189.974 208.135 187.45L219.493 165.607C220.464 163.743 222.034 162.26 223.951 161.397C225.867 160.533 228.018 160.34 230.058 160.849C232.097 161.357 233.906 162.537 235.193 164.199C236.48 165.861 237.171 167.908 237.153 170.009L236.968 194.575C236.954 197.424 236.077 200.203 234.451 202.543C232.825 204.883 230.527 206.674 227.861 207.681L225.24 208.672L225.156 208.84Z" fill="#263238"/>
<path d="M236.565 175.588C236.408 175.584 236.259 175.521 236.147 175.412C236.035 175.303 235.968 175.156 235.96 175C235.722 173.058 234.901 171.234 233.605 169.769C232.31 168.303 230.601 167.265 228.703 166.79C226.805 166.315 224.809 166.426 222.975 167.109C221.142 167.792 219.559 169.014 218.435 170.614C218.396 170.684 218.344 170.745 218.282 170.794C218.22 170.844 218.148 170.881 218.072 170.902C217.995 170.924 217.915 170.931 217.836 170.922C217.757 170.913 217.681 170.888 217.611 170.849C217.542 170.811 217.481 170.759 217.431 170.697C217.382 170.634 217.345 170.563 217.323 170.487C217.301 170.41 217.295 170.33 217.304 170.251C217.313 170.172 217.337 170.096 217.376 170.026C218.626 168.178 220.414 166.759 222.497 165.961C224.581 165.162 226.859 165.023 229.024 165.562C231.189 166.101 233.136 167.292 234.602 168.974C236.068 170.656 236.982 172.748 237.22 174.966C237.22 175.125 237.159 175.279 237.05 175.394C236.941 175.51 236.791 175.579 236.632 175.588H236.565Z" fill="#263238"/>
<path d="M230.012 162.163C229.912 162.161 229.815 162.136 229.727 162.089C229.639 162.043 229.564 161.976 229.508 161.894C229.201 161.212 229.042 160.473 229.042 159.726C229.042 158.979 229.201 158.24 229.508 157.559C229.944 156.203 230.679 154.964 231.659 153.931C232.64 152.899 233.839 152.1 235.17 151.594C235.244 151.565 235.323 151.552 235.402 151.555C235.481 151.558 235.558 151.578 235.629 151.612C235.7 151.647 235.764 151.696 235.815 151.757C235.866 151.817 235.904 151.887 235.926 151.963C235.975 152.113 235.963 152.275 235.894 152.416C235.825 152.557 235.704 152.666 235.557 152.719C234.417 153.187 233.392 153.896 232.554 154.798C231.716 155.701 231.083 156.774 230.701 157.945C230.45 158.465 230.305 159.03 230.273 159.607C230.241 160.184 230.324 160.761 230.516 161.306C230.559 161.373 230.589 161.448 230.603 161.527C230.617 161.605 230.616 161.686 230.599 161.764C230.582 161.842 230.549 161.916 230.503 161.982C230.457 162.047 230.399 162.103 230.331 162.146C230.227 162.176 230.118 162.182 230.012 162.163Z" fill="#263238"/>
<path d="M223.778 207.916C223.492 209.008 223.778 210.05 224.584 210.235C225.391 210.42 226.13 209.664 226.399 208.555C226.668 207.446 226.298 206.404 225.576 206.236C224.853 206.068 224.047 206.807 223.778 207.916Z" fill="#263238"/>
<path d="M271.464 178.898C272.002 181.435 273.816 183.183 275.48 182.83C277.143 182.477 278.05 180.108 277.496 177.587C276.942 175.067 275.144 173.286 273.48 173.656C271.817 174.025 270.909 176.428 271.464 178.898Z" fill="#263238"/>
<path d="M276.723 178.108C276.646 178.11 276.569 178.097 276.497 178.07C276.424 178.042 276.358 178.001 276.302 177.948C276.246 177.895 276.201 177.831 276.169 177.761C276.138 177.69 276.12 177.614 276.118 177.537C275.765 168.245 272.237 156.702 265.364 153.291C265.223 153.219 265.115 153.094 265.064 152.943C265.014 152.792 265.025 152.627 265.096 152.484C265.13 152.412 265.178 152.348 265.237 152.295C265.297 152.243 265.366 152.203 265.441 152.177C265.517 152.152 265.596 152.143 265.676 152.149C265.755 152.156 265.832 152.178 265.902 152.215C273.262 155.862 276.941 167.539 277.311 177.419C277.318 177.498 277.309 177.578 277.283 177.653C277.257 177.729 277.217 177.798 277.163 177.856C277.109 177.915 277.044 177.961 276.971 177.993C276.898 178.025 276.819 178.041 276.74 178.041L276.723 178.108Z" fill="#263238"/>
<path d="M269.666 179.116C270.019 181.284 271.581 182.83 273.161 182.578C274.74 182.326 275.748 180.36 275.396 178.175C275.043 175.991 273.463 174.462 271.884 174.714C270.304 174.966 269.313 176.932 269.666 179.116Z" fill="white"/>
<path d="M269.532 179.301C270.036 181.99 271.447 183.972 272.674 183.737C273.9 183.502 274.455 181.15 273.951 178.461C273.447 175.773 272.035 173.79 270.809 174.025C269.582 174.26 269.011 176.613 269.532 179.301Z" fill="#263238"/>
<path d="M211.075 204.74C210.806 205.849 211.176 206.891 211.898 207.059C212.621 207.227 213.427 206.505 213.713 205.379C213.999 204.253 213.612 203.245 212.89 203.06C212.167 202.875 211.361 203.648 211.075 204.74Z" fill="#263238"/>
<path d="M395.131 67.9164C384.495 69.8151 383.151 68.8405 383.017 61.1953C382.882 53.5501 379.018 40.7969 384.394 36.7978C384.763 36.4479 385.218 36.2008 385.712 36.0813C386.206 35.9619 386.723 35.9742 387.211 36.117C387.7 36.2599 388.142 36.5283 388.494 36.8954C388.845 37.2625 389.095 37.7156 389.217 38.2093C389.545 37.3706 390.184 36.691 391.001 36.3123C391.818 35.9335 392.75 35.8847 393.602 36.1761C393.821 34.5967 394.073 30.5472 396.963 29.4551C399.853 28.3629 402.508 30.9841 402.508 30.9841C402.508 30.9841 402.289 24.7503 406.49 25.3552C407.744 25.5556 408.909 26.1294 409.832 27.0016C410.755 27.8738 411.394 29.004 411.665 30.2448C411.665 30.2448 414.085 26.7162 417.361 28.1109C420.638 29.5055 419.949 33.6053 419.949 33.6053C419.949 33.6053 423.427 31.9251 426.015 33.8238C428.602 35.7225 426.72 38.7637 426.72 38.7637C426.72 38.7637 429.073 32.7148 433.559 36.0585C437.592 39.083 433.929 43.8213 433.929 43.8213C433.929 43.8213 438.365 43.0988 439.44 45.3336C443.069 52.9452 429.241 61.4473 428.787 74.3014C407.549 82.333 395.131 67.9164 395.131 67.9164Z" fill="#263238"/>
<path d="M318.478 272.203L311.387 270.893L302.011 279.848C301.501 280.334 301.098 280.922 300.829 281.573C300.56 282.224 300.43 282.925 300.448 283.629L300.583 290.955C300.599 292.208 301.082 293.409 301.936 294.326C302.79 295.242 303.955 295.807 305.204 295.912L308.463 296.197C309.649 296.309 310.836 295.998 311.814 295.318C312.792 294.639 313.498 293.634 313.806 292.484L315.487 286.502C315.487 286.502 324.745 275.564 318.478 272.203Z" fill="#FFB573"/>
<path d="M390.091 138.219C385.335 150.535 380.597 162.902 376.027 175.302C371.456 187.703 366.92 200.153 362.669 212.402L361.913 214.671L361.392 216.149C361.19 216.704 360.988 217.275 360.804 217.712C360.014 219.712 359.224 221.358 358.434 223.022C356.855 226.382 355.259 229.39 353.646 232.431C350.403 238.48 347.059 244.311 343.682 250.124C336.961 261.769 330.24 273.144 323.283 284.688L301.893 271.38C308.951 260.408 315.756 249.083 322.275 237.774C325.484 232.095 328.643 226.399 331.584 220.753C333.046 217.931 334.457 215.108 335.7 212.352C336.288 211.025 336.877 209.664 337.263 208.555C337.397 208.235 337.448 208.017 337.532 207.799L337.801 206.925L338.574 204.472C342.623 191.567 346.874 179.1 350.974 166.447L363.274 128.624L390.091 138.219Z" fill="#2D9CDB"/>
<path opacity="0.6" d="M390.091 138.219C385.335 150.535 380.597 162.902 376.027 175.302C371.456 187.703 366.92 200.153 362.669 212.402L361.913 214.671L361.392 216.149C361.19 216.704 360.988 217.275 360.804 217.712C360.014 219.712 359.224 221.358 358.434 223.022C356.855 226.382 355.259 229.39 353.646 232.431C350.403 238.48 347.059 244.311 343.682 250.124C336.961 261.769 330.24 273.144 323.283 284.688L301.893 271.38C308.951 260.408 315.756 249.083 322.275 237.774C325.484 232.095 328.643 226.399 331.584 220.753C333.046 217.931 334.457 215.108 335.7 212.352C336.288 211.025 336.877 209.664 337.263 208.555C337.397 208.235 337.448 208.017 337.532 207.799L337.801 206.925L338.574 204.472C342.623 191.567 346.874 179.1 350.974 166.447L363.274 128.624L390.091 138.219Z" fill="white"/>
<path d="M326.005 587.942L310.933 588.681L318.058 549.43L332.39 552.724L326.005 587.942Z" fill="#FFB573"/>
<path d="M434.13 588.513H419.058L419.109 553.614H434.164L434.13 588.513Z" fill="#FFB573"/>
<path d="M417.63 586.766H435.996C436.291 586.761 436.578 586.862 436.806 587.05C437.034 587.237 437.187 587.5 437.239 587.791L439.658 601.233C439.712 601.565 439.693 601.906 439.602 602.23C439.51 602.554 439.35 602.855 439.131 603.111C438.912 603.367 438.639 603.572 438.333 603.712C438.027 603.852 437.693 603.923 437.357 603.921C431.442 603.82 427.14 603.468 419.697 603.468C415.127 603.468 401.214 603.938 394.963 603.938C388.713 603.938 388.074 597.687 390.679 597.116C402.441 594.579 411.296 591.084 415.143 587.74C415.825 587.122 416.71 586.776 417.63 586.766Z" fill="#263238"/>
<path opacity="0.2" d="M318.058 549.447L314.764 567.594L329.097 570.887L332.39 552.74L318.058 549.447Z" fill="black"/>
<path opacity="0.2" d="M434.164 553.614H419.092V571.593H434.164V553.614Z" fill="black"/>
<path d="M446.295 137.782C434.534 190.693 437.659 242.916 436.399 254.224L355.964 248.915C347.563 185.065 356.939 144.335 362.265 127.633C363.131 124.876 364.769 122.425 366.984 120.57C369.2 118.715 371.9 117.533 374.767 117.165C386.727 115.854 398.772 115.478 410.791 116.039C418.929 116.526 427.005 117.752 434.92 119.702C438.824 120.596 442.213 123.001 444.346 126.39C446.478 129.779 447.179 133.876 446.295 137.782Z" fill="#2D9CDB"/>
<path d="M422.049 80.1823C419.394 90.1463 416.252 107.789 421.31 116.711C422.1 118.106 420.587 119.299 420.52 120.912C420.335 125.852 413.648 127.331 401.684 127.398C389.721 127.465 384.596 122.475 387.856 117.77C388.356 117.053 389.115 116.559 389.973 116.392C401.18 113.888 401.399 105.101 399.87 96.7161L422.049 80.1823Z" fill="#FFB573"/>
<path opacity="0.4" d="M400.828 124.659C403.97 129.029 405.963 134.12 406.624 139.462C418.571 133.85 424.267 120.223 424.267 120.223L420.671 116.375C420.671 116.375 407.397 118.879 400.828 124.659Z" fill="black"/>
<path opacity="0.4" d="M399.651 124.709C395.253 128.29 391.54 132.64 388.696 137.547C380.345 132.371 383.101 117.619 383.101 117.619L389.906 116.274C389.906 116.274 392.947 119.08 399.651 124.709Z" fill="black"/>
<path d="M400.189 124.34L397.618 124.592L393.266 127.465C392.989 129.196 393.296 130.969 394.14 132.506C396.668 132.999 399.248 133.174 401.819 133.027C403.544 132.194 404.919 130.777 405.7 129.028L402.508 124.945L400.189 124.34Z" fill="#263238"/>
<path d="M400.189 124.34C403.417 128.38 405.893 132.967 407.498 137.883C419.445 132.271 426.401 118.862 426.401 118.862L420.638 113.821C420.638 113.821 406.759 118.593 400.189 124.34Z" fill="#2D9CDB"/>
<path d="M400.189 124.34C395.578 127.249 391.544 130.986 388.293 135.362C379.891 130.204 383.101 116.308 383.101 116.308L389.906 114.964C389.906 114.964 393.502 118.744 400.189 124.34Z" fill="#2D9CDB"/>
<path opacity="0.2" d="M413.009 86.9202L399.903 96.6993C400.3 98.7206 400.52 100.773 400.559 102.832C405.28 102.479 412.068 97.7915 412.892 92.8851C413.286 90.9197 413.326 88.8996 413.009 86.9202Z" fill="black"/>
<path d="M424.452 63.7157C422.553 78.5524 422.2 87.2394 414.169 94.4814C402.088 105.218 384.159 97.1866 381.588 82.081C379.27 68.4876 382.765 46.5098 397.736 41.553C401.032 40.4419 404.558 40.1923 407.977 40.8276C411.397 41.463 414.598 42.9624 417.275 45.1833C419.952 47.4041 422.017 50.2727 423.273 53.5163C424.529 56.76 424.935 60.271 424.452 63.7157Z" fill="#FFB573"/>
<path d="M420.823 77.1242C417.462 73.8813 419.562 58.3557 421.26 53.903C412.858 54.7095 385.705 54.6759 386.73 47.1819C387.755 39.6879 397.635 33.3197 413.782 38.5789C427.224 42.9644 430.585 49.6687 430.585 55.1463C430.787 66.4041 420.823 77.1242 420.823 77.1242Z" fill="#263238"/>
<path d="M429.661 77.2922C428.065 80.3418 425.339 82.6456 422.066 83.7108C417.781 85.0383 415.664 81.0896 416.874 76.8554C417.949 73.0579 421.495 67.7651 425.779 68.3028C430.064 68.8405 431.627 73.5116 429.661 77.2922Z" fill="#FFB573"/>
<path d="M309.858 562.99L334.776 568.484C334.776 568.484 359.006 473.533 366.197 427.124C368.398 413.01 373.506 392.863 378.161 371.675C384.025 344.959 391.401 316.058 397.45 293.425C403.835 269.582 408.574 252.443 408.574 252.443L355.964 248.965C355.964 248.965 331.483 373.154 326.543 418.874C321.385 466.392 309.858 562.99 309.858 562.99Z" fill="#263238"/>
<path opacity="0.2" d="M378.161 371.641C384.025 344.925 391.401 316.024 397.45 293.391L391.922 281.629C378.866 297.222 375.523 345.463 378.161 371.641Z" fill="black"/>
<path d="M381.034 250.578C381.034 250.578 391.922 377.489 396.156 421.428C400.861 469.55 413.48 568.132 413.48 568.132H438.785C438.785 568.132 439.927 463.149 435.424 416.672C434.786 325.3 436.382 254.241 436.382 254.241L381.034 250.578Z" fill="#263238"/>
<path d="M410.254 568.72H442.75V559.008L408.994 557.143L410.254 568.72Z" fill="#2D9CDB"/>
<path d="M306.598 562.889L336.288 569.442L338.406 559.848L307.321 552.018L306.598 562.889Z" fill="#2D9CDB"/>
<path d="M402.76 66.3705C402.76 67.5803 401.97 68.5212 401.18 68.4708C400.391 68.4204 399.803 67.3955 399.887 66.1857C399.971 64.9759 400.676 64.0349 401.466 64.0853C402.256 64.1357 402.844 65.1607 402.76 66.3705Z" fill="#263238"/>
<path d="M389.049 65.5304C389.049 66.7402 388.259 67.6811 387.469 67.6307C386.68 67.5803 386.092 66.5553 386.176 65.3456C386.26 64.1358 386.965 63.1948 387.755 63.2452C388.545 63.2956 389.133 64.2534 389.049 65.5304Z" fill="#263238"/>
<path d="M392.191 66.3705C390.497 69.9752 388.32 73.3328 385.722 76.3513C387.721 78.502 391.435 77.8299 391.435 77.8299L392.191 66.3705Z" fill="#ED893E"/>
<path d="M396.341 81.4089C397.703 81.3321 399.035 80.9798 400.257 80.3733C401.478 79.7668 402.564 78.9187 403.449 77.8803C403.511 77.8147 403.546 77.7274 403.546 77.6367C403.546 77.546 403.511 77.4587 403.449 77.3931C403.38 77.3293 403.29 77.2938 403.197 77.2938C403.103 77.2938 403.013 77.3293 402.945 77.3931C401.947 78.5316 400.696 79.4197 399.292 79.9859C397.888 80.5521 396.371 80.7806 394.863 80.6528C394.816 80.6481 394.769 80.6528 394.725 80.6663C394.68 80.6799 394.639 80.7022 394.603 80.7318C394.567 80.7615 394.537 80.798 394.515 80.8393C394.494 80.8805 394.48 80.9256 394.476 80.972C394.471 81.0674 394.504 81.1608 394.566 81.2329C394.629 81.3049 394.717 81.3499 394.812 81.3585C395.32 81.4062 395.831 81.423 396.341 81.4089Z" fill="#263238"/>
<path d="M406.104 62.1699C406.223 62.1562 406.338 62.116 406.44 62.0522C406.599 61.9489 406.711 61.7869 406.752 61.6014C406.793 61.4158 406.759 61.2217 406.658 61.0609C406.058 60.0941 405.236 59.2848 404.259 58.7003C403.283 58.1157 402.181 57.7729 401.046 57.7003C400.875 57.7266 400.72 57.813 400.607 57.944C400.495 58.075 400.433 58.2419 400.433 58.4145C400.433 58.587 400.495 58.7539 400.607 58.8849C400.72 59.0159 400.875 59.1023 401.046 59.1286C401.943 59.1948 402.811 59.4731 403.579 59.9405C404.348 60.4079 404.994 61.051 405.465 61.817C405.528 61.9297 405.621 62.0225 405.734 62.0849C405.847 62.1473 405.975 62.1767 406.104 62.1699Z" fill="#263238"/>
<path d="M382.277 60.372C382.394 60.3638 382.507 60.3274 382.606 60.2659C382.706 60.2045 382.789 60.1198 382.849 60.0191C383.277 59.2383 383.884 58.5696 384.62 58.0674C385.356 57.5653 386.2 57.2438 387.083 57.129C387.27 57.112 387.444 57.0244 387.569 56.8839C387.693 56.7435 387.76 56.5608 387.755 56.3729C387.742 56.1842 387.656 56.0081 387.514 55.8825C387.373 55.7568 387.188 55.6916 386.999 55.7008C385.871 55.8371 384.792 56.2425 383.853 56.8829C382.915 57.5233 382.144 58.3799 381.605 59.3806C381.515 59.5434 381.492 59.7355 381.542 59.9149C381.593 60.0943 381.712 60.2466 381.874 60.3384C382.001 60.3955 382.143 60.4074 382.277 60.372Z" fill="#263238"/>
<path d="M412.539 589.387C413.877 589.355 415.207 589.175 416.504 588.849C416.572 588.834 416.634 588.798 416.682 588.747C416.73 588.696 416.762 588.633 416.773 588.564C416.791 588.498 416.788 588.429 416.764 588.365C416.74 588.302 416.696 588.248 416.639 588.211C416.101 587.858 411.363 584.85 409.649 585.724C409.463 585.821 409.307 585.966 409.195 586.143C409.082 586.32 409.019 586.523 409.01 586.732C408.951 587.078 408.98 587.434 409.094 587.766C409.209 588.098 409.405 588.395 409.666 588.631C410.508 589.207 411.523 589.474 412.539 589.387ZM415.479 588.345C412.909 588.866 410.943 588.765 410.153 588.076C409.974 587.917 409.84 587.714 409.763 587.487C409.686 587.261 409.67 587.018 409.716 586.783C409.716 586.514 409.851 586.413 409.951 586.363C410.842 585.926 413.564 587.203 415.479 588.345Z" fill="#2D9CDB"/>
<path d="M416.42 588.866C416.48 588.889 416.546 588.889 416.605 588.866C416.662 588.835 416.71 588.789 416.743 588.733C416.775 588.676 416.792 588.612 416.79 588.547C416.79 588.362 416.605 584.01 414.908 582.582C414.703 582.402 414.462 582.269 414.201 582.19C413.94 582.112 413.666 582.091 413.396 582.128C413.127 582.129 412.866 582.221 412.655 582.388C412.445 582.556 412.297 582.79 412.236 583.052C411.85 584.733 414.723 588.093 416.252 588.883C416.309 588.894 416.367 588.888 416.42 588.866ZM413.631 582.75C413.93 582.753 414.218 582.867 414.438 583.069C415.513 583.977 415.899 586.514 416.017 587.791C414.522 586.615 412.657 584.111 412.925 583.12C412.925 583.036 412.925 582.817 413.463 582.767H413.631V582.75Z" fill="#2D9CDB"/>
<path d="M308.682 582.044L326.358 587.085C326.64 587.166 326.885 587.343 327.051 587.585C327.217 587.828 327.292 588.12 327.265 588.412L325.955 601.972C325.912 602.306 325.798 602.626 325.62 602.912C325.442 603.197 325.204 603.44 324.923 603.625C324.643 603.81 324.325 603.933 323.993 603.984C323.66 604.035 323.321 604.014 322.998 603.921C317.335 602.241 313.302 600.712 306.195 598.679C301.793 597.435 287.46 592.294 282.234 588.732C277.009 585.17 280.084 579.675 282.554 580.683C293.66 585.186 301.473 584.464 306.077 582.363C306.88 581.952 307.803 581.839 308.682 582.044Z" fill="#263238"/>
<path d="M303.053 583.187C304.352 583.51 305.681 583.696 307.018 583.741C307.09 583.746 307.162 583.729 307.225 583.693C307.288 583.657 307.338 583.604 307.371 583.54C307.411 583.483 307.432 583.416 307.432 583.346C307.432 583.277 307.411 583.21 307.371 583.153C306.951 582.683 303.204 578.516 301.339 578.868C301.131 578.914 300.939 579.012 300.78 579.153C300.621 579.295 300.501 579.474 300.432 579.675C300.286 579.99 300.221 580.335 300.241 580.681C300.262 581.027 300.368 581.363 300.549 581.658C301.19 582.433 302.071 582.971 303.053 583.187ZM306.178 582.985C303.557 582.783 301.692 582.145 301.137 581.305C301.024 581.096 300.965 580.862 300.965 580.624C300.965 580.387 301.024 580.153 301.137 579.944C301.238 579.675 301.373 579.625 301.49 579.608C302.448 579.389 304.632 581.372 306.178 583.052V582.985Z" fill="#2D9CDB"/>
<path d="M306.934 583.724C307 583.742 307.07 583.742 307.136 583.724C307.201 583.708 307.26 583.675 307.307 583.627C307.355 583.58 307.388 583.521 307.405 583.456C307.405 583.288 308.446 579.053 307.22 577.205C307.07 576.98 306.874 576.789 306.645 576.644C306.417 576.499 306.16 576.404 305.892 576.365C305.632 576.293 305.355 576.309 305.105 576.413C304.855 576.517 304.647 576.701 304.515 576.936C303.674 578.448 305.556 582.414 306.783 583.657C306.827 583.692 306.879 583.715 306.934 583.724ZM305.909 577.087C306.197 577.167 306.443 577.354 306.598 577.608C307.405 578.785 307.069 581.339 306.85 582.649C305.724 581.12 304.649 578.213 305.17 577.323C305.17 577.239 305.321 577.054 305.792 577.121L305.909 577.087Z" fill="#2D9CDB"/>
<path d="M422.301 115.401C422.123 115.372 421.94 115.384 421.766 115.437C421.593 115.489 421.434 115.581 421.301 115.704C421.169 115.827 421.066 115.978 421 116.147C420.935 116.316 420.908 116.497 420.923 116.678C421.512 125.684 407.481 141.882 404.121 190.391C402.121 219.896 400.29 311.891 401.634 359.745C401.654 360.373 401.816 360.988 402.109 361.544C402.402 362.1 402.818 362.581 403.325 362.952C403.832 363.323 404.417 363.574 405.035 363.685C405.653 363.796 406.289 363.764 406.893 363.593C431.694 356.67 443.405 373.456 448.177 353.662C447.925 329.954 440.751 244.832 442.599 224.652C444.447 204.472 452.126 149.645 454.042 135.026C455.739 122.323 429.241 116.661 422.301 115.401Z" fill="#2D9CDB"/>
<path opacity="0.7" d="M422.301 115.401C422.123 115.372 421.94 115.384 421.766 115.437C421.593 115.489 421.434 115.581 421.301 115.704C421.169 115.827 421.066 115.978 421 116.147C420.935 116.316 420.908 116.497 420.923 116.678C421.512 125.684 407.481 141.882 404.121 190.391C402.121 219.896 400.29 311.891 401.634 359.745C401.654 360.373 401.816 360.988 402.109 361.544C402.402 362.1 402.818 362.581 403.325 362.952C403.832 363.323 404.417 363.574 405.035 363.685C405.653 363.796 406.289 363.764 406.893 363.593C431.694 356.67 443.405 373.456 448.177 353.662C447.925 329.954 440.751 244.832 442.599 224.652C444.447 204.472 452.126 149.645 454.042 135.026C455.739 122.323 429.241 116.661 422.301 115.401Z" fill="white"/>
<path opacity="0.2" d="M438.65 156.517C437.558 164.011 437.138 194.289 444.346 208.857C445.556 198.776 447.136 186.795 448.665 175.252L438.65 156.517Z" fill="#2D9CDB"/>
<path d="M448.95 287.46L441.792 288.3L435.458 299.608C435.11 300.22 434.895 300.898 434.826 301.599C434.756 302.299 434.834 303.006 435.055 303.675L437.34 310.631C437.728 311.821 438.545 312.825 439.632 313.446C440.719 314.067 441.998 314.262 443.221 313.991L446.413 313.319C447.586 313.081 448.636 312.432 449.375 311.49C450.114 310.548 450.494 309.374 450.446 308.178L450.244 301.994C450.244 301.994 455.923 288.871 448.95 287.46Z" fill="#FFB573"/>
<path d="M452.882 129.38C455.167 136.102 457.284 142.739 459.385 149.46C461.485 156.181 463.585 162.902 465.568 169.623C467.551 176.344 469.466 183.216 471.231 190.223C472.104 193.735 472.911 197.28 473.684 200.993C474.037 202.859 474.39 204.757 474.675 206.774C474.81 207.815 474.961 208.773 475.045 209.932L475.196 211.613L475.28 213.511C475.314 214.149 475.314 214.789 475.28 215.427C475.28 216.099 475.28 216.738 475.196 217.258L475.045 218.939L474.86 220.451C474.625 222.484 474.322 224.332 474.02 226.181C473.415 229.844 472.709 233.372 471.987 236.867C470.542 243.857 468.929 250.696 467.299 257.501C465.669 264.306 463.938 271.094 462.258 277.866L457.217 298.18L432.887 291.577C436.651 278.454 440.078 265.096 443.254 251.821C444.8 245.1 446.245 238.514 447.539 231.944C448.177 228.583 448.782 225.391 449.219 222.232C449.471 220.653 449.673 219.09 449.807 217.678C449.938 216.563 449.983 215.44 449.942 214.318V213.612L449.824 212.705C449.824 212.134 449.622 211.377 449.522 210.722C449.286 209.311 448.984 207.815 448.648 206.286C447.959 203.228 447.136 200.069 446.245 196.894C444.565 190.525 442.431 184.073 440.263 177.655C435.979 164.817 431.156 151.896 426.183 139.328L452.882 129.38Z" fill="#2D9CDB"/>
<path opacity="0.7" d="M452.882 129.38C455.167 136.102 457.284 142.739 459.385 149.46C461.485 156.181 463.585 162.902 465.568 169.623C467.551 176.344 469.466 183.216 471.231 190.223C472.104 193.735 472.911 197.28 473.684 200.993C474.037 202.859 474.39 204.757 474.675 206.774C474.81 207.815 474.961 208.773 475.045 209.932L475.196 211.613L475.28 213.511C475.314 214.149 475.314 214.789 475.28 215.427C475.28 216.099 475.28 216.738 475.196 217.258L475.045 218.939L474.86 220.451C474.625 222.484 474.322 224.332 474.02 226.181C473.415 229.844 472.709 233.372 471.987 236.867C470.542 243.857 468.929 250.696 467.299 257.501C465.669 264.306 463.938 271.094 462.258 277.866L457.217 298.18L432.887 291.577C436.651 278.454 440.078 265.096 443.254 251.821C444.8 245.1 446.245 238.514 447.539 231.944C448.177 228.583 448.782 225.391 449.219 222.232C449.471 220.653 449.673 219.09 449.807 217.678C449.938 216.563 449.983 215.44 449.942 214.318V213.612L449.824 212.705C449.824 212.134 449.622 211.377 449.522 210.722C449.286 209.311 448.984 207.815 448.648 206.286C447.959 203.228 447.136 200.069 446.245 196.894C444.565 190.525 442.431 184.073 440.263 177.655C435.979 164.817 431.156 151.896 426.183 139.328L452.882 129.38Z" fill="white"/>
<path d="M389.62 114.14C389.989 114.138 390.352 114.24 390.665 114.435C390.979 114.631 391.23 114.911 391.391 115.244C391.551 115.577 391.613 115.948 391.57 116.315C391.528 116.682 391.382 117.029 391.149 117.316C387.15 121.954 384.63 128.322 379.891 148.754C374.178 173.403 362.013 297.424 359.728 358.199C359.717 358.704 359.596 359.201 359.375 359.654C359.153 360.108 358.835 360.509 358.444 360.828C358.053 361.147 357.597 361.378 357.108 361.505C356.619 361.631 356.108 361.65 355.612 361.56C343.749 359.375 335.616 365.122 334.323 357.51C332.894 349.109 338.221 268.859 348.185 231.121C346.622 197.65 352.268 130.506 363.542 121.584C369.659 116.627 382.664 114.258 389.62 114.14Z" fill="#2D9CDB"/>
<path opacity="0.7" d="M389.62 114.14C389.989 114.138 390.352 114.24 390.665 114.435C390.979 114.631 391.23 114.911 391.391 115.244C391.551 115.577 391.613 115.948 391.57 116.315C391.528 116.682 391.382 117.029 391.149 117.316C387.15 121.954 384.63 128.322 379.891 148.754C374.178 173.403 362.013 297.424 359.728 358.199C359.717 358.704 359.596 359.201 359.375 359.654C359.153 360.108 358.835 360.509 358.444 360.828C358.053 361.147 357.597 361.378 357.108 361.505C356.619 361.631 356.108 361.65 355.612 361.56C343.749 359.375 335.616 365.122 334.323 357.51C332.894 349.109 338.221 268.859 348.185 231.121C346.622 197.65 352.268 130.506 363.542 121.584C369.659 116.627 382.664 114.258 389.62 114.14Z" fill="white"/>
<path d="M396.156 130.792C396.156 130.792 381.639 171.572 376.531 205.749C376.128 215.04 380.547 233.036 384.126 240.883C391.603 224.601 396.274 215.007 397.013 205.749C398.206 191.819 400.172 131.061 400.172 131.061L396.156 130.792Z" fill="#263238"/>
<path d="M426.536 179.301C426.389 179.296 426.247 179.243 426.133 179.15C426.019 179.057 425.939 178.929 425.904 178.786C425.87 178.643 425.884 178.493 425.943 178.358C426.002 178.224 426.104 178.112 426.233 178.041L428.989 176.596C431.561 175.273 433.669 173.197 435.032 170.645C436.395 168.094 436.948 165.188 436.617 162.314L433.626 135.228C433.406 133.209 432.512 131.323 431.088 129.874C429.665 128.425 427.795 127.498 425.78 127.242C423.765 126.985 421.723 127.415 419.982 128.462C418.242 129.508 416.904 131.11 416.185 133.01L406.507 158.466C405.465 161.164 405.268 164.115 405.943 166.927C406.619 169.739 408.134 172.279 410.287 174.21L412.606 176.31C412.729 176.436 412.798 176.605 412.798 176.781C412.798 176.957 412.729 177.126 412.606 177.251C412.481 177.374 412.312 177.443 412.136 177.443C411.96 177.443 411.791 177.374 411.665 177.251L409.346 175.168C407 173.049 405.354 170.268 404.624 167.192C403.895 164.116 404.118 160.891 405.263 157.945L415.026 132.539C415.859 130.369 417.397 128.541 419.393 127.348C421.389 126.155 423.728 125.667 426.034 125.961C428.341 126.256 430.482 127.316 432.114 128.971C433.747 130.627 434.776 132.783 435.038 135.093L438.029 162.162C438.382 165.312 437.768 168.495 436.267 171.287C434.766 174.079 432.45 176.347 429.627 177.789L426.872 179.217C426.772 179.282 426.654 179.311 426.536 179.301Z" fill="#263238"/>
<path d="M434.87 141.142C434.71 141.144 434.554 141.086 434.434 140.981C434.313 140.876 434.235 140.73 434.214 140.571C433.824 138.393 432.717 136.407 431.071 134.928C429.425 133.449 427.332 132.561 425.124 132.405C421.394 131.935 416.32 133.111 414.286 138.017C414.257 138.104 414.211 138.184 414.149 138.252C414.088 138.321 414.013 138.376 413.93 138.414C413.847 138.452 413.756 138.473 413.665 138.475C413.573 138.477 413.482 138.461 413.397 138.426C413.312 138.392 413.235 138.34 413.17 138.275C413.106 138.209 413.056 138.132 413.023 138.046C412.989 137.96 412.974 137.869 412.978 137.777C412.981 137.686 413.003 137.596 413.043 137.513C414.179 135.316 415.963 133.521 418.154 132.371C420.344 131.222 422.835 130.774 425.289 131.087C427.743 131.401 430.041 132.461 431.872 134.125C433.703 135.788 434.978 137.974 435.525 140.386C435.549 140.558 435.504 140.732 435.4 140.87C435.296 141.009 435.142 141.101 434.971 141.126L434.87 141.142Z" fill="#263238"/>
<path d="M425.83 127.247C425.742 127.242 425.656 127.221 425.577 127.183C425.498 127.145 425.428 127.091 425.37 127.025C425.312 126.959 425.268 126.883 425.24 126.799C425.212 126.716 425.201 126.628 425.208 126.541C425.41 123.264 424.939 117.299 421.848 115.754C421.689 115.671 421.57 115.529 421.517 115.359C421.463 115.189 421.48 115.004 421.562 114.846C421.644 114.688 421.786 114.569 421.956 114.515C422.127 114.462 422.311 114.478 422.469 114.561C426.939 116.863 426.536 125.634 426.468 126.625C426.46 126.79 426.389 126.946 426.271 127.061C426.153 127.176 425.995 127.243 425.83 127.247Z" fill="#263238"/>
<path d="M413.648 176.982C413.48 178.243 412.69 179.167 411.867 179.049C411.044 178.932 410.506 177.856 410.674 176.613C410.842 175.369 411.615 174.428 412.438 174.546C413.261 174.664 413.799 175.739 413.648 176.982Z" fill="#263238"/>
<path d="M374.582 149.745C373.523 152.417 371.221 154.03 369.541 153.341C367.861 152.652 367.205 149.981 368.264 147.242C369.322 144.503 371.624 142.957 373.305 143.646C374.985 144.335 375.623 147.074 374.582 149.745Z" fill="#263238"/>
<path d="M369.054 148.015H368.919C368.746 147.978 368.594 147.875 368.496 147.727C368.399 147.579 368.364 147.399 368.398 147.225C370.616 136.186 379.791 118.66 387.873 113.62C387.946 113.556 388.032 113.51 388.125 113.483C388.218 113.456 388.316 113.449 388.412 113.464C388.508 113.478 388.599 113.513 388.68 113.566C388.761 113.619 388.83 113.689 388.881 113.771C388.933 113.854 388.966 113.946 388.978 114.042C388.991 114.138 388.982 114.236 388.954 114.328C388.925 114.421 388.876 114.506 388.812 114.578C388.747 114.65 388.667 114.707 388.578 114.745C380.765 119.669 371.876 136.589 369.709 147.46C369.682 147.615 369.601 147.754 369.481 147.856C369.362 147.957 369.21 148.013 369.054 148.015Z" fill="#263238"/>
<path d="M376.497 150.3C375.724 152.602 373.742 154.03 372.061 153.475C370.381 152.921 369.625 150.585 370.381 148.267C371.137 145.948 373.137 144.536 374.817 145.091C376.497 145.645 377.27 147.981 376.497 150.3Z" fill="white"/>
<path d="M376.615 150.535C375.59 153.375 373.691 155.307 372.397 154.837C371.104 154.366 370.885 151.678 371.927 148.821C372.969 145.965 374.851 144.049 376.144 144.52C377.438 144.99 377.657 147.679 376.615 150.535Z" fill="#263238"/>
<path d="M428.031 178.831C427.88 180.074 427.073 180.998 426.25 180.897C425.427 180.797 424.889 179.688 425.057 178.444C425.225 177.201 426.015 176.277 426.838 176.378C427.661 176.478 428.199 177.571 428.031 178.831Z" fill="#263238"/>
<path d="M523.302 106.025C528.914 121.366 513.993 129.078 504.214 151.678C494.435 174.277 518.026 201.229 554.236 201.817C590.446 202.405 591.588 167.724 585.976 142.839C580.364 117.955 592.092 113.905 589.605 94.9014C586.413 69.9327 550.438 51.0129 536.156 73.9317C523.453 72.7387 518.396 92.6162 523.302 106.025Z" fill="#263238"/>
<path d="M630.553 312.53V310.58C630.52 309.645 630.285 308.728 629.865 307.892L623.782 295.895L616.658 294.551C611.617 299.978 616.658 310.799 616.658 310.799V312.53C616.659 313.947 617.122 315.326 617.977 316.457C618.832 317.588 620.032 318.41 621.396 318.797L622.354 319.083C623.34 319.343 624.374 319.369 625.372 319.158C626.37 318.947 627.305 318.506 628.102 317.869C628.899 317.232 629.536 316.417 629.961 315.49C630.387 314.563 630.59 313.549 630.553 312.53Z" fill="#FFC3BD"/>
<path d="M600.359 158.197L602.98 176.579L605.736 194.911C606.643 201.044 607.601 207.143 608.576 213.259L611.483 231.473L611.835 233.271C611.953 233.859 612.155 234.616 612.306 235.271L612.81 237.338L613.398 239.472C614.154 242.294 615.078 245.218 615.885 248.108C617.565 253.905 619.497 259.769 621.396 265.6C625.261 277.244 629.293 288.939 633.595 300.432L609.836 308.833L597.94 273.312C595.974 267.381 593.974 261.449 592.075 255.4C591.135 252.359 590.194 249.352 589.303 246.209L588.614 243.874L587.959 241.437C587.74 240.597 587.505 239.858 587.304 238.934L586.682 236.178L583.17 217.695C582.05 211.602 580.879 205.508 579.658 199.414L576.063 181.133L572.316 162.986L600.359 158.197Z" fill="#2D9CDB"/>
<path opacity="0.6" d="M600.359 158.197L602.98 176.579L605.736 194.911C606.643 201.044 607.601 207.143 608.576 213.259L611.483 231.473L611.835 233.271C611.953 233.859 612.155 234.616 612.306 235.271L612.81 237.338L613.398 239.472C614.154 242.294 615.078 245.218 615.885 248.108C617.565 253.905 619.497 259.769 621.396 265.6C625.261 277.244 629.293 288.939 633.595 300.432L609.836 308.833L597.94 273.312C595.974 267.381 593.974 261.449 592.075 255.4C591.135 252.359 590.194 249.352 589.303 246.209L588.614 243.874L587.959 241.437C587.74 240.597 587.505 239.858 587.304 238.934L586.682 236.178L583.17 217.695C582.05 211.602 580.879 205.508 579.658 199.414L576.063 181.133L572.316 162.986L600.359 158.197Z" fill="white"/>
<path d="M596.579 156.786C597.368 165.741 596.663 188.022 587.673 243.252H525.503C526.495 219.258 526.562 203.968 516.262 158.18C516.028 157.151 516.007 156.084 516.202 155.046C516.396 154.008 516.801 153.021 517.391 152.146C517.981 151.27 518.745 150.525 519.634 149.956C520.524 149.387 521.521 149.007 522.563 148.838C528.633 147.841 534.752 147.173 540.895 146.838C550.303 146.166 559.748 146.166 569.157 146.838C576.886 147.544 585.27 148.939 590.345 149.863C591.998 150.177 593.502 151.024 594.628 152.274C595.754 153.524 596.439 155.109 596.579 156.786Z" fill="#263238"/>
<path d="M543.633 115.014C545.414 124.104 547.196 140.773 540.827 146.838C540.827 146.838 548.792 156.517 560.991 156.517C573.189 156.517 569.106 146.838 569.106 146.838C559.025 144.419 559.226 136.891 560.991 129.834L543.633 115.014Z" fill="#FFC3BD"/>
<path opacity="0.2" d="M550.707 121.063L560.974 129.817C560.538 131.469 560.246 133.156 560.1 134.858C556.219 134.304 550.136 130.994 549.296 126.776C548.909 124.777 550.371 122.004 550.707 121.063Z" fill="black"/>
<path d="M532.93 97.1698C535.299 112.191 535.988 118.593 544.356 125.617C556.958 136.186 574.886 129.985 577.054 114.561C579.003 100.682 574.786 78.4348 559.428 73.8477C556.045 72.8186 552.454 72.6713 548.998 73.4197C545.542 74.1681 542.334 75.7874 539.679 78.1239C537.025 80.4604 535.011 83.4365 533.83 86.7699C532.649 90.1032 532.339 93.6831 532.93 97.1698Z" fill="#FFC3BD"/>
<path d="M535.434 107.991C544.037 99.4718 546.994 87.6259 546.187 82.7867C554.471 85.0887 560.554 81.829 560.184 80.4175C566.031 86.1305 576.634 90.6504 575.441 84.5006C574.248 78.3508 566.401 67.009 550.035 71.0585C533.669 75.1079 527.368 91.9106 527.604 98.7325C527.839 105.554 535.434 107.991 535.434 107.991Z" fill="#263238"/>
<path d="M554.488 98.8669C554.605 100.11 555.345 101.034 556.168 100.967C556.991 100.9 557.529 99.8246 557.412 98.598C557.294 97.3714 556.538 96.4305 555.731 96.4977C554.925 96.5649 554.488 97.6403 554.488 98.8669Z" fill="#263238"/>
<path d="M568.451 97.5395C568.569 98.7661 569.325 99.707 570.131 99.623C570.938 99.539 571.492 98.4972 571.375 97.2706C571.257 96.044 570.501 95.1031 569.694 95.1703C568.888 95.2375 568.333 96.3129 568.451 97.5395Z" fill="#263238"/>
<path d="M569.358 95.2711L572.232 94.1453C572.232 94.1453 570.921 96.5985 569.358 95.2711Z" fill="#263238"/>
<path d="M564.385 100.161C565.743 102.865 567.468 105.37 569.509 107.604C568.925 108.11 568.238 108.484 567.495 108.698C566.753 108.913 565.972 108.964 565.208 108.848L564.385 100.161Z" fill="#ED847E"/>
<path d="M558.957 114.258C559.567 114.3 560.179 114.3 560.789 114.258C560.884 114.246 560.971 114.196 561.03 114.121C561.09 114.046 561.118 113.95 561.108 113.855C561.106 113.808 561.094 113.761 561.073 113.719C561.053 113.676 561.023 113.639 560.986 113.609C560.95 113.579 560.907 113.557 560.862 113.544C560.816 113.531 560.768 113.528 560.722 113.536C559.193 113.713 557.643 113.528 556.199 112.997C554.754 112.466 553.454 111.603 552.404 110.478C552.339 110.419 552.256 110.385 552.168 110.382C552.081 110.379 551.995 110.407 551.926 110.462C551.857 110.516 551.81 110.593 551.793 110.679C551.776 110.765 551.79 110.855 551.833 110.931C552.742 111.929 553.84 112.736 555.062 113.308C556.285 113.879 557.609 114.202 558.957 114.258Z" fill="#263238"/>
<path d="M529.603 109.385C530.725 112.105 532.875 114.273 535.585 115.418C539.181 116.896 541.449 113.737 540.827 110.158C540.273 106.798 537.719 102.143 533.921 102.211C533.095 102.251 532.291 102.494 531.58 102.919C530.87 103.344 530.275 103.937 529.848 104.646C529.422 105.355 529.176 106.158 529.133 106.985C529.09 107.812 529.252 108.636 529.603 109.385Z" fill="#FFC3BD"/>
<path d="M549.699 92.4146C549.844 92.4657 550.001 92.4705 550.148 92.4283C550.296 92.3862 550.427 92.2992 550.522 92.1794C552.64 89.575 556.958 89.827 556.991 89.827C557.182 89.8364 557.369 89.7718 557.513 89.6465C557.657 89.5212 557.747 89.345 557.764 89.1549C557.774 89.0595 557.763 88.9632 557.734 88.8719C557.705 88.7807 557.657 88.6963 557.595 88.624C557.532 88.5516 557.455 88.4929 557.368 88.4513C557.282 88.4097 557.188 88.3861 557.092 88.382C556.891 88.382 551.968 88.0795 549.397 91.272C549.277 91.4224 549.22 91.6136 549.239 91.805C549.258 91.9963 549.351 92.1728 549.498 92.297L549.699 92.4146Z" fill="#263238"/>
<path d="M573.509 90.8856C573.668 90.8953 573.826 90.8519 573.958 90.7623C574.09 90.6727 574.189 90.5419 574.239 90.3903C574.288 90.2387 574.287 90.0748 574.234 89.9243C574.181 89.7738 574.079 89.645 573.945 89.5582C573.005 88.8945 571.92 88.4645 570.781 88.3038C569.641 88.1431 568.479 88.2563 567.392 88.634C567.216 88.7117 567.076 88.8553 567.004 89.0343C566.932 89.2132 566.933 89.4133 567.006 89.5918C567.043 89.6807 567.097 89.7615 567.165 89.8292C567.233 89.897 567.314 89.9504 567.403 89.9864C567.493 90.0224 567.588 90.0402 567.684 90.0388C567.781 90.0374 567.875 90.0168 567.964 89.9783C568.827 89.6907 569.747 89.6123 570.646 89.7496C571.546 89.8869 572.4 90.2359 573.139 90.768C573.249 90.8394 573.377 90.88 573.509 90.8856Z" fill="#263238"/>
<path d="M626.302 591.101L641.778 590.362L637.191 555.412L621.732 556.168L626.302 591.101Z" fill="#FFC3BD"/>
<g opacity="0.2">
<path opacity="0.2" d="M637.191 555.429L639.56 573.441L624.085 574.181L621.715 556.168L637.191 555.429Z" fill="black"/>
</g>
<path d="M587.673 243.252C587.673 243.252 607.147 361.291 615.078 407.313C623.345 455.167 641.963 567.796 641.963 567.796L621.497 571.156C621.497 571.156 593.907 458.41 582.851 411.531C570.854 360.367 541.785 291.761 542.087 243.387L587.673 243.252Z" fill="#2D9CDB"/>
<path opacity="0.2" d="M556.403 279.479C553.48 275.228 547.851 269.263 543.533 264.356C547.448 294.433 558.655 329.332 568.888 362.198C571.61 337.162 570.064 299.188 556.403 279.479Z" fill="black"/>
<path d="M530.83 588.732H546.154L547.179 553.244H531.838L530.83 588.732Z" fill="#FFC3BD"/>
<path d="M546.876 586.413H529.654C529.355 586.41 529.066 586.516 528.841 586.711C528.615 586.906 528.468 587.176 528.427 587.472L526.461 601.082C526.426 601.427 526.463 601.777 526.571 602.107C526.68 602.437 526.856 602.741 527.088 602.999C527.321 603.257 527.605 603.464 527.923 603.605C528.24 603.747 528.584 603.82 528.931 603.82C534.93 603.703 537.82 603.35 545.398 603.35C550.052 603.35 559.68 603.837 566.115 603.837C572.551 603.837 572.836 597.486 570.215 596.898C558.201 594.327 553.412 590.765 549.43 587.354C548.714 586.754 547.811 586.421 546.876 586.413Z" fill="#263238"/>
<g opacity="0.2">
<path opacity="0.2" d="M547.162 553.261L546.641 571.559H531.317L531.838 553.261H547.162Z" fill="black"/>
</g>
<path d="M570.182 243.252C570.182 243.252 563.965 362.803 559.764 409.346C555.378 457.772 550.102 567.51 550.102 567.51H529.368C529.368 567.51 525.671 458.192 527.116 410.439C528.679 358.35 516.161 291.627 524.613 243.252H570.182Z" fill="#2D9CDB"/>
<path d="M527.57 568.249L551.884 568.703L552.253 553.883L527.469 555.429L527.57 568.249Z" fill="#263238"/>
<path d="M552.623 589.152C553.932 589.272 555.242 588.94 556.336 588.211C556.583 587.991 556.772 587.713 556.887 587.402C557.001 587.092 557.037 586.758 556.991 586.43C556.979 586.232 556.918 586.041 556.812 585.873C556.706 585.706 556.56 585.568 556.387 585.472C554.505 584.43 548.389 587.555 547.7 587.925C547.636 587.961 547.584 588.016 547.551 588.082C547.518 588.148 547.505 588.222 547.515 588.295C547.524 588.369 547.557 588.438 547.608 588.493C547.66 588.547 547.727 588.584 547.8 588.597C549.386 588.936 551.001 589.121 552.623 589.152ZM555.362 585.976C555.593 585.97 555.823 586.016 556.034 586.11C556.105 586.147 556.164 586.203 556.205 586.271C556.247 586.339 556.269 586.417 556.269 586.497C556.306 586.71 556.286 586.929 556.213 587.132C556.139 587.336 556.014 587.516 555.849 587.656C554.925 588.496 552.404 588.648 549.01 588.076C550.992 587.018 553.14 586.308 555.362 585.976Z" fill="#2D9CDB"/>
<path d="M547.868 588.614H548.019C549.85 587.791 553.463 584.481 553.177 582.75C553.177 582.33 552.824 581.826 551.816 581.725C551.455 581.683 551.09 581.717 550.743 581.824C550.396 581.931 550.075 582.109 549.8 582.347C547.884 583.943 547.532 588.076 547.515 588.244C547.508 588.309 547.519 588.374 547.546 588.433C547.572 588.492 547.614 588.543 547.666 588.581C547.729 588.608 547.799 588.62 547.868 588.614ZM551.531 582.397H551.749C552.404 582.397 552.455 582.716 552.455 582.817C552.64 583.859 550.186 586.447 548.321 587.572C548.465 585.834 549.146 584.184 550.27 582.851C550.621 582.552 551.069 582.39 551.531 582.397Z" fill="#2D9CDB"/>
<path d="M641.593 586.413H624.37C624.232 586.404 624.093 586.426 623.965 586.478C623.836 586.529 623.72 586.608 623.625 586.709C623.531 586.81 623.459 586.931 623.417 587.063C623.374 587.194 623.361 587.334 623.379 587.471L624.253 601.082C624.355 601.821 624.714 602.5 625.267 603.001C625.82 603.502 626.532 603.792 627.277 603.82C633.259 603.703 636.082 603.35 643.643 603.35C648.314 603.35 658.043 603.837 664.478 603.837C670.914 603.837 669.922 597.486 667.133 596.898C654.581 594.327 649.104 590.765 644.349 587.354C643.548 586.766 642.586 586.437 641.593 586.413Z" fill="#263238"/>
<path d="M647.339 589.152C648.654 589.272 649.97 588.94 651.07 588.211C651.314 587.989 651.502 587.711 651.616 587.401C651.73 587.091 651.767 586.757 651.725 586.43C651.71 586.231 651.645 586.039 651.536 585.872C651.427 585.704 651.279 585.567 651.103 585.472C649.221 584.43 643.122 587.555 642.433 587.925C642.366 587.959 642.31 588.012 642.274 588.078C642.238 588.145 642.223 588.22 642.231 588.295C642.245 588.367 642.279 588.434 642.33 588.488C642.381 588.541 642.446 588.579 642.517 588.597C644.103 588.936 645.718 589.121 647.339 589.152ZM650.078 585.976C650.31 585.966 650.54 586.012 650.75 586.11C650.823 586.146 650.885 586.201 650.929 586.269C650.973 586.337 650.999 586.416 651.002 586.497C651.031 586.71 651.008 586.926 650.935 587.128C650.862 587.33 650.741 587.511 650.582 587.656C649.641 588.496 647.121 588.648 643.727 588.076C645.709 587.021 647.857 586.31 650.078 585.976Z" fill="#2D9CDB"/>
<path d="M642.601 588.614H642.752C644.567 587.791 648.18 584.481 647.894 582.75C647.894 582.33 647.541 581.826 646.533 581.725C646.175 581.684 645.812 581.717 645.467 581.825C645.123 581.932 644.805 582.109 644.533 582.347C642.601 583.943 642.248 588.076 642.231 588.244C642.229 588.308 642.242 588.372 642.268 588.43C642.294 588.488 642.334 588.54 642.383 588.58C642.452 588.609 642.527 588.62 642.601 588.614ZM646.247 582.397H646.466C647.121 582.397 647.171 582.716 647.188 582.817C647.356 583.859 644.903 586.447 643.038 587.572C643.188 585.836 643.869 584.188 644.987 582.851C645.34 582.554 645.787 582.393 646.247 582.397Z" fill="#2D9CDB"/>
<path d="M619.783 572.114L643.794 568.249L641.089 555.412L617.296 561.024L619.783 572.114Z" fill="#263238"/>
<path d="M555.446 96.5985L558.319 95.4727C558.319 95.4727 557.025 97.9259 555.446 96.5985Z" fill="#263238"/>
<path d="M524.495 239.606L522.916 245.184C522.697 245.605 523.201 246.058 523.924 246.058H587.976C588.547 246.058 589.001 245.773 589.034 245.42L589.605 239.858C589.605 239.472 589.152 239.135 588.547 239.135H525.52C525.323 239.119 525.125 239.153 524.946 239.235C524.766 239.318 524.611 239.446 524.495 239.606Z" fill="#263238"/>
<path d="M533.182 246.646H531.502C531.166 246.646 530.914 246.478 530.931 246.277L531.72 239.035C531.72 238.816 532.04 238.648 532.376 238.648H534.056C534.392 238.648 534.644 238.816 534.627 239.035L533.821 246.277C533.804 246.478 533.518 246.646 533.182 246.646Z" fill="#2D9CDB"/>
<path d="M583.237 246.646H581.557C581.221 246.646 580.952 246.478 580.986 246.277L581.775 239.035C581.775 238.816 582.095 238.648 582.431 238.648H584.111C584.447 238.648 584.699 238.816 584.682 239.035L583.893 246.277C583.859 246.478 583.573 246.646 583.237 246.646Z" fill="#2D9CDB"/>
<path d="M558.302 246.646H556.622C556.286 246.646 556.034 246.478 556.051 246.277L556.84 239.035C556.84 238.816 557.16 238.648 557.496 238.648H559.176C559.512 238.648 559.764 238.816 559.73 239.035L558.941 246.277C558.941 246.478 558.638 246.646 558.302 246.646Z" fill="#2D9CDB"/>
<path d="M538.139 146.334C528.377 147.225 513.456 145.377 513.909 160.348C514.363 175.319 511.456 214.973 512.229 233.54C513.002 252.107 508.163 372.33 515.993 407.179C517.371 413.312 567.947 412.522 574.063 411.934V406.406C574.063 406.406 610.81 401.466 619.901 403.045C619.111 382.109 598.763 276.353 597.973 246.646C597.183 216.939 600.527 165.893 600.326 157.794C600.124 149.695 584.027 146.133 574.164 146.334C576.348 153.644 571.526 167.371 563.813 182.679C544.843 164.196 539.248 155.021 538.139 146.334Z" fill="#2D9CDB"/>
<path opacity="0.7" d="M538.139 146.334C528.377 147.225 513.456 145.377 513.909 160.348C514.363 175.319 511.456 214.973 512.229 233.54C513.002 252.107 508.163 372.33 515.993 407.179C517.371 413.312 567.947 412.522 574.063 411.934V406.406C574.063 406.406 610.81 401.466 619.901 403.045C619.111 382.109 598.763 276.353 597.973 246.646C597.183 216.939 600.527 165.893 600.326 157.794C600.124 149.695 584.027 146.133 574.164 146.334C576.348 153.644 571.526 167.371 563.813 182.679C544.843 164.196 539.248 155.021 538.139 146.334Z" fill="white"/>
<path opacity="0.2" d="M519.555 181.838L513.305 186.258C512.817 199.196 512.162 213.696 512.095 224.904C517.908 212.05 521.185 193.499 519.555 181.838Z" fill="#2D9CDB"/>
<path d="M539.466 168.413C539.149 168.885 538.807 169.339 538.441 169.774L538.088 170.177L537.904 170.379L537.568 170.732L536.895 171.454L535.551 172.95C534.644 173.941 533.77 174.966 532.896 176.008C531.149 178.091 529.469 180.214 527.856 182.376C524.56 186.694 521.492 191.18 518.665 195.818C513.108 204.38 509.093 213.848 506.802 223.795C506.378 226.013 506.115 228.259 506.012 230.516C506.117 231.638 506.442 232.729 506.97 233.725C509.103 238.242 511.669 242.541 514.632 246.562C517.74 250.998 521.269 255.316 524.882 259.584C526.696 261.735 528.578 263.819 530.477 265.885C532.376 267.952 534.358 270.069 536.207 271.901L518.093 289.409C515.892 287.006 513.943 284.822 511.91 282.52L505.979 275.58C502.047 270.926 498.266 266.087 494.536 261.013C490.486 255.653 486.985 249.9 484.085 243.84C483.236 241.963 482.512 240.032 481.917 238.06C481.567 236.886 481.292 235.69 481.094 234.481C480.965 233.787 480.875 233.085 480.825 232.381C480.758 231.644 480.729 230.903 480.741 230.163C480.781 226.555 481.09 222.955 481.665 219.392C482.829 212.663 484.71 206.078 487.277 199.75C489.693 193.759 492.499 187.932 495.679 182.309C498.77 176.764 502.164 171.471 505.676 166.296C507.457 163.708 509.272 161.171 511.171 158.668L514.044 154.921L515.539 153.039L516.295 152.098L516.682 151.644L516.85 151.426L516.615 151.694C516.312 152.081 516.027 152.467 515.758 152.871L539.466 168.413Z" fill="#2D9CDB"/>
<path opacity="0.7" d="M539.466 168.413C539.149 168.885 538.807 169.339 538.441 169.774L538.088 170.177L537.904 170.379L537.568 170.732L536.895 171.454L535.551 172.95C534.644 173.941 533.77 174.966 532.896 176.008C531.149 178.091 529.469 180.214 527.856 182.376C524.56 186.694 521.492 191.18 518.665 195.818C513.108 204.38 509.093 213.848 506.802 223.795C506.378 226.013 506.115 228.259 506.012 230.516C506.117 231.638 506.442 232.729 506.97 233.725C509.103 238.242 511.669 242.541 514.632 246.562C517.74 250.998 521.269 255.316 524.882 259.584C526.696 261.735 528.578 263.819 530.477 265.885C532.376 267.952 534.358 270.069 536.207 271.901L518.093 289.409C515.892 287.006 513.943 284.822 511.91 282.52L505.979 275.58C502.047 270.926 498.266 266.087 494.536 261.013C490.486 255.653 486.985 249.9 484.085 243.84C483.236 241.963 482.512 240.032 481.917 238.06C481.567 236.886 481.292 235.69 481.094 234.481C480.965 233.787 480.875 233.085 480.825 232.381C480.758 231.644 480.729 230.903 480.741 230.163C480.781 226.555 481.09 222.955 481.665 219.392C482.829 212.663 484.71 206.078 487.277 199.75C489.693 193.759 492.499 187.932 495.679 182.309C498.77 176.764 502.164 171.471 505.676 166.296C507.457 163.708 509.272 161.171 511.171 158.668L514.044 154.921L515.539 153.039L516.295 152.098L516.682 151.644L516.85 151.426L516.615 151.694C516.312 152.081 516.027 152.467 515.758 152.871L539.466 168.413Z" fill="white"/>
<path opacity="0.3" d="M563.83 182.679C565.594 218.535 575.172 343.581 574.08 406.406L577.003 406.02C577.003 406.02 572.467 309.404 570.417 267.129C568.367 224.853 563.83 182.679 563.83 182.679Z" fill="#2D9CDB"/>
<path opacity="0.3" d="M534.795 272.203L516.85 291.627C516.85 298.146 512.296 311.185 524.361 315.924C536.425 320.662 536.744 286.284 534.795 272.203Z" fill="#2D9CDB"/>
<path opacity="0.3" d="M593.302 271.598L601.199 291.392C601.435 298.113 603.737 311.555 599.065 316.68C594.394 321.805 593.033 286.166 593.302 271.598Z" fill="#2D9CDB"/>
<path d="M573.693 195.163L593.403 195.029C593.599 195.037 593.795 195.003 593.977 194.928C594.159 194.854 594.323 194.741 594.457 194.597C594.591 194.454 594.692 194.283 594.754 194.096C594.816 193.909 594.836 193.712 594.814 193.516L593.722 184.174C593.657 183.769 593.454 183.4 593.148 183.127C592.842 182.855 592.451 182.696 592.042 182.679L572.316 182.796C572.12 182.79 571.925 182.826 571.745 182.902C571.564 182.977 571.402 183.09 571.268 183.233C571.135 183.376 571.033 183.546 570.97 183.732C570.907 183.917 570.885 184.114 570.904 184.308L571.996 193.667C572.065 194.073 572.271 194.443 572.58 194.716C572.889 194.988 573.282 195.146 573.693 195.163Z" fill="white" stroke="#2D9CDB" stroke-width="0.5" stroke-miterlimit="10"/>
</svg>
