<svg width="50" height="50" viewBox="0 0 50 50" fill="none" xmlns="http://www.w3.org/2000/svg">
<path fill-rule="evenodd" clip-rule="evenodd" d="M0 7.5C0 5.51088 0.790177 3.60322 2.1967 2.1967C3.60322 0.790177 5.51088 0 7.5 0H32.5C34.4891 0 36.3968 0.790177 37.8033 2.1967C39.2098 3.60322 40 5.51088 40 7.5V22.5C40 24.4891 39.2098 26.3968 37.8033 27.8033C36.3968 29.2098 34.4891 30 32.5 30H23.535L14.2675 39.2675C13.9179 39.617 13.4725 39.855 12.9876 39.9515C12.5027 40.0479 12.0001 39.9984 11.5434 39.8092C11.0866 39.62 10.6962 39.2997 10.4215 38.8886C10.1468 38.4776 10.0001 37.9944 10 37.5V30H7.5C5.51088 30 3.60322 29.2098 2.1967 27.8033C0.790177 26.3968 0 24.4891 0 22.5V7.5ZM50 17.5V32.5C50 35 48.5 40 42.5 40H40V47.5C40 48.3325 39.5 50 37.5 50C36.9925 50 36.58 49.8925 36.25 49.7175L26.5325 40H17.5L25 32.5H32.5C35.8325 32.5 42.5 30.5 42.5 22.5V10C45 10 50 11.5 50 17.5Z" fill="white"/>
</svg>
