<svg width="507" height="521" viewBox="0 0 507 521" fill="none" xmlns="http://www.w3.org/2000/svg">
<g opacity="0.3">
<path opacity="0.3" d="M108.715 179.297H25.635L26.4761 163.261H109.556L108.715 179.297Z" stroke="black" stroke-linecap="round" stroke-linejoin="round"/>
<path opacity="0.3" d="M108.715 201.752H25.6349L26.476 185.716H109.556L108.715 201.752Z" stroke="black" stroke-linecap="round" stroke-linejoin="round"/>
<path opacity="0.3" d="M108.715 224.207H25.6349L26.476 208.171H109.556L108.715 224.207Z" stroke="black" stroke-linecap="round" stroke-linejoin="round"/>
<path opacity="0.3" d="M108.715 246.662H25.6349L26.476 230.626H109.556L108.715 246.662Z" stroke="black" stroke-linecap="round" stroke-linejoin="round"/>
<path opacity="0.3" d="M108.715 269.128H25.6349L26.476 253.08H109.556L108.715 269.128Z" stroke="black" stroke-linecap="round" stroke-linejoin="round"/>
<path opacity="0.3" d="M108.715 291.582H25.6349L26.476 275.535H109.556L108.715 291.582Z" stroke="black" stroke-linecap="round" stroke-linejoin="round"/>
<path opacity="0.3" d="M108.715 314.037H25.6349L26.476 297.99H109.556L108.715 314.037Z" stroke="black" stroke-linecap="round" stroke-linejoin="round"/>
<path opacity="0.3" d="M108.715 336.492H25.6349L26.476 320.445H109.556L108.715 336.492Z" stroke="black" stroke-linecap="round" stroke-linejoin="round"/>
<path opacity="0.3" d="M108.715 358.947H25.6349L26.476 342.9H109.556L108.715 358.947Z" stroke="black" stroke-linecap="round" stroke-linejoin="round"/>
<path opacity="0.3" d="M108.715 381.402H25.6349L26.476 365.355H109.556L108.715 381.402Z" stroke="black" stroke-linecap="round" stroke-linejoin="round"/>
<path opacity="0.3" d="M108.715 403.857H25.6349L26.476 387.821H109.556L108.715 403.857Z" stroke="black" stroke-linecap="round" stroke-linejoin="round"/>
<path opacity="0.3" d="M196.564 179.297H113.484L114.326 163.261H197.405L196.564 179.297Z" stroke="black" stroke-linecap="round" stroke-linejoin="round"/>
<path opacity="0.3" d="M196.564 201.752H113.484L114.326 185.716H197.405L196.564 201.752Z" stroke="black" stroke-linecap="round" stroke-linejoin="round"/>
<path opacity="0.3" d="M196.564 224.207H113.484L114.326 208.171H197.405L196.564 224.207Z" stroke="black" stroke-linecap="round" stroke-linejoin="round"/>
<path opacity="0.3" d="M196.564 246.662H113.484L114.326 230.626H197.405L196.564 246.662Z" stroke="black" stroke-linecap="round" stroke-linejoin="round"/>
<path opacity="0.3" d="M196.564 269.128H113.484L114.326 253.08H197.405L196.564 269.128Z" stroke="black" stroke-linecap="round" stroke-linejoin="round"/>
<path opacity="0.3" d="M196.564 291.582H113.484L114.326 275.535H197.405L196.564 291.582Z" stroke="black" stroke-linecap="round" stroke-linejoin="round"/>
<path opacity="0.3" d="M196.564 314.037H113.484L114.326 297.99H197.405L196.564 314.037Z" stroke="black" stroke-linecap="round" stroke-linejoin="round"/>
<path opacity="0.3" d="M196.564 336.492H113.484L114.326 320.445H197.405L196.564 336.492Z" stroke="black" stroke-linecap="round" stroke-linejoin="round"/>
<path opacity="0.3" d="M196.564 358.947H113.484L114.326 342.9H197.405L196.564 358.947Z" stroke="black" stroke-linecap="round" stroke-linejoin="round"/>
<path opacity="0.3" d="M196.564 381.402H113.484L114.326 365.355H197.405L196.564 381.402Z" stroke="black" stroke-linecap="round" stroke-linejoin="round"/>
<path opacity="0.3" d="M196.564 403.857H113.484L114.326 387.821H197.405L196.564 403.857Z" stroke="black" stroke-linecap="round" stroke-linejoin="round"/>
</g>
<g opacity="0.3">
<path opacity="0.3" d="M452.023 195.898H344.784V277.029H452.023V195.898Z" stroke="black" stroke-linecap="round" stroke-linejoin="round"/>
<path opacity="0.3" d="M446.19 202.604H350.594V270.334H446.19V202.604Z" stroke="black" stroke-linecap="round" stroke-linejoin="round"/>
<path opacity="0.3" d="M381.77 213.273H415.026" stroke="black" stroke-linecap="round" stroke-linejoin="round"/>
<path opacity="0.3" d="M360.233 223.1H436.562" stroke="black" stroke-linecap="round" stroke-linejoin="round"/>
<path opacity="0.3" d="M377.243 242.744H419.552" stroke="black" stroke-linecap="round" stroke-linejoin="round"/>
<path opacity="0.3" d="M360.986 262.399H377.619" stroke="black" stroke-linecap="round" stroke-linejoin="round"/>
<path opacity="0.3" d="M419.176 262.399H435.798" stroke="black" stroke-linecap="round" stroke-linejoin="round"/>
</g>
<g opacity="0.3">
<path opacity="0.3" d="M481.14 294.139H402.21V353.856H481.14V294.139Z" stroke="black" stroke-linecap="round" stroke-linejoin="round"/>
<path opacity="0.3" d="M476.857 299.075H406.493V348.931H476.857V299.075Z" stroke="black" stroke-linecap="round" stroke-linejoin="round"/>
<path opacity="0.3" d="M429.446 306.932H453.915" stroke="black" stroke-linecap="round" stroke-linejoin="round"/>
<path opacity="0.3" d="M413.587 314.159H469.774" stroke="black" stroke-linecap="round" stroke-linejoin="round"/>
<path opacity="0.3" d="M426.104 328.624H457.257" stroke="black" stroke-linecap="round" stroke-linejoin="round"/>
<path opacity="0.3" d="M414.14 343.088H426.38" stroke="black" stroke-linecap="round" stroke-linejoin="round"/>
<path opacity="0.3" d="M456.969 343.088H469.21" stroke="black" stroke-linecap="round" stroke-linejoin="round"/>
</g>
<path d="M389.705 336.149L275.128 332.165C270.407 332.003 265.685 332.003 260.963 332.165L154.222 336.149L158.959 186.28C159.136 180.607 159.136 174.926 158.959 169.237L154.222 27.8238H389.705V336.149Z" fill="#263238" stroke="#263238" stroke-linecap="round" stroke-linejoin="round"/>
<path d="M393.49 22.5337H158.007V330.859H393.49V22.5337Z" fill="white" stroke="#263238" stroke-linecap="round" stroke-linejoin="round"/>
<path d="M377.83 106.565H173.656V313.251H377.83V106.565Z" fill="white" stroke="#263238" stroke-linecap="round" stroke-linejoin="round"/>
<path d="M175.57 75.6772V37.8836H186.637C188.561 37.799 190.473 38.2348 192.171 39.1452C193.589 39.9886 194.69 41.2761 195.303 42.8084C196.013 44.6609 196.351 46.6352 196.299 48.6185C196.387 50.6743 195.953 52.719 195.037 54.5615C194.263 56.0269 193.026 57.1945 191.518 57.8816C189.83 58.6041 188.007 58.9551 186.172 58.9108H182.443V75.6772H175.57ZM182.476 54.0303H185.088C186.09 54.0761 187.09 53.8905 188.009 53.488C188.355 53.3146 188.661 53.0719 188.909 52.7748C189.156 52.4777 189.34 52.1328 189.448 51.7615C189.746 50.7226 189.881 49.6435 189.847 48.5632C189.869 47.4489 189.769 46.3354 189.548 45.2431C189.471 44.8553 189.315 44.4873 189.09 44.1619C188.866 43.8365 188.577 43.5604 188.242 43.3507C187.26 42.8814 186.174 42.6718 185.088 42.742H182.476V54.0303Z" fill="#F2994A"/>
<path d="M183.97 93.9045L191.573 73.8512L184.202 56.1441H190.643L195.535 67.8529L199.829 56.1441H205.805L198.49 75.1571L206.325 93.9045H199.929L194.561 81.2107L189.891 93.8934L183.97 93.9045Z" fill="#F2994A"/>
<path d="M289.87 49.5371H377.155" stroke="#263238" stroke-linecap="round" stroke-linejoin="round"/>
<path d="M289.87 68.3731H377.155" stroke="#263238" stroke-linecap="round" stroke-linejoin="round"/>
<path d="M308.717 60.2167H377.155" stroke="#263238" stroke-linecap="round" stroke-linejoin="round"/>
<path d="M308.717 77.1713H377.155" stroke="#263238" stroke-linecap="round" stroke-linejoin="round"/>
<path d="M180.606 129.286H249.055" stroke="#263238" stroke-linecap="round" stroke-linejoin="round"/>
<path d="M180.606 147.159H249.055" stroke="#263238" stroke-linecap="round" stroke-linejoin="round"/>
<path d="M180.606 138.526H284.225" stroke="#263238" stroke-linecap="round" stroke-linejoin="round"/>
<path d="M180.606 168.938H249.055" stroke="#263238" stroke-linecap="round" stroke-linejoin="round"/>
<path d="M180.606 186.812H249.055" stroke="#263238" stroke-linecap="round" stroke-linejoin="round"/>
<path d="M180.606 178.179H284.225" stroke="#263238" stroke-linecap="round" stroke-linejoin="round"/>
<path d="M179.145 302.107H244.03" stroke="#263238" stroke-linecap="round" stroke-linejoin="round"/>
<path d="M302.187 302.107H367.073" stroke="#263238" stroke-linecap="round" stroke-linejoin="round"/>
<path d="M188.297 230.869C184.417 233.331 181.354 236.887 179.495 241.089C177.635 245.291 177.063 249.95 177.851 254.477C178.639 259.004 180.751 263.196 183.92 266.523C187.089 269.85 191.174 272.163 195.657 273.17C200.141 274.176 204.822 273.831 209.109 272.178C213.396 270.525 217.097 267.638 219.744 263.882C222.391 260.126 223.866 255.669 223.981 251.076C224.096 246.482 222.847 241.958 220.391 238.074C218.759 235.491 216.633 233.256 214.136 231.496C211.639 229.737 208.819 228.486 205.838 227.817C202.857 227.148 199.774 227.073 196.764 227.597C193.754 228.12 190.877 229.232 188.297 230.869ZM210.597 266.029C207.53 267.972 203.956 268.962 200.326 268.875C196.696 268.787 193.174 267.624 190.204 265.535C187.235 263.445 184.952 260.522 183.643 257.135C182.335 253.748 182.061 250.049 182.854 246.506C183.648 242.963 185.474 239.735 188.103 237.23C190.731 234.725 194.043 233.055 197.62 232.432C201.197 231.809 204.878 232.261 208.199 233.73C211.519 235.199 214.33 237.619 216.274 240.685C217.566 242.722 218.444 244.993 218.858 247.369C219.272 249.745 219.214 252.18 218.686 254.533C218.159 256.887 217.173 259.113 215.785 261.086C214.397 263.058 212.634 264.738 210.597 266.029Z" fill="#F2994A"/>
<path d="M209.394 242.953L189.603 255.493L191.623 258.68L211.414 246.14L209.394 242.953Z" fill="#F2994A"/>
<path d="M189.537 294.803C189.537 294.803 189.858 302.173 199.497 289.026C209.136 275.878 207.841 276.852 205.274 284.223C203.307 289.325 200.704 294.159 197.527 298.61C197.527 298.61 209.081 280.327 209.081 285.451C209.081 290.575 198.169 312.399 200.415 310.474C202.662 308.548 209.723 298.931 209.723 298.931C209.723 298.931 208.76 305.339 211.316 302.45C213.873 299.562 216.772 293.796 216.452 297.005C216.131 300.215 211.958 304.055 216.131 300.215C220.303 296.374 223.512 291.549 222.549 295.08C221.587 298.61 219.019 299.894 221.587 298.61C224.154 297.326 238.585 273.267 234.092 276.155C229.599 279.044 221.266 304.055 225.117 302.129C228.968 300.204 233.45 290.586 233.129 295.401C232.808 300.215 234.092 300.215 235.343 298.61" stroke="#263238" stroke-linecap="round" stroke-linejoin="round"/>
<path d="M506.251 497.605H1" stroke="#263238" stroke-linecap="round" stroke-linejoin="round"/>
<path d="M506.251 508.185H1.00006" stroke="#263238" stroke-linecap="round" stroke-linejoin="round"/>
<path d="M478.572 380.904H371.444C369.754 380.902 368.12 381.51 366.841 382.616C365.562 383.722 364.725 385.251 364.483 386.924L348.458 496.487H475.85L485.578 388.54C485.662 387.569 485.544 386.591 485.23 385.669C484.916 384.746 484.414 383.899 483.755 383.181C483.096 382.462 482.295 381.889 481.403 381.497C480.511 381.105 479.547 380.903 478.572 380.904Z" fill="#263238" stroke="#263238" stroke-linecap="round" stroke-linejoin="round"/>
<path d="M333.507 363.02C333.507 363.02 304.522 377.407 294.573 381.38C284.624 385.353 282.178 387.134 281.293 389.569C280.407 392.004 241.695 452.839 237.28 458.372C232.864 463.906 223.335 475.847 224.663 484.026C225.991 492.204 236.615 499.298 246.797 499.077C256.979 498.855 263.398 496.863 264.504 493.986C265.611 491.108 293.71 440.864 293.71 440.864L302.563 496.83H415.612C415.612 496.83 424.466 420.291 424.466 409.003C424.466 397.714 426.679 384.445 422.031 381.568C417.383 378.69 398.138 372.061 383.972 367.413C369.806 362.765 365.391 361.88 362.082 361.88C358.773 361.88 333.507 363.02 333.507 363.02Z" fill="white" stroke="#263238" stroke-linecap="round" stroke-linejoin="round"/>
<path d="M330.441 363.418C330.441 363.418 326.678 370.501 326.457 376.256C326.236 382.01 325.35 392.624 322.03 399.042C318.71 405.461 316.275 409.003 318.046 408.328C319.817 407.652 329.987 396.386 331.094 393.941C332.201 391.495 333.971 396.154 333.971 396.154C333.971 396.154 330.651 405.66 330.209 406.988C329.766 408.317 344.142 426.677 344.142 426.677C344.142 426.677 356.537 416.949 359.414 414.735C362.292 412.522 361.406 410.751 361.628 407.874C361.849 404.996 362.734 400.802 364.273 398.367C365.811 395.933 370.26 405.472 373.348 409.899C376.435 414.326 379.545 415.875 379.103 412.555C378.66 409.235 377.11 402.816 376.004 391.528C374.897 380.24 375.118 366.749 372.241 362.544C369.364 358.338 354.268 357.508 344.363 356.8C341.657 356.498 338.92 356.957 336.46 358.127C334 359.296 331.916 361.128 330.441 363.418Z" fill="white" stroke="#263238" stroke-linecap="round" stroke-linejoin="round"/>
<path d="M285.753 401.101L293.721 440.898L283.429 414.437" stroke="#263238" stroke-linecap="round" stroke-linejoin="round"/>
<path d="M331.548 374.086C331.548 374.086 334.647 391.34 337.524 404.609C339.106 412.162 341.327 419.567 344.164 426.743C344.164 426.743 358.773 402.185 362.978 389.359C365.367 382.282 367.216 375.035 368.511 367.679H331.548V374.086Z" stroke="#263238" stroke-linecap="round" stroke-linejoin="round"/>
<path d="M347.694 380.018L339.737 389.979L345.271 400.603L339.826 413.784C341.027 418.167 342.475 422.479 344.164 426.699C344.164 426.699 348.724 419.04 353.471 410.098L349.476 400.88L354.346 389.813L347.694 380.018Z" fill="#F2994A" stroke="#263238" stroke-linecap="round" stroke-linejoin="round"/>
<path d="M331.548 367.668V374.086C331.548 374.086 333.684 385.994 336.052 397.626L347.252 385.806L359.06 398.887C360.538 395.782 361.842 392.597 362.967 389.348C365.355 382.271 367.205 375.024 368.5 367.668H331.548Z" fill="white" stroke="#263238" stroke-linecap="round" stroke-linejoin="round"/>
<path d="M235.099 464.924C235.099 464.924 255.761 457.376 266.906 475.736" stroke="#263238" stroke-linecap="round" stroke-linejoin="round"/>
<path d="M267.271 470.07C267.271 470.07 255.728 472.682 249.564 482.52C243.4 492.359 255.938 493.455 259.402 493.455C262.866 493.455 266.142 491.131 266.33 489.924C266.518 488.718 271.056 477.053 270.879 474.331C270.858 473.314 270.488 472.336 269.831 471.56C269.174 470.784 268.27 470.258 267.271 470.07Z" fill="white" stroke="#263238" stroke-linecap="round" stroke-linejoin="round"/>
<path d="M261.959 474.143C261.959 474.143 255.573 479.676 256.005 481.89C256.436 484.103 265.91 492.625 267.736 491.396C268.065 491.229 268.358 490.998 268.598 490.717C268.838 490.436 269.021 490.11 269.135 489.758C269.249 489.407 269.293 489.036 269.263 488.668C269.234 488.299 269.132 487.94 268.964 487.611C268.444 486.781 261.959 474.143 261.959 474.143Z" fill="white" stroke="#263238" stroke-linecap="round" stroke-linejoin="round"/>
<path d="M256.038 481.834C256.038 481.834 252.286 485.829 253.515 487.656C254.743 489.482 263.32 494.141 265.544 492.735C267.769 491.33 266.33 489.891 266.33 489.891L256.038 481.834Z" fill="white" stroke="#263238" stroke-linecap="round" stroke-linejoin="round"/>
<path d="M278.017 473.932L270.336 472.604L272.14 483.66L279.987 483.904L278.017 473.932Z" fill="white" stroke="#263238" stroke-linecap="round" stroke-linejoin="round"/>
<path d="M264.194 456.546L273.192 488.076L277.563 492.049V486.438L268.046 455.451C267.968 455.193 267.839 454.953 267.666 454.747C267.494 454.54 267.281 454.371 267.041 454.249C266.801 454.127 266.539 454.055 266.27 454.037C266.002 454.019 265.732 454.056 265.478 454.145C265.001 454.31 264.603 454.649 264.365 455.094C264.127 455.539 264.066 456.058 264.194 456.546Z" fill="#263238" stroke="#263238" stroke-linecap="round" stroke-linejoin="round"/>
<path d="M267.271 470.07C267.271 470.07 261.959 473.18 262.49 475.537C263.021 477.894 268.754 488.917 270.823 489.061C272.893 489.205 274.143 487.954 273.845 485.564C273.546 483.173 271.631 474.497 270.336 472.604C269.042 470.712 268.898 469.959 267.271 470.07Z" fill="white" stroke="#263238" stroke-linecap="round" stroke-linejoin="round"/>
<path d="M278.017 473.932C278.017 473.932 283.672 474.641 284.657 476.367C285.642 478.094 281.691 484.977 280.429 486.549C279.168 488.12 276.91 488.054 276.844 484.07C276.95 480.664 277.342 477.273 278.017 473.932Z" fill="white" stroke="#263238" stroke-linecap="round" stroke-linejoin="round"/>
<path d="M247.428 487.246H309.48C311.214 487.249 312.876 487.939 314.102 489.165C315.328 490.391 316.018 492.053 316.021 493.787C316.021 495.254 315.438 496.662 314.4 497.699C313.362 498.737 311.955 499.32 310.487 499.32H248.291C246.941 499.32 245.646 498.784 244.691 497.829C243.737 496.874 243.2 495.579 243.2 494.229V491.463C243.2 490.908 243.31 490.359 243.522 489.846C243.735 489.334 244.047 488.869 244.439 488.477C244.832 488.085 245.298 487.775 245.811 487.564C246.324 487.353 246.873 487.245 247.428 487.246Z" fill="white" stroke="#263238" stroke-linecap="round" stroke-linejoin="round"/>
<path d="M357.854 472.981C357.854 472.981 341.707 471.21 337.723 469.882C333.739 468.554 327.32 467.447 325.107 469.218C322.893 470.989 312.059 483.605 311.826 485.143C311.594 486.682 309.392 491.783 310.498 493.112C311.426 494.037 312.566 494.721 313.818 495.104C313.818 495.104 328.206 499.088 329.744 499.309C331.282 499.53 346.112 498.866 346.112 498.866L353.859 495.989L364.693 495.768C364.693 495.768 364.915 499.309 365.136 490.677C365.357 482.045 357.854 472.981 357.854 472.981Z" fill="white" stroke="#263238" stroke-linecap="round" stroke-linejoin="round"/>
<path d="M313.852 495.115C313.852 495.115 314.073 490.024 315.18 487.81C316.286 485.597 328.892 474.32 328.892 474.32" stroke="#263238" stroke-linecap="round" stroke-linejoin="round"/>
<path d="M318.013 496.42C318.013 496.42 320.226 490.887 321.112 490.444C321.997 490.002 332.389 483.362 332.389 483.362" stroke="#263238" stroke-linecap="round" stroke-linejoin="round"/>
<path d="M325.572 497.97C325.572 497.97 326.014 495.756 327.121 495.314C328.228 494.871 337.524 490.666 337.524 490.666" stroke="#263238" stroke-linecap="round" stroke-linejoin="round"/>
<path d="M335.532 499.077L339.737 497.97L339.295 495.978L334.868 497.085" stroke="#263238" stroke-linecap="round" stroke-linejoin="round"/>
<path d="M408.529 401.732C408.529 401.732 396.81 426.289 397.463 434.933C398.115 443.576 401.015 457.93 401.015 457.93C401.015 457.93 382.434 465.223 376.015 467.89C369.596 470.557 357.854 472.981 357.854 472.981L363.819 496.432L362.945 498.866H427.31C427.31 498.866 432.18 497.981 433.065 496.874C433.95 495.768 434.836 495.325 435.278 491.783C435.721 488.242 438.598 457.277 437.934 448.622C437.27 439.968 428.195 395.092 427.089 390.443C425.982 385.795 424.001 382.697 422.009 381.59C420.017 380.483 411.385 379.609 411.385 379.609" fill="white"/>
<path d="M408.529 401.732C408.529 401.732 396.81 426.289 397.463 434.933C398.115 443.576 401.015 457.93 401.015 457.93C401.015 457.93 382.434 465.223 376.015 467.89C369.596 470.557 357.854 472.981 357.854 472.981L363.819 496.432L362.945 498.866H427.31C427.31 498.866 432.18 497.981 433.065 496.874C433.95 495.768 434.836 495.325 435.278 491.783C435.721 488.242 438.598 457.277 437.934 448.622C437.27 439.968 428.195 395.092 427.089 390.443C425.982 385.795 424.001 382.697 422.009 381.59C420.017 380.483 411.385 379.609 411.385 379.609" stroke="#263238" stroke-linecap="round" stroke-linejoin="round"/>
<path d="M402.564 458.372C402.564 458.372 419.596 459.258 428.018 464.559" stroke="#263238" stroke-linecap="round" stroke-linejoin="round"/>
<path d="M405.652 456.159C405.652 456.159 417.604 455.495 424.023 457.487" stroke="#263238" stroke-linecap="round" stroke-linejoin="round"/>
<path d="M402.343 401.046C402.343 401.046 396.367 414.99 396.146 420.302C395.924 425.614 395.482 428.713 395.482 428.713" stroke="#263238" stroke-linecap="round" stroke-linejoin="round"/>
<path d="M375.129 364.126C375.129 364.126 388.62 383.338 377.774 436.914" stroke="#263238" stroke-width="2" stroke-linecap="round" stroke-linejoin="round"/>
<path d="M384.193 438.463C384.193 437.15 383.804 435.866 383.074 434.774C382.345 433.682 381.308 432.831 380.094 432.328C378.881 431.826 377.546 431.694 376.258 431.95C374.97 432.207 373.786 432.839 372.858 433.768C371.929 434.696 371.297 435.879 371.041 437.167C370.784 438.456 370.916 439.791 371.418 441.004C371.921 442.217 372.772 443.254 373.864 443.984C374.956 444.714 376.24 445.103 377.553 445.103C379.314 445.103 381.003 444.404 382.248 443.158C383.494 441.913 384.193 440.224 384.193 438.463Z" fill="white" stroke="#263238" stroke-linecap="round" stroke-linejoin="round"/>
<path d="M329.08 366.118C329.08 366.118 322.229 370.545 321.123 388.462" stroke="#263238" stroke-width="2" stroke-linecap="round" stroke-linejoin="round"/>
<path d="M330.64 415.61C328.969 427.695 326.689 440.676 326.213 443.521C325.107 449.607 317.88 451.732 313.232 449.74" stroke="#263238" stroke-width="2" stroke-linecap="round" stroke-linejoin="round"/>
<path d="M313.309 416.406C311.793 409.634 310.864 403.757 311.196 401.068C312.745 388.684 321.156 388.462 321.156 388.462C321.156 388.462 331.116 389.79 331.769 400.415C331.838 405.502 331.468 410.586 330.662 415.61" stroke="#263238" stroke-width="2" stroke-linecap="round" stroke-linejoin="round"/>
<path d="M331.99 448.855C331.99 448.855 327.342 451.511 324.244 449.74C322.152 448.545 316.497 430.528 313.309 416.406" stroke="#263238" stroke-width="2" stroke-linecap="round" stroke-linejoin="round"/>
<path d="M333.61 446.456L331.781 447.245C330.9 447.625 330.493 448.647 330.873 449.528L330.895 449.579C331.275 450.46 332.297 450.867 333.178 450.487L335.008 449.698C335.889 449.318 336.295 448.296 335.915 447.415L335.893 447.364C335.514 446.483 334.491 446.076 333.61 446.456Z" stroke="#263238" stroke-linecap="round" stroke-linejoin="round"/>
<path d="M313.806 447.656L312.098 446.631C311.275 446.136 310.208 446.403 309.714 447.225L309.685 447.273C309.191 448.095 309.458 449.163 310.28 449.657L311.988 450.683C312.811 451.177 313.878 450.91 314.372 450.088L314.401 450.04C314.895 449.218 314.628 448.15 313.806 447.656Z" stroke="#263238" stroke-linecap="round" stroke-linejoin="round"/>
<path d="M321.156 312.587C321.156 312.587 317.614 320.987 318.278 326.299C318.943 331.611 326.025 337.366 326.025 337.366C326.025 337.366 328.46 313.694 328.46 312.809C328.46 311.923 324.022 309.931 321.156 312.587Z" fill="#263238" stroke="#263238" stroke-linecap="round" stroke-linejoin="round"/>
<path d="M318.61 342.678L323.314 339.392" stroke="#263238" stroke-width="2" stroke-linecap="round" stroke-linejoin="round"/>
<path d="M323.801 314.137C323.801 314.137 322.916 337.588 323.358 342.003C323.801 346.419 325.572 360.585 327.121 365.012C328.67 369.438 333.761 383.593 337.745 385.142C341.729 386.692 349.686 387.798 352.343 386.028C354.999 384.257 364.726 377.628 367.383 371.209C368.957 367.466 370 363.521 370.481 359.489C372.69 358.311 374.597 356.64 376.056 354.605C377.515 352.571 378.485 350.228 378.892 347.758C380.22 339.347 376.679 336.924 376.679 336.924L376.9 322.315C376.9 322.315 374.465 312.145 368.047 306.611C361.628 301.078 354.113 300.635 346.366 304.84C338.62 309.046 323.801 314.137 323.801 314.137Z" fill="white" stroke="#263238" stroke-linecap="round" stroke-linejoin="round"/>
<path d="M365.39 312.809C365.39 312.809 365.612 307.054 360.089 309.046C354.567 311.038 353.228 314.801 345.038 318.121C336.849 321.441 326.014 317.678 322.263 315.465C318.511 313.251 315.844 310.153 320.935 304.398C326.025 298.643 337.967 292.899 350.815 292.899C363.664 292.899 373.602 303.512 377.808 307.939C382.013 312.366 382.677 317.9 381.128 321.873C379.578 325.846 376.701 336.924 376.701 336.924C376.701 336.924 374.93 336.702 374.266 339.347C373.602 341.992 373.823 344.881 370.946 345.102C368.069 345.323 368.29 337.588 368.29 337.588C368.29 337.588 361.218 335.374 360.333 330.283C359.448 325.193 365.39 317.678 365.39 312.809Z" fill="#263238" stroke="#263238" stroke-linecap="round" stroke-linejoin="round"/>
<path d="M339.04 346.286L318.577 342.678L319.761 351.853C319.834 352.423 320.089 352.955 320.488 353.37C320.886 353.784 321.408 354.06 321.975 354.155L334.414 356.114C335.098 356.224 335.798 356.064 336.366 355.668C336.934 355.271 337.325 354.669 337.457 353.989L339.04 346.286Z" stroke="#263238" stroke-width="2" stroke-linecap="round" stroke-linejoin="round"/>
<path d="M342.77 346.674L366.497 345.987L364.173 354.575C363.973 355.154 363.591 355.652 363.084 355.995C362.578 356.338 361.973 356.508 361.362 356.479L346.975 356.678C346.229 356.73 345.49 356.511 344.893 356.061C344.295 355.612 343.879 354.963 343.721 354.232L342.77 346.674Z" stroke="#263238" stroke-width="2" stroke-linecap="round" stroke-linejoin="round"/>
<path d="M339.073 346.286L342.77 346.674" stroke="#263238" stroke-width="2" stroke-linecap="round" stroke-linejoin="round"/>
<path d="M366.497 345.987L374.244 339.347" stroke="#263238" stroke-width="2" stroke-linecap="round" stroke-linejoin="round"/>
<path d="M345.924 343.995C345.924 343.995 352.564 338.916 358.761 342.003" stroke="#263238" stroke-width="2" stroke-linecap="round" stroke-linejoin="round"/>
<path d="M335.975 342.889C335.975 342.889 330.884 337.355 325.129 341.118" stroke="#263238" stroke-width="2" stroke-linecap="round" stroke-linejoin="round"/>
<path d="M337.303 362.134C337.303 362.134 336.196 366.782 337.303 367.668C339.187 368.708 341.361 369.097 343.489 368.774" stroke="#263238" stroke-linecap="round" stroke-linejoin="round"/>
<path d="M333.983 371.165C333.983 371.165 338.409 374.485 342.615 374.706C346.82 374.928 351.679 371.829 351.679 371.829" stroke="#263238" stroke-linecap="round" stroke-linejoin="round"/>
<path d="M350.351 348.644C350.351 348.644 353.007 351.742 357.433 348.422" stroke="#263238" stroke-linecap="round" stroke-linejoin="round"/>
<path d="M328.56 347.282C328.56 347.282 330.773 350.713 335.598 348.024" stroke="#263238" stroke-linecap="round" stroke-linejoin="round"/>
<path d="M191.296 312.787C191.296 312.787 192.702 333.869 191.639 335.629L188.53 340.897C188.53 340.897 189.935 356.014 187.124 357.763C184.946 358.929 182.557 359.648 180.097 359.876C180.097 359.876 177.286 371.121 176.223 372.526C175.161 373.932 168.841 378.502 166.739 379.166C164.636 379.83 157.952 380.273 142.137 370.733C126.322 361.193 120.346 358.084 120.7 352.816C121.054 347.548 121.807 341.572 121.807 341.572C121.807 341.572 123.567 316.262 126.732 308.537C129.897 300.812 169.959 296.585 178.746 298.698C187.534 300.812 191.296 312.787 191.296 312.787Z" fill="white" stroke="#263238" stroke-linecap="round" stroke-linejoin="round"/>
<path d="M150.526 347.57L152.994 349.33C152.994 349.33 150.88 357.763 151.887 361.636" stroke="#263238" stroke-linecap="round" stroke-linejoin="round"/>
<path d="M185.663 340.509C185.309 342.125 184.457 343.298 183.771 343.143C183.085 342.988 182.808 341.572 183.173 339.956C183.538 338.34 184.379 337.167 185.066 337.322C185.752 337.477 186.028 338.905 185.663 340.509Z" fill="#263238"/>
<path d="M182.078 334.057C182.078 334.057 185.907 330.228 189.105 333.847" stroke="#263238" stroke-linecap="round" stroke-linejoin="round"/>
<path d="M177.241 309.976C177.241 309.976 181.801 318.409 181.458 320.168C181.115 321.928 166.694 326.144 166.694 326.144C166.694 326.144 165.289 334.577 163.175 335.629L161.072 336.68C159.387 334.391 157.972 331.914 156.856 329.299C154.399 324.031 150.88 322.658 147.017 327.893C143.155 333.128 146.309 345.467 148.423 346.519L150.526 347.57C150.526 347.57 148.766 349.33 142.093 350.392C135.419 351.455 130.494 352.849 125.581 351.443C120.667 350.038 113.628 336.68 111.194 319.46C108.759 302.24 116.462 287.488 126.687 282.939C136.913 278.391 160.076 282.585 161.825 283.636C163.574 284.688 175.537 279.077 182.564 282.585C189.592 286.093 189.205 289.967 190.997 292.423C192.79 294.88 201.887 291.726 202.596 300.513C203.304 309.301 199.785 314.568 195.214 315.266C190.643 315.963 177.241 309.976 177.241 309.976Z" fill="#263238" stroke="#263238" stroke-linecap="round" stroke-linejoin="round"/>
<path d="M94.0289 365.144C94.0289 365.144 60.3521 383.106 53.9333 386.659C47.5145 390.211 46.5516 393.398 46.1864 396.619C45.8212 399.839 46.1864 508.229 46.1864 508.229H228.094C228.094 508.229 200.504 425.393 199.597 416.141C198.689 406.889 196.719 390.477 194.152 388.551C191.584 386.625 155.329 370.589 155.329 370.589C155.329 370.589 146.663 361.293 126.145 361.293C105.627 361.293 94.0289 365.144 94.0289 365.144Z" fill="#F2994A" stroke="#263238" stroke-linecap="round" stroke-linejoin="round"/>
<path d="M114.879 431.137C115.831 431.513 116.794 431.856 117.756 432.177" stroke="#263238" stroke-linecap="round" stroke-linejoin="round"/>
<path d="M78.9667 401.389C78.9667 401.389 92.247 419.915 110.386 429.056" stroke="#263238" stroke-linecap="round" stroke-linejoin="round"/>
<path d="M90.4985 422.87C90.4985 422.87 97.8691 430.251 113.263 434.423" stroke="#263238" stroke-linecap="round" stroke-linejoin="round"/>
<path d="M181.889 396.287C176.765 402.108 169.55 411.415 167.159 419.981" stroke="#263238" stroke-linecap="round" stroke-linejoin="round"/>
<path d="M187.356 390.477C187.356 390.477 186.338 391.462 184.745 393.155" stroke="#263238" stroke-linecap="round" stroke-linejoin="round"/>
<path d="M169.074 409.722C169.074 409.722 164.26 419.018 163.308 424.795" stroke="#263238" stroke-linecap="round" stroke-linejoin="round"/>
<path d="M92.1032 366.738C92.1032 366.738 110.707 366.096 128.347 366.417C145.988 366.738 157.542 372.194 157.542 372.194C157.542 372.194 146.951 359.367 142.148 356.479C137.345 353.591 122.582 348.732 110.397 352.628C102.891 355.149 96.4485 360.118 92.1032 366.738Z" fill="#F2994A" stroke="#263238" stroke-linecap="round" stroke-linejoin="round"/>
<path d="M39.2032 508.107L22.2486 443.1C22.084 442.311 22.0976 441.495 22.2882 440.711C22.4789 439.928 22.8419 439.197 23.3507 438.571C23.8596 437.946 24.5015 437.441 25.2298 437.095C25.9581 436.749 26.7544 436.57 27.5607 436.57H162.456C163.695 436.572 164.897 436.996 165.863 437.772C166.829 438.549 167.501 439.632 167.768 440.842L182.742 508.174" fill="#263238"/>
<path d="M39.2032 508.107L22.2486 443.1C22.084 442.311 22.0976 441.495 22.2882 440.711C22.4789 439.928 22.8419 439.197 23.3507 438.571C23.8596 437.946 24.5015 437.441 25.2298 437.095C25.9581 436.749 26.7544 436.57 27.5607 436.57H162.456C163.695 436.572 164.897 436.996 165.863 437.772C166.829 438.549 167.501 439.632 167.768 440.842L182.742 508.174" stroke="#263238" stroke-linecap="round" stroke-linejoin="round"/>
</svg>
