<svg width="304" height="465" viewBox="0 0 304 465" fill="none" xmlns="http://www.w3.org/2000/svg">
<path fill-rule="evenodd" clip-rule="evenodd" d="M119.89 50.8531C113.137 46.2433 107.686 39.8372 106.065 31.4568C101.393 7.31061 136.071 3.60592 145.749 13.8313C155.428 24.0567 162.788 54.6006 154.993 58.9801C151.885 60.7266 144.217 60.543 135.825 58.1595L148.898 88.784L122.085 95.9683L119.89 50.8531Z" fill="#B28B67"/>
<path fill-rule="evenodd" clip-rule="evenodd" d="M129.197 28.0637C134.021 41.959 138.634 48.3166 143.037 47.1367C149.643 45.3667 154.134 39.7086 157.032 38.932C159.145 38.3658 159.376 41.1129 158.496 43.4312C157.77 45.3438 152.557 48.3967 153.223 50.882C153.889 53.3673 157.819 50.2533 158.214 51.7273C158.868 54.1654 160.877 58.5401 156.608 59.6841C152.287 60.8418 139.481 62.6007 135.654 56.8135C133.185 53.0786 130.022 44.8159 126.164 32.0254C125.894 32.0647 125.623 32.1203 125.352 32.1928C121.65 33.1848 119.446 36.9634 120.429 40.6327C120.928 42.4954 122.153 43.9718 123.722 44.8444C122.752 47.4298 121.622 50.1623 120.256 53.035C111.581 50.5903 102.538 39.0522 106.501 24.5787C106.881 17.9069 110.581 13.406 115.58 10.437C119.473 7.44776 123.964 6.02485 128.094 6.08505C135.788 4.70883 143.115 5.18251 145.381 6.02265C147.272 13.0819 146.453 15.5462 134.617 18.52C132.126 20.8122 130.599 24.0195 129.197 28.0637Z" fill="#191847"/>
<path fill-rule="evenodd" clip-rule="evenodd" d="M135.139 189.333L191.907 332.459L229.981 453.459H245.016L186.809 189.333L135.139 189.333Z" fill="#997659"/>
<path fill-rule="evenodd" clip-rule="evenodd" d="M123.708 189.333C123.104 239.628 114.288 307.343 112.88 310.478C111.941 312.568 79.5257 339.147 15.635 390.216L25.9903 401.254C101.375 357.47 140.812 332.657 144.301 326.817C149.533 318.058 166.569 237.45 180.246 189.333H123.708Z" fill="#B28B67"/>
<path fill-rule="evenodd" clip-rule="evenodd" d="M14.1816 386.509C10.7038 387.738 8.30807 388.904 6.99442 390.006C5.3967 391.346 3.28857 393.569 0.670036 396.673C2.22528 398.527 16.2025 415.184 42.6017 446.646C47.9845 444.342 49.6732 441.647 47.6678 438.562C45.6625 435.477 44.0213 432.894 42.7443 430.812L33.6094 398.896C33.4336 398.282 32.7933 397.927 32.1792 398.103C32.1687 398.106 32.1582 398.109 32.1478 398.112L27.2734 399.658C23.8916 398.082 21.5213 396.484 20.1625 394.865C19.0585 393.549 18.0653 391.287 17.1828 388.077L17.1828 388.077C16.8441 386.845 15.571 386.121 14.3391 386.459C14.286 386.474 14.2335 386.49 14.1816 386.509Z" fill="#E4E4E4"/>
<path fill-rule="evenodd" clip-rule="evenodd" d="M223.825 447.987C222.531 451.441 221.884 454.025 221.884 455.74C221.884 457.826 222.231 460.869 222.926 464.871C225.346 464.871 247.091 464.871 288.16 464.871C289.856 459.267 288.877 456.241 285.225 455.794C281.572 455.347 278.538 454.944 276.123 454.584L245.802 441.067C245.219 440.807 244.535 441.069 244.275 441.652C244.271 441.662 244.266 441.672 244.262 441.682L242.313 446.41C238.932 447.988 236.185 448.776 234.071 448.776C232.353 448.776 229.981 448.083 226.955 446.695L226.955 446.695C225.794 446.163 224.421 446.673 223.888 447.834C223.865 447.884 223.844 447.935 223.825 447.987Z" fill="#E4E4E4"/>
<path fill-rule="evenodd" clip-rule="evenodd" d="M173.307 440.996L244.79 433.268L191.813 189.333H127.788L173.307 440.996Z" fill="#69A1AC"/>
<path fill-rule="evenodd" clip-rule="evenodd" d="M30.4211 372.407L77.3095 427.693C126.696 373.962 155.489 338.902 163.687 322.515C171.885 306.127 179.255 261.733 185.797 189.333H113.717C110.144 253.027 107.735 286.356 106.491 289.32C105.247 292.284 79.8904 319.98 30.4211 372.407Z" fill="#89C5CC"/>
<path fill-rule="evenodd" clip-rule="evenodd" d="M223.676 162.795L264.69 182.937C275.011 183.845 283.825 185.686 291.13 188.458C292.942 189.599 295.335 192.134 288.771 192.78C282.206 193.426 275.33 194.4 274.824 196.756C274.318 199.112 278.701 201.05 277.418 204.334C276.562 206.524 269.998 202.569 257.725 192.47L219.128 183.967L223.676 162.795ZM84.3378 188.309L108.157 184.205C101.784 234.007 98.2671 260.456 97.6051 263.551C96.1155 270.515 103.438 279.431 106.761 284.33C99.603 289.158 98.1721 276.203 89.1726 282.467C80.9583 288.185 75.4773 296.888 64.0245 292.365C62.6164 291.809 60.7063 289.117 63.6655 286.229C71.0378 279.033 81.3502 266.895 82.4012 263.313C83.8343 258.429 84.4799 233.427 84.3378 188.309Z" fill="#B28B67"/>
<path fill-rule="evenodd" clip-rule="evenodd" d="M134.457 76.9949L144.009 73.5771C186.092 98.5465 211.743 156.248 262.173 180.319L253.737 195.518C174.34 199.646 142.1 129.432 134.457 76.9949Z" fill="#E87613"/>
<path fill-rule="evenodd" clip-rule="evenodd" d="M113.238 207.731C152.73 200.768 181.78 195.646 200.387 192.365C204.369 191.663 202.61 186.073 201.525 183.287C189.006 151.136 156.737 119.788 148.373 72.3542L122.544 72.8642C107.619 109.806 107.653 152.042 113.238 207.731Z" fill="#DDE3E9"/>
<path fill-rule="evenodd" clip-rule="evenodd" d="M96.9231 111.107C93.088 110.706 89.7674 108.78 86.9612 105.329C74.8644 90.4525 76.5811 80.7846 85.8736 76.0677C95.166 71.3508 105.007 75.9565 120.651 73.198C121.502 73.048 122.291 72.9637 123.017 72.945L130.965 72.0043C166.97 144.166 182.154 193.87 176.519 221.115L107.927 233.21C105.525 243.356 103.035 251.976 100.457 259.069L81.7664 262.364C70.0282 206.08 75.0804 155.661 96.9231 111.107Z" fill="#FF9B21"/>
<path fill-rule="evenodd" clip-rule="evenodd" d="M115.968 191.47C121.292 209.051 127.097 221.467 133.382 228.721L107.927 233.21C110.728 221.374 113.408 207.461 115.968 191.47Z" fill="black" fill-opacity="0.1"/>
</svg>
