<?xml version="1.0" encoding="UTF-8"?>
<svg width="4339px" height="1266px" viewBox="0 0 4339 1266" version="1.1" xmlns="http://www.w3.org/2000/svg" xmlns:xlink="http://www.w3.org/1999/xlink">
    <!-- Generator: Sketch 46 (44423) - http://www.bohemiancoding.com/sketch -->
    <title>Stears Business@1x</title>
    <desc>Created with Sketch.</desc>
    <defs></defs>
    <g id="Final-Logo" stroke="none" stroke-width="1" fill="none" fill-rule="evenodd">
        <g id="Stears-Business">
            <g id="Group-Copy" transform="translate(359.000000, 413.000000)">
                <path d="M456.769045,151.457387 C463.467775,161.784452 471.795802,170.752559 481.753374,178.361975 C491.710946,185.971392 505.198727,195.030086 522.217123,205.538328 C540.683893,217.133629 555.257939,227.098192 565.939698,235.432315 C576.621457,243.766438 585.673659,254.002762 593.096576,266.141594 C600.519494,278.280425 604.230897,292.502574 604.230897,308.808467 C604.230897,327.288479 599.433229,343.775301 589.837751,358.269428 C580.242272,372.763555 566.663969,384.086922 549.102433,392.239869 C531.540897,400.392815 511.53553,404.469227 489.085731,404.469227 C473.877803,404.469227 458.217493,402.476315 442.104331,398.49043 C425.991169,394.504545 413.770696,389.61285 405.442545,383.815199 C402.183703,381.64108 400.373262,378.198777 400.011169,373.488186 L396.752343,290.872074 L396.752343,290.328547 C396.752343,288.879135 397.657564,288.063852 399.468031,287.882676 C401.278499,287.701499 402.364763,288.335607 402.726857,289.78502 C414.675943,319.860334 428.344769,344.49998 443.733743,363.704699 C459.122718,382.909417 478.765998,392.511632 502.66417,392.511632 C518.234192,392.511632 531.269363,388.254046 541.770076,379.738747 C552.270788,371.223447 557.521065,357.001298 557.521065,337.071873 C557.521065,321.128334 553.990706,307.177945 546.929883,295.220291 C539.869059,283.262636 531.178944,273.298073 520.859279,265.326303 C510.539613,257.354533 496.5087,247.571144 478.766117,235.975842 C461.385628,224.742894 447.807324,215.231266 438.030799,207.440672 C428.254274,199.650079 419.926248,190.047864 413.046471,178.633739 C406.166694,167.219614 402.726857,153.903334 402.726857,138.684501 C402.726857,119.842136 407.977134,103.898835 418.477846,90.8541208 C428.978559,77.8094064 442.647384,68.1166043 459.484733,61.7754237 C476.322082,55.4342431 493.973877,52.2637004 512.440647,52.2637004 C524.751826,52.2637004 537.062822,53.4413305 549.374002,55.7966262 C561.685182,58.1519218 572.004692,61.1412907 580.332843,64.7648225 C585.764246,66.9389415 588.479907,70.3812451 588.479907,75.0918364 L590.10932,149.011515 C590.10932,150.098574 589.113577,150.82327 587.122063,151.185623 C585.130549,151.547976 583.953762,151.185628 583.591669,150.098569 C576.349798,127.995025 566.663942,107.975312 554.533809,90.0388302 C542.403675,72.1023479 524.208749,63.1342413 499.948482,63.1342413 C483.654274,63.1342413 470.709624,67.844762 461.114146,77.2659446 C451.518667,86.6871272 446.721,99.550472 446.721,115.856365 C446.721,129.263432 450.070315,141.130321 456.769045,151.457387 Z M780.357887,363.161172 C781.444168,363.161172 782.43991,363.885867 783.345144,365.33528 C784.250378,366.784693 784.159856,367.871736 783.073575,368.596442 C769.676114,381.278803 757.003031,390.428084 745.053945,396.044558 C733.104858,401.661032 720.431775,404.469227 707.034315,404.469227 C691.464293,404.469227 678.3386,400.755163 667.65684,393.326923 C656.975081,385.898683 651.634282,373.488272 651.634282,356.09532 L651.634282,233.258207 C651.634282,221.300552 649.73332,213.328902 645.931338,209.343017 C642.129355,205.357132 634.797072,203.36422 623.934266,203.36422 C623.572172,203.36422 623.119562,202.911285 622.576422,202.005402 C622.033282,201.099519 621.761715,200.103063 621.761715,199.016003 C621.761715,197.928944 622.033282,196.932487 622.576422,196.026604 C623.119562,195.120722 623.572172,194.667787 623.934266,194.667787 C657.971057,193.218374 679.334255,178.543291 688.0245,150.642096 C688.748687,149.192683 690.287561,148.467988 692.641169,148.467988 C694.994777,148.467988 696.171563,149.192683 696.171563,150.642096 L696.171563,193.580733 C713.189959,193.21838 737.268817,191.406641 768.40886,188.145462 C769.133048,188.145462 769.947746,189.504266 770.85298,192.221915 C771.758213,194.939564 772.210823,197.928933 772.210823,201.190111 C772.210823,204.45129 771.577169,207.71242 770.309842,210.973598 C769.042515,214.234777 767.684684,215.684168 766.23631,215.321815 C745.959073,210.611223 722.604391,207.712441 696.171563,206.625382 L696.171563,338.158927 C696.171563,352.290701 699.701922,362.708199 706.762746,369.411733 C713.82357,376.115266 723.69047,379.466983 736.363744,379.466983 C751.571672,379.466983 765.874151,374.212941 779.271612,363.704699 L780.357887,363.161172 Z M994.180208,363.704699 C994.904395,363.704699 995.719093,364.429394 996.624327,365.878807 C997.529561,367.32822 997.620083,368.415263 996.895896,369.139969 C983.498435,381.459977 970.101176,390.428084 956.703715,396.044558 C943.306255,401.661032 928.822731,404.469227 913.252709,404.469227 C891.165004,404.469227 872.064857,399.577533 855.951695,389.793997 C839.838534,380.010461 827.527538,367.147116 819.01834,351.203577 C810.509143,335.260037 806.254607,318.048519 806.254607,299.568507 C806.254607,278.18967 811.504885,258.622892 822.005597,240.867586 C832.506309,223.11228 846.899311,209.071305 865.185034,198.74424 C883.470757,188.417174 903.838213,183.253719 926.288011,183.253719 C948.013623,183.253719 964.850719,188.507761 976.799806,199.016003 C988.748892,209.524245 994.723346,225.105198 994.723346,245.759329 C994.723346,256.267571 992.550817,261.521614 988.205695,261.521614 L855.680127,262.065141 C855.318033,265.326319 855.136989,270.218014 855.136989,276.740371 C855.136989,308.627451 862.469273,333.901206 877.134061,352.562394 C891.798849,371.223583 912.709436,380.554037 939.866451,380.554037 C950.005069,380.554037 958.51414,379.376407 965.393917,377.021111 C972.273694,374.665816 981.50694,370.40823 993.093933,364.248226 L994.180208,363.704699 Z M873.875235,209.614781 C865.366038,219.941846 859.66315,234.163995 856.766402,252.281654 L943.668414,250.651073 C942.944227,212.966342 930.633231,194.12426 906.735059,194.12426 C893.337598,194.12426 882.384433,199.287715 873.875235,209.614781 Z M1229.47404,368.596442 C1230.92241,368.596442 1231.82763,369.411725 1232.18973,371.042314 C1232.55182,372.672903 1232.00869,373.850533 1230.56032,374.57524 L1174.61715,401.208065 C1173.16877,401.932771 1171.53937,402.295119 1169.72891,402.295119 C1164.2975,402.295119 1159.13775,399.124576 1154.24949,392.783396 C1149.36122,386.442215 1146.19295,378.01763 1144.74458,367.509388 L1119.76025,384.902254 C1111.07001,391.062258 1103.19459,395.41043 1096.13377,397.946903 C1089.07294,400.483375 1081.19753,401.751592 1072.50728,401.751592 C1057.66145,401.751592 1046.34619,398.218702 1038.56118,391.152815 C1030.77617,384.086928 1026.88373,374.756473 1026.88373,363.161172 C1026.88373,353.377636 1029.50886,345.405986 1034.75922,339.245982 C1040.00958,333.085978 1046.70821,328.103696 1054.85531,324.298988 C1063.00241,320.494279 1075.04184,315.693172 1090.97396,309.895521 L1143.6583,290.328547 L1143.6583,257.716924 C1143.6583,235.251027 1141.39525,218.854792 1136.86908,208.527727 C1132.34291,198.200661 1125.19167,193.037206 1115.41515,193.037206 C1103.46606,193.037206 1094.86647,197.475966 1089.61611,206.353618 C1084.36576,215.231271 1081.19749,225.105247 1080.11121,235.975842 C1077.93865,254.455854 1068.7054,263.695722 1052.41119,263.695722 C1044.44513,263.695722 1038.5612,261.883983 1034.75922,258.260451 C1030.95724,254.63692 1029.05628,250.107573 1029.05628,244.672275 C1029.05628,234.526386 1035.12125,224.65241 1047.25138,215.050051 C1059.38152,205.447692 1074.04609,197.657216 1091.24553,191.678388 C1108.44497,185.699561 1123.56215,182.710192 1136.59751,182.710192 C1152.16754,182.710192 1164.56905,187.601886 1173.80244,197.385422 C1183.03582,207.168958 1187.65245,221.844041 1187.65245,241.411113 L1187.65245,339.245982 C1187.65245,350.47893 1189.46289,358.994102 1193.08382,364.791753 C1196.70476,370.589404 1201.95504,373.488186 1208.83481,373.488186 C1214.26622,373.488186 1220.7838,371.857621 1228.38776,368.596442 L1229.47404,368.596442 Z M1143.6583,358.812955 L1143.6583,299.568507 L1111.07005,313.156683 C1101.65562,316.780215 1093.96125,321.037801 1087.9867,325.929569 C1082.01216,330.821337 1079.02493,337.796531 1079.02493,346.85536 C1079.02493,355.551836 1081.83111,362.52703 1087.44356,367.781152 C1093.05601,373.035273 1099.84517,375.662294 1107.81122,375.662294 C1114.32891,375.662294 1121.20858,373.488207 1128.45045,369.139969 L1143.6583,358.812955 Z M1411.25124,195.066637 C1418.85521,200.501935 1422.65713,207.024194 1422.65713,214.633611 C1422.65713,221.518321 1420.57513,227.134711 1416.41105,231.48295 C1412.24698,235.831188 1406.54409,238.005274 1399.30222,238.005274 C1394.595,238.005274 1390.70255,237.008818 1387.62476,235.015875 C1384.54696,233.022933 1381.37869,230.214738 1378.11985,226.591206 C1374.86101,223.330028 1371.96431,220.88418 1369.42965,219.253591 C1366.895,217.623002 1363.81725,216.807719 1360.19631,216.807719 C1356.21328,216.807719 1351.95875,218.347697 1347.43258,221.427699 C1342.90641,224.507701 1335.93621,230.939374 1326.52178,240.722909 L1326.52178,358.124752 C1326.52178,368.270641 1327.97014,375.97053 1330.86688,381.224651 C1333.76363,386.478772 1338.65182,390.192837 1345.5316,392.366956 C1352.41137,394.541075 1362.54984,395.628118 1375.9473,395.628118 C1377.39568,395.628118 1378.11985,396.715161 1378.11985,398.88928 C1378.11985,401.063399 1377.39568,402.150442 1375.9473,402.150442 C1363.99822,402.150442 1354.40288,401.969269 1347.16101,401.606915 L1304.25314,401.063388 L1272.75116,401.606915 C1267.68185,401.969269 1260.62114,402.150442 1251.5688,402.150442 C1250.48252,402.150442 1249.93938,401.063399 1249.93938,398.88928 C1249.93938,396.715161 1250.48252,395.628118 1251.5688,395.628118 C1263.87998,395.628118 1272.02696,393.091684 1276.00999,388.018739 C1279.99302,382.945795 1281.9845,372.981232 1281.9845,358.124752 L1281.9845,254.311086 C1281.9845,242.715784 1280.62667,234.200612 1277.91097,228.765314 C1275.19527,223.330017 1270.75969,220.612409 1264.6041,220.612409 C1259.1727,220.612409 1250.12049,223.330017 1237.44722,228.765314 L1236.90408,228.765314 C1235.45571,228.765314 1234.36944,227.859445 1233.64526,226.047679 C1232.92107,224.235913 1233.10211,223.14887 1234.1884,222.786517 L1305.33942,188.000786 C1307.51198,187.276079 1308.77929,186.913732 1309.14138,186.913732 C1312.76232,186.913732 1316.3832,190.80897 1320.00413,198.599563 C1323.62507,206.390156 1325.7976,216.62648 1326.52178,229.308841 C1340.64343,213.365302 1352.41129,202.313695 1361.82572,196.153691 C1371.24016,189.993687 1379.74923,186.913732 1387.35319,186.913732 C1395.68134,186.913732 1403.64728,189.63134 1411.25124,195.066637 Z M1486.88021,244.672275 C1494.66522,252.281692 1505.98047,260.253342 1520.8263,268.587465 C1533.86167,275.834529 1543.90962,281.813267 1550.97044,286.523858 C1558.03126,291.234449 1564.18676,297.575535 1569.43712,305.547305 C1574.68747,313.519074 1577.31261,323.12129 1577.31261,334.354238 C1577.31261,346.674246 1574.23486,358.0882 1568.07927,368.596442 C1561.92368,379.104684 1552.78096,387.619856 1540.65083,394.142213 C1528.52069,400.664571 1514.12769,403.9257 1497.47139,403.9257 C1477.55625,403.9257 1459.2708,398.852832 1442.61449,388.706943 C1440.44193,386.532824 1439.35567,384.358737 1439.35567,382.184618 L1438.26939,332.18013 C1438.26939,331.09307 1439.26514,330.458962 1441.25665,330.277785 C1443.24816,330.096609 1444.42495,330.368369 1444.78704,331.093076 C1450.94263,349.210735 1460.2664,364.066992 1472.75863,375.662294 C1485.25086,387.257595 1498.55759,393.055159 1512.67924,393.055159 C1521.73158,393.055159 1528.7923,390.699899 1533.86161,385.989308 C1538.93092,381.278716 1541.46553,374.212935 1541.46553,364.791753 C1541.46553,351.022332 1537.48256,340.061313 1529.51651,331.908366 C1521.55045,323.75542 1509.96363,315.693183 1494.7557,307.721413 C1482.44452,301.199056 1472.84919,295.673253 1465.96941,291.143838 C1459.08963,286.614423 1453.2057,280.454511 1448.31744,272.663918 C1443.42918,264.873325 1440.98508,255.180523 1440.98508,243.585221 C1440.98508,222.93109 1448.49841,207.531311 1463.52529,197.385422 C1478.55217,187.239533 1496.7471,182.166665 1518.11062,182.166665 C1532.23226,182.166665 1546.71579,184.884273 1561.56162,190.31957 C1564.82046,191.768983 1566.44986,193.761896 1566.44986,196.298368 C1566.44986,204.632491 1566.26882,211.15475 1565.90672,215.865342 L1565.36359,241.95464 C1565.36359,243.0417 1564.27732,243.585221 1562.10476,243.585221 C1559.9322,243.585221 1558.84594,243.0417 1558.84594,241.95464 C1558.84594,234.707576 1555.94923,227.188861 1550.15573,219.398268 C1544.36224,211.607674 1536.93943,205.176002 1527.88709,200.103057 C1518.83476,195.030113 1509.60151,192.493679 1500.18708,192.493679 C1483.53077,192.493679 1475.20275,200.465329 1475.20275,216.408869 C1475.20275,227.641817 1479.0952,237.062859 1486.88021,244.672275 Z" id="Stears" fill="#4A4A4A"></path>
                <path d="M101.760765,231.31395 C99.4191464,247.06618 89.7477218,260.45667 76.2880825,267.978029 C59.6534738,277.690602 38.2662014,277.551239 21.5413014,265.868393 C3.72885614,253.425863 -3.5588957,231.547485 1.64325659,211.594343 C6.54626476,192.129331 22.8320018,177.125891 43.093192,173.919767 C48.7227801,173.011814 54.5006715,173.042675 60.171895,174.058159 C65.5732735,175.003826 70.6817218,176.789895 75.3545914,179.27509 L138.664388,89.0759307 C119.557332,72.250779 115.843083,43.3001698 130.912968,21.8297024 C147.097399,-1.22868868 178.818487,-6.9278388 201.764002,9.10029429 C224.709517,25.1284274 230.190458,56.8143158 214.006027,79.8727068 C199.672276,100.294386 173.151925,107.099874 151.334297,97.2547623 L87.4763819,188.234841 C94.9383733,195.678889 100.07912,205.408145 101.733809,216.269046 L243.780405,216.269046 C244.851413,208.46055 247.756114,200.77315 252.607665,193.861016 C268.792096,170.802624 300.513184,165.103474 323.458699,181.131607 C346.404213,197.159741 351.885155,228.845629 335.700724,251.90402 C321.519257,272.108736 295.408761,278.985045 273.725949,269.59423 L208.60294,360.048396 C225.715112,377.105266 228.540454,404.578122 214.087032,425.170298 C197.902601,448.228689 166.181513,453.927839 143.235998,437.899706 C120.290483,421.871573 114.809542,390.185684 130.993973,367.127293 C145.947185,345.823052 174.163091,339.337332 196.466661,351.115204 L260.918797,261.592864 C251.59153,253.619466 245.812973,242.800756 243.959736,231.31395 L101.760765,231.31395 Z" id="Combined-Shape" fill="#F05042"></path>
            </g>
            <path d="M2027.00144,468.95241 L2150.22582,468.95241 C2188.30392,468.95241 2216.77394,476.88523 2235.6367,492.751109 C2254.49947,508.616988 2263.93071,531.534025 2263.93071,561.502907 C2263.93071,581.952262 2258.37774,599.228182 2247.27162,613.331186 C2236.16551,627.434189 2220.38801,636.601004 2199.93865,640.831905 L2199.93865,641.360765 C2222.50346,644.886516 2240.39638,654.053331 2253.61794,668.861484 C2266.83951,683.669638 2273.45019,702.003267 2273.45019,723.862923 C2273.45019,753.831805 2262.78496,777.013269 2241.45416,793.408011 C2220.12337,809.802752 2189.71422,818 2150.22582,818 L2027.00144,818 L2027.00144,468.95241 Z M2150.75468,629.725845 C2207.51926,629.725845 2235.90113,606.985093 2235.90113,561.502907 C2235.90113,516.020721 2207.51926,493.279969 2150.75468,493.279969 L2053.44444,493.279969 L2053.44444,629.725845 L2150.75468,629.725845 Z M2155.51441,793.672441 C2185.13072,793.672441 2207.5189,787.678754 2222.67963,775.691201 C2237.84036,763.703648 2245.42061,746.427728 2245.42061,723.862923 C2245.42061,700.945542 2237.84036,683.581479 2222.67963,671.770214 C2207.5189,659.958949 2185.13072,654.053405 2155.51441,654.053405 L2053.44444,654.053405 L2053.44444,793.672441 L2155.51441,793.672441 Z M2513.89641,602.070533 L2513.89641,818 L2494.46276,818 L2493.59904,775.245965 C2486.40136,790.505057 2475.60499,802.165132 2461.20962,810.226539 C2446.81425,818.287946 2429.82797,822.318589 2410.25027,822.318589 C2386.64186,822.318589 2367.78421,815.768794 2353.67675,802.669008 C2339.56929,789.569221 2332.51566,770.207739 2332.51566,744.583981 L2332.51566,602.070533 L2354.10861,602.070533 L2354.10861,739.401674 C2354.10861,782.011968 2373.97392,803.316796 2413.70514,803.316796 C2429.54005,803.316796 2443.43137,799.861959 2455.37953,792.952182 C2467.32769,786.042404 2476.46861,776.685554 2482.80257,764.881351 C2489.13653,753.077148 2492.30347,740.121509 2492.30347,726.014047 L2492.30347,602.070533 L2513.89641,602.070533 Z M2594.15493,809.362821 C2578.03212,800.725599 2566.94785,788.201816 2560.90179,771.791094 L2578.60801,760.130903 C2582.92662,774.526273 2591.70766,785.322638 2604.9514,792.520323 C2618.19514,799.718008 2634.46167,803.316796 2653.75146,803.316796 C2673.32917,803.316796 2688.66001,799.574056 2699.74444,792.088464 C2710.82888,784.602872 2716.37101,774.670215 2716.37101,762.290197 C2716.37101,751.637624 2711.62061,743.144483 2702.11966,736.81052 C2692.61872,730.476558 2675.92034,725.150351 2652.02403,720.83174 C2621.79375,715.361499 2600.48892,708.019971 2588.10891,698.806934 C2575.72889,689.593897 2569.53897,676.494307 2569.53897,659.507771 C2569.53897,648.279383 2572.99381,637.914872 2579.90359,628.413928 C2586.81336,618.912984 2596.60207,611.427504 2609.26999,605.957263 C2621.93792,600.487023 2636.33307,597.751943 2652.45589,597.751943 C2675.20057,597.751943 2693.41044,602.070489 2707.08604,610.707711 C2720.76164,619.344933 2730.19047,632.588475 2735.3728,650.438733 L2716.80287,661.235207 C2708.74146,631.580745 2687.29268,616.753736 2652.45589,616.753736 C2640.93959,616.753736 2630.5031,618.625106 2621.14611,622.367903 C2611.78912,626.110699 2604.4476,631.077027 2599.12131,637.267036 C2593.79502,643.457045 2591.13192,650.150791 2591.13192,657.348476 C2591.13192,669.15268 2596.02627,678.365578 2605.81512,684.987448 C2615.60397,691.609318 2632.87816,697.079477 2657.63819,701.398088 C2687.00475,706.292513 2707.73377,713.346139 2719.82588,722.559175 C2731.91799,731.772212 2737.96396,744.727851 2737.96396,761.42648 C2737.96396,779.852553 2730.1186,794.607586 2714.42764,805.69202 C2698.73669,816.776455 2677.64779,822.318589 2651.16031,822.318589 C2629.27935,822.318589 2610.27775,818.000043 2594.15493,809.362821 Z M2786.48084,555.213838 C2783.16991,551.902903 2781.51446,547.512381 2781.51446,542.042141 C2781.51446,536.5719 2783.16991,532.181378 2786.48084,528.870443 C2789.79178,525.559508 2794.1823,523.904066 2799.65254,523.904066 C2805.12278,523.904066 2809.5133,525.559508 2812.82424,528.870443 C2816.13517,532.181378 2817.79061,536.5719 2817.79061,542.042141 C2817.79061,547.512381 2816.13517,551.902903 2812.82424,555.213838 C2809.5133,558.524773 2805.12278,560.180216 2799.65254,560.180216 C2794.1823,560.180216 2789.79178,558.524773 2786.48084,555.213838 Z M2810.44901,818 L2788.85607,818 L2788.85607,602.070533 L2810.44901,602.070533 L2810.44901,818 Z M3038.61922,618.481172 C3053.73435,632.300727 3061.29181,652.16604 3061.29181,678.077705 L3061.29181,818 L3039.69886,818 L3039.69886,684.987448 C3039.69886,661.954856 3034.08475,644.824623 3022.85636,633.596235 C3011.62798,622.367846 2996.22516,616.753736 2976.64746,616.753736 C2962.8279,616.753736 2950.01622,619.92067 2938.21201,626.254633 C2926.40781,632.588596 2916.97898,641.801494 2909.92525,653.893605 C2902.87152,665.985715 2899.34471,680.092966 2899.34471,696.21578 L2899.34471,818 L2877.75176,818 L2877.75176,602.070533 L2897.18541,602.070533 L2898.04913,645.688285 C2904.95891,630.141286 2915.53935,618.265284 2929.79076,610.059923 C2944.04218,601.854562 2960.38068,597.751943 2978.80675,597.751943 C3003.56679,597.751943 3023.50408,604.661617 3038.61922,618.481172 Z M3304.793,719.104304 L3133.34501,719.104304 C3134.78454,745.591784 3142.6299,766.24883 3156.88132,781.076061 C3171.13274,795.903292 3190.20631,803.316796 3214.10263,803.316796 C3231.08916,803.316796 3245.70025,799.861959 3257.93631,792.952182 C3270.17237,786.042404 3279.02539,776.2537 3284.49563,763.585774 L3302.63371,773.086671 C3294.5723,788.921578 3283.05618,801.085483 3268.08499,809.578751 C3253.11381,818.072019 3235.11987,822.318589 3214.10263,822.318589 C3182.14491,822.318589 3157.16931,812.385933 3139.1751,792.520323 C3121.18089,772.654713 3112.18392,745.159969 3112.18392,710.035266 C3112.18392,674.910564 3120.89299,647.41582 3138.31138,627.55021 C3155.72978,607.6846 3180.12957,597.751943 3211.51147,597.751943 C3240.87803,597.751943 3263.91027,607.540648 3280.6089,627.118351 C3297.30753,646.696054 3305.65672,672.607331 3305.65672,704.852959 C3305.65672,709.747385 3305.36882,714.497786 3304.793,719.104304 Z M3156.23353,638.562613 C3142.70188,653.101936 3135.07245,673.471079 3133.34501,699.670652 L3285.35935,699.670652 C3283.91982,673.758986 3276.79421,653.461819 3263.98233,638.778542 C3251.17046,624.095265 3233.68034,616.753736 3211.51147,616.753736 C3188.19098,616.753736 3169.76518,624.023289 3156.23353,638.562613 Z M3370.80018,809.362821 C3354.67736,800.725599 3343.59309,788.201816 3337.54704,771.791094 L3355.25325,760.130903 C3359.57187,774.526273 3368.35291,785.322638 3381.59665,792.520323 C3394.84039,799.718008 3411.10691,803.316796 3430.39671,803.316796 C3449.97441,803.316796 3465.30525,799.574056 3476.38969,792.088464 C3487.47412,784.602872 3493.01626,774.670215 3493.01626,762.290197 C3493.01626,751.637624 3488.26585,743.144483 3478.76491,736.81052 C3469.26397,730.476558 3452.56559,725.150351 3428.66927,720.83174 C3398.439,715.361499 3377.13417,708.019971 3364.75415,698.806934 C3352.37413,689.593897 3346.18422,676.494307 3346.18422,659.507771 C3346.18422,648.279383 3349.63905,637.914872 3356.54883,628.413928 C3363.45861,618.912984 3373.24731,611.427504 3385.91524,605.957263 C3398.58316,600.487023 3412.97832,597.751943 3429.10113,597.751943 C3451.84582,597.751943 3470.05569,602.070489 3483.73129,610.707711 C3497.40689,619.344933 3506.83572,632.588475 3512.01805,650.438733 L3493.44811,661.235207 C3485.38671,631.580745 3463.93793,616.753736 3429.10113,616.753736 C3417.58484,616.753736 3407.14835,618.625106 3397.79136,622.367903 C3388.43437,626.110699 3381.09284,631.077027 3375.76655,637.267036 C3370.44027,643.457045 3367.77716,650.150791 3367.77716,657.348476 C3367.77716,669.15268 3372.67152,678.365578 3382.46037,684.987448 C3392.24922,691.609318 3409.5234,697.079477 3434.28344,701.398088 C3463.64999,706.292513 3484.37902,713.346139 3496.47113,722.559175 C3508.56324,731.772212 3514.6092,744.727851 3514.6092,761.42648 C3514.6092,779.852553 3506.76384,794.607586 3491.07289,805.69202 C3475.38194,816.776455 3454.29304,822.318589 3427.80556,822.318589 C3405.92459,822.318589 3386.92299,818.000043 3370.80018,809.362821 Z M3578.88894,809.362821 C3562.76612,800.725599 3551.68186,788.201816 3545.6358,771.791094 L3563.34202,760.130903 C3567.66063,774.526273 3576.44167,785.322638 3589.68541,792.520323 C3602.92915,799.718008 3619.19568,803.316796 3638.48547,803.316796 C3658.06317,803.316796 3673.39401,799.574056 3684.47845,792.088464 C3695.56288,784.602872 3701.10502,774.670215 3701.10502,762.290197 C3701.10502,751.637624 3696.35462,743.144483 3686.85367,736.81052 C3677.35273,730.476558 3660.65435,725.150351 3636.75804,720.83174 C3606.52776,715.361499 3585.22293,708.019971 3572.84291,698.806934 C3560.4629,689.593897 3554.27298,676.494307 3554.27298,659.507771 C3554.27298,648.279383 3557.72782,637.914872 3564.63759,628.413928 C3571.54737,618.912984 3581.33608,611.427504 3594.004,605.957263 C3606.67193,600.487023 3621.06708,597.751943 3637.18989,597.751943 C3659.93458,597.751943 3678.14445,602.070489 3691.82005,610.707711 C3705.49565,619.344933 3714.92448,632.588475 3720.10681,650.438733 L3701.53688,661.235207 C3693.47547,631.580745 3672.02669,616.753736 3637.18989,616.753736 C3625.6736,616.753736 3615.23711,618.625106 3605.88012,622.367903 C3596.52313,626.110699 3589.1816,631.077027 3583.85532,637.267036 C3578.52903,643.457045 3575.86593,650.150791 3575.86593,657.348476 C3575.86593,669.15268 3580.76028,678.365578 3590.54913,684.987448 C3600.33798,691.609318 3617.61217,697.079477 3642.3722,701.398088 C3671.73876,706.292513 3692.46778,713.346139 3704.55989,722.559175 C3716.652,731.772212 3722.69796,744.727851 3722.69796,761.42648 C3722.69796,779.852553 3714.8526,794.607586 3699.16165,805.69202 C3683.4707,816.776455 3662.3818,822.318589 3635.89432,822.318589 C3614.01336,822.318589 3595.01175,818.000043 3578.88894,809.362821 Z" id="Business" fill="#F05042"></path>
        </g>
    </g>
</svg>