<svg width="93" height="70" viewBox="0 0 93 70" fill="none" xmlns="http://www.w3.org/2000/svg">
<circle cx="20.0039" cy="20" r="20" fill="#F2994A"/>
<path d="M82.0039 0L84.249 6.90983H91.5145L85.6366 11.1803L87.8818 18.0902L82.0039 13.8197L76.1261 18.0902L78.3712 11.1803L72.4933 6.90983H79.7588L82.0039 0Z" fill="#F2994A"/>
<path d="M24.1705 17.7747V11.5169H17.9127V17.7747H11.6548V24.0325H17.9127V30.2894H24.1705V24.0325H30.4283V17.7747H24.1705Z" fill="#2D9CDB"/>
<path d="M43.9189 37.1988C48.2361 37.1988 51.7386 33.6934 51.7386 29.3772C51.7386 28.3503 51.5364 27.3335 51.1434 26.3849C50.7504 25.4362 50.1744 24.5742 49.4482 23.8482C48.7221 23.1221 47.86 22.5462 46.9113 22.1533C45.9626 21.7605 44.9458 21.5583 43.9189 21.5584C42.8921 21.5583 41.8753 21.7605 40.9265 22.1533C39.9778 22.5462 39.1158 23.1221 38.3896 23.8482C37.6635 24.5742 37.0875 25.4362 36.6945 26.3849C36.3015 27.3335 36.0992 28.3503 36.0992 29.3772C36.0992 33.6925 39.6017 37.1988 43.9189 37.1988Z" fill="#2D9CDB"/>
<path d="M31.6705 69.5519V62.6125L24.7114 64.5494C24.1881 64.7585 23.6297 64.866 23.0661 64.8662C22.2575 64.8656 21.4642 64.6451 20.7712 64.2283C20.0782 63.8116 19.5116 63.2142 19.132 62.5002C18.7524 61.7862 18.574 60.9824 18.616 60.1749C18.658 59.3673 18.9188 58.5864 19.3705 57.9156L30.5333 42.6091C31.7455 40.9497 33.4377 39.1 37.0067 39.1H50.502C54.0692 39.1 55.7633 40.9497 56.9736 42.6091L68.1364 57.9156C68.5877 58.5863 68.8482 59.367 68.8901 60.1743C68.932 60.9816 68.7538 61.7851 68.3744 62.4989C67.9951 63.2127 67.4289 63.8101 66.7364 64.227C66.0438 64.644 65.251 64.8649 64.4427 64.8662C63.8791 64.8662 63.3207 64.7587 62.7974 64.5494L55.8364 62.6125V69.5519H31.6714H31.6705ZM43.7539 64.7041L52.7717 61.72L52.5683 61.6638C46.347 59.8328 48.7695 51.6128 54.9899 53.4484L55.8402 53.7344V44.4512L43.7539 48.4L31.6686 44.4512V53.7344L32.5142 53.4484C38.7392 51.6128 41.1617 59.8328 34.9367 61.6638L34.737 61.72L43.7539 64.7041Z" fill="#2D9CDB"/>
</svg>
