<svg width="93" height="70" viewBox="0 0 93 70" fill="none" xmlns="http://www.w3.org/2000/svg">
<circle cx="20.0039" cy="20" r="20" fill="#F2994A"/>
<path d="M82.0039 0L84.249 6.90983H91.5145L85.6366 11.1803L87.8818 18.0902L82.0039 13.8197L76.1261 18.0902L78.3712 11.1803L72.4933 6.90983H79.7588L82.0039 0Z" fill="#F2994A"/>
<path d="M58.5614 52.4425C57.3905 51.3209 56.2509 50.1672 55.1439 48.9825C54.2139 48.0375 53.6539 47.35 53.6539 47.35L46.6539 44.0075C49.4564 40.8291 51.0031 36.7375 51.0039 32.5C51.0039 22.8525 43.1539 15 33.5039 15C23.8539 15 16.0039 22.8525 16.0039 32.5C16.0039 42.1475 23.8539 50 33.5039 50C37.9114 50 41.9289 48.35 45.0114 45.6525L48.3539 52.6525C48.3539 52.6525 49.0414 53.2125 49.9864 54.1425C50.9539 55.05 52.2264 56.2775 53.4464 57.56L56.8414 61.04L58.3514 62.655L63.6539 57.3525L62.0389 55.8425C61.0914 54.9125 59.8264 53.6775 58.5614 52.4425ZM33.5039 45C26.6114 45 21.0039 39.3925 21.0039 32.5C21.0039 25.6075 26.6114 20 33.5039 20C40.3964 20 46.0039 25.6075 46.0039 32.5C46.0039 39.3925 40.3964 45 33.5039 45Z" fill="#2D9CDB"/>
</svg>
