<svg width="93" height="70" viewBox="0 0 93 70" fill="none" xmlns="http://www.w3.org/2000/svg">
<circle cx="20.0039" cy="20" r="20" fill="#F2994A"/>
<path d="M82.0039 0L84.249 6.90983H91.5145L85.6366 11.1803L87.8818 18.0902L82.0039 13.8197L76.1261 18.0902L78.3712 11.1803L72.4933 6.90983H79.7588L82.0039 0Z" fill="#F2994A"/>
<path d="M64.7539 20H59.3372V23.3333H64.3372V60H17.6706V23.3333H22.6706V20H17.2539C16.8643 20.0065 16.4798 20.0897 16.1224 20.2448C15.7649 20.4 15.4415 20.624 15.1707 20.9042C14.8998 21.1843 14.6868 21.515 14.5438 21.8775C14.4008 22.24 14.3306 22.6271 14.3373 23.0167V60.3167C14.3306 60.7063 14.4008 61.0934 14.5438 61.4558C14.6868 61.8183 14.8998 62.149 15.1707 62.4292C15.4415 62.7093 15.7649 62.9333 16.1224 63.0885C16.4798 63.2436 16.8643 63.3268 17.2539 63.3333H64.7539C65.1435 63.3268 65.528 63.2436 65.8855 63.0885C66.2429 62.9333 66.5663 62.7093 66.8372 62.4292C67.108 62.149 67.321 61.8183 67.464 61.4558C67.607 61.0934 67.6772 60.7063 67.6706 60.3167V23.0167C67.6772 22.6271 67.607 22.24 67.464 21.8775C67.321 21.515 67.108 21.1843 66.8372 20.9042C66.5663 20.624 66.2429 20.4 65.8855 20.2448C65.528 20.0897 65.1435 20.0065 64.7539 20Z" fill="#2D9CDB"/>
<path d="M24.3372 33.3333H27.6706V36.6667H24.3372V33.3333Z" fill="#2D9CDB"/>
<path d="M34.3372 33.3333H37.6706V36.6667H34.3372V33.3333Z" fill="#2D9CDB"/>
<path d="M44.3372 33.3333H47.6706V36.6667H44.3372V33.3333Z" fill="#2D9CDB"/>
<path d="M54.3372 33.3333H57.6706V36.6667H54.3372V33.3333Z" fill="#2D9CDB"/>
<path d="M24.3372 41.6667H27.6706V45H24.3372V41.6667Z" fill="#2D9CDB"/>
<path d="M34.3372 41.6667H37.6706V45H34.3372V41.6667Z" fill="#2D9CDB"/>
<path d="M44.3372 41.6667H47.6706V45H44.3372V41.6667Z" fill="#2D9CDB"/>
<path d="M54.3372 41.6667H57.6706V45H54.3372V41.6667Z" fill="#2D9CDB"/>
<path d="M24.3372 50H27.6706V53.3333H24.3372V50Z" fill="#2D9CDB"/>
<path d="M34.3372 50H37.6706V53.3333H34.3372V50Z" fill="#2D9CDB"/>
<path d="M44.3372 50H47.6706V53.3333H44.3372V50Z" fill="#2D9CDB"/>
<path d="M54.3372 50H57.6706V53.3333H54.3372V50Z" fill="#2D9CDB"/>
<path d="M27.6706 26.6667C28.1126 26.6667 28.5365 26.4911 28.8491 26.1785C29.1616 25.866 29.3372 25.442 29.3372 25V15C29.3372 14.558 29.1616 14.1341 28.8491 13.8215C28.5365 13.5089 28.1126 13.3333 27.6706 13.3333C27.2285 13.3333 26.8046 13.5089 26.4921 13.8215C26.1795 14.1341 26.0039 14.558 26.0039 15V25C26.0039 25.442 26.1795 25.866 26.4921 26.1785C26.8046 26.4911 27.2285 26.6667 27.6706 26.6667Z" fill="#2D9CDB"/>
<path d="M54.3372 26.6667C54.7793 26.6667 55.2032 26.4911 55.5157 26.1785C55.8283 25.866 56.0039 25.442 56.0039 25V15C56.0039 14.558 55.8283 14.1341 55.5157 13.8215C55.2032 13.5089 54.7793 13.3333 54.3372 13.3333C53.8952 13.3333 53.4713 13.5089 53.1587 13.8215C52.8462 14.1341 52.6706 14.558 52.6706 15V25C52.6706 25.442 52.8462 25.866 53.1587 26.1785C53.4713 26.4911 53.8952 26.6667 54.3372 26.6667Z" fill="#2D9CDB"/>
<path d="M32.6706 20H49.3372V23.3333H32.6706V20Z" fill="#2D9CDB"/>
</svg>
