<svg width="93" height="70" viewBox="0 0 93 70" fill="none" xmlns="http://www.w3.org/2000/svg">
<circle cx="20.0039" cy="20" r="20" fill="#F2994A"/>
<path d="M82.0039 0L84.249 6.90983H91.5145L85.6366 11.1803L87.8818 18.0902L82.0039 13.8197L76.1261 18.0902L78.3712 11.1803L72.4933 6.90983H79.7588L82.0039 0Z" fill="#F2994A"/>
<path d="M49.5039 32.5H44.5039V27.5C44.5039 26.837 44.2405 26.2011 43.7717 25.7322C43.3028 25.2634 42.6669 25 42.0039 25C41.3409 25 40.705 25.2634 40.2361 25.7322C39.7673 26.2011 39.5039 26.837 39.5039 27.5V32.5H34.5039C33.8409 32.5 33.205 32.7634 32.7361 33.2322C32.2673 33.7011 32.0039 34.337 32.0039 35C32.0039 35.663 32.2673 36.2989 32.7361 36.7678C33.205 37.2366 33.8409 37.5 34.5039 37.5H39.5039V42.5C39.5039 43.163 39.7673 43.7989 40.2361 44.2678C40.705 44.7366 41.3409 45 42.0039 45C42.6669 45 43.3028 44.7366 43.7717 44.2678C44.2405 43.7989 44.5039 43.163 44.5039 42.5V37.5H49.5039C50.1669 37.5 50.8028 37.2366 51.2717 36.7678C51.7405 36.2989 52.0039 35.663 52.0039 35C52.0039 34.337 51.7405 33.7011 51.2717 33.2322C50.8028 32.7634 50.1669 32.5 49.5039 32.5ZM62.0039 47.5V22.5C62.0039 20.5109 61.2137 18.6032 59.8072 17.1967C58.4007 15.7902 56.493 15 54.5039 15H29.5039C27.5148 15 25.6071 15.7902 24.2006 17.1967C22.7941 18.6032 22.0039 20.5109 22.0039 22.5V47.5C22.0039 49.4891 22.7941 51.3968 24.2006 52.8033C25.6071 54.2098 27.5148 55 29.5039 55H54.5039C56.493 55 58.4007 54.2098 59.8072 52.8033C61.2137 51.3968 62.0039 49.4891 62.0039 47.5ZM27.0039 47.5V22.5C27.0039 21.837 27.2673 21.2011 27.7361 20.7322C28.205 20.2634 28.8409 20 29.5039 20H54.5039C55.1669 20 55.8028 20.2634 56.2717 20.7322C56.7405 21.2011 57.0039 21.837 57.0039 22.5V47.5C57.0039 48.163 56.7405 48.7989 56.2717 49.2678C55.8028 49.7366 55.1669 50 54.5039 50H29.5039C28.8409 50 28.205 49.7366 27.7361 49.2678C27.2673 48.7989 27.0039 48.163 27.0039 47.5ZM69.5039 25C68.8409 25 68.205 25.2634 67.7361 25.7322C67.2673 26.2011 67.0039 26.837 67.0039 27.5V52.5C67.0039 54.4891 66.2137 56.3968 64.8072 57.8033C63.4007 59.2098 61.493 60 59.5039 60H34.5039C33.8409 60 33.205 60.2634 32.7361 60.7322C32.2673 61.2011 32.0039 61.837 32.0039 62.5C32.0039 63.163 32.2673 63.7989 32.7361 64.2678C33.205 64.7366 33.8409 65 34.5039 65H59.5039C62.8191 65 65.9985 63.683 68.3427 61.3388C70.6869 58.9946 72.0039 55.8152 72.0039 52.5V27.5C72.0039 26.837 71.7405 26.2011 71.2717 25.7322C70.8028 25.2634 70.1669 25 69.5039 25Z" fill="#2D9CDB"/>
</svg>
