<svg width="93" height="70" viewBox="0 0 93 70" fill="none" xmlns="http://www.w3.org/2000/svg">
<circle cx="20.0039" cy="20" r="20" fill="#F2994A"/>
<path d="M82.0039 0L84.249 6.90983H91.5145L85.6366 11.1803L87.8818 18.0902L82.0039 13.8197L76.1261 18.0902L78.3712 11.1803L72.4933 6.90983H79.7588L82.0039 0Z" fill="#F2994A"/>
<path d="M50.3789 47.5C49.8816 47.5 49.4047 47.6975 49.0531 48.0492C48.7014 48.4008 48.5039 48.8777 48.5039 49.375C48.5039 49.8723 48.7014 50.3492 49.0531 50.7008C49.4047 51.0525 49.8816 51.25 50.3789 51.25H57.8789C58.3762 51.25 58.8531 51.0525 59.2047 50.7008C59.5564 50.3492 59.7539 49.8723 59.7539 49.375C59.7539 48.8777 59.5564 48.4008 59.2047 48.0492C58.8531 47.6975 58.3762 47.5 57.8789 47.5H50.3789Z" fill="#2D9CDB"/>
<path d="M14.7539 28.75C14.7539 26.7609 15.5441 24.8532 16.9506 23.4467C18.3571 22.0402 20.2648 21.25 22.2539 21.25H59.7539C61.743 21.25 63.6507 22.0402 65.0572 23.4467C66.4637 24.8532 67.2539 26.7609 67.2539 28.75V51.25C67.2539 53.2391 66.4637 55.1468 65.0572 56.5533C63.6507 57.9598 61.743 58.75 59.7539 58.75H22.2539C20.2648 58.75 18.3571 57.9598 16.9506 56.5533C15.5441 55.1468 14.7539 53.2391 14.7539 51.25V28.75ZM63.5039 28.75C63.5039 27.7554 63.1088 26.8016 62.4056 26.0984C61.7023 25.3951 60.7485 25 59.7539 25H22.2539C21.2593 25 20.3055 25.3951 19.6023 26.0984C18.899 26.8016 18.5039 27.7554 18.5039 28.75V32.5H63.5039V28.75ZM18.5039 51.25C18.5039 52.2446 18.899 53.1984 19.6023 53.9016C20.3055 54.6049 21.2593 55 22.2539 55H59.7539C60.7485 55 61.7023 54.6049 62.4056 53.9016C63.1088 53.1984 63.5039 52.2446 63.5039 51.25V36.25H18.5039V51.25Z" fill="#2D9CDB"/>
</svg>
