<svg width="80" height="78" viewBox="0 0 80 78" fill="none" xmlns="http://www.w3.org/2000/svg">
<path d="M5.43333 0.566688C5.08936 0.569304 4.76022 0.707107 4.51699 0.95034C4.27375 1.19357 4.13595 1.52271 4.13333 1.86669V9.92335C4.13333 10.63 4.72333 11.2234 5.43333 11.2234H74.5667C75.2767 11.2234 75.8667 10.63 75.8667 9.92335V1.86335C75.864 1.51938 75.7262 1.19024 75.483 0.947007C75.2398 0.703774 74.9106 0.56597 74.5667 0.563354L5.43333 0.566688ZM5.28333 14.32C4.96105 14.3172 4.64814 14.4284 4.3999 14.634C4.15165 14.8395 3.98404 15.1262 3.92667 15.4434L0.0266667 36.49C0 36.58 0 36.6667 0 36.7567V43.8134C0 44.58 0.62 45.2 1.38667 45.2H78.6133C79.38 45.2 80 44.58 80 43.8134V36.7267C80 36.6367 80 36.55 79.97 36.46L76.0733 15.4434C76.016 15.1262 75.8483 14.8395 75.6001 14.634C75.3519 14.4284 75.039 14.3172 74.7167 14.32H5.28333ZM5.66667 48.27C5.46494 48.2687 5.26495 48.3074 5.07832 48.384C4.89168 48.4606 4.72212 48.5735 4.57947 48.7162C4.43683 48.8588 4.32393 49.0284 4.24735 49.215C4.17076 49.4016 4.132 49.6016 4.13333 49.8034V75.9C4.13333 76.7567 4.81 77.4333 5.66667 77.4333H52.6933C53.55 77.4333 54.2267 76.7567 54.2267 75.9V53.9367C54.2267 53.08 54.9067 52.4033 55.7633 52.4033H69.1633C70.0233 52.4033 70.7 53.08 70.7 53.9367V75.9C70.7 76.7567 71.38 77.4333 72.2333 77.4333H74.3C74.5021 77.4356 74.7027 77.3975 74.8899 77.3212C75.0771 77.245 75.2473 77.1322 75.3904 76.9894C75.5335 76.8466 75.6466 76.6767 75.7233 76.4897C75.7999 76.3026 75.8384 76.1022 75.8367 75.9V49.8034C75.8375 49.6017 75.7985 49.402 75.7217 49.2155C75.645 49.0291 75.5321 48.8597 75.3895 48.7172C75.247 48.5746 75.0776 48.4617 74.8912 48.3849C74.7047 48.3082 74.5049 48.2691 74.3033 48.27H5.66667ZM11.8067 53.4367H37.9633C38.67 53.4367 39.2633 54.0267 39.2633 54.7367V71C39.2633 71.7067 38.67 72.3 37.9633 72.3H11.8067C11.4627 72.2974 11.1336 72.1596 10.8903 71.9164C10.6471 71.6731 10.5093 71.344 10.5067 71V54.7333C10.5067 53.9967 11.1 53.4333 11.8067 53.4333V53.4367Z" fill="white"/>
</svg>
