<svg width="60" height="60" viewBox="0 0 60 60" fill="none" xmlns="http://www.w3.org/2000/svg">
<path fill-rule="evenodd" clip-rule="evenodd" d="M16.6667 43.3333V60H43.3333V43.3333H60V16.6667H43.3333V0H16.6667V16.6667H0V43.3333H16.6667ZM34.1667 17.505H29.7833C29.6283 17.4977 29.4736 17.5244 29.33 17.5833C27.9383 18.2617 27.065 19.46 26.53 20.88C26.43 21.1417 26.345 21.4067 26.27 21.6717H22.84C22.9767 21.0267 23.1617 20.36 23.4117 19.7017C24.1483 17.75 25.4933 15.7467 27.8683 14.5867C28.525 14.2667 29.2017 14.1717 29.785 14.17H34.1683C34.6104 14.17 35.0343 14.3456 35.3468 14.6582C35.6594 14.9707 35.835 15.3946 35.835 15.8367C35.835 16.2787 35.6594 16.7026 35.3468 17.0152C35.0343 17.3277 34.6104 17.5033 34.1683 17.5033L34.1667 17.505ZM20 23.3383C19.08 23.3383 18.3117 24.0983 18.5617 24.985C19.5233 28.4167 23.4383 31.0867 28.3333 31.5867V34.1833C27.175 34.2117 25.9717 34.305 24.95 34.6017C24.1533 34.835 23.3083 35.2317 22.6617 35.9583C21.985 36.7183 21.6667 37.6783 21.6667 38.75C21.6667 39.8217 21.9833 40.7833 22.66 41.545C23.3067 42.2733 24.1517 42.6733 24.95 42.9067C25.4833 43.0617 26.0667 43.1617 26.6667 43.225V39.87C26.402 39.8341 26.1403 39.7795 25.8833 39.7067C25.4333 39.5733 25.235 39.4267 25.1533 39.3333C25.1 39.2733 25 39.1383 25 38.75C25 38.3667 25.1 38.2333 25.15 38.175C25.2333 38.0817 25.43 37.9333 25.8833 37.8017C26.5217 37.6167 27.345 37.5467 28.3333 37.52V46.6717H23.3333V50.005H36.6667V46.6717H31.6667V37.4433C33.5033 37.3 34.9917 36.8967 36.1117 36.175C37.6867 35.1583 38.3333 33.6467 38.3333 32.0417C38.3333 31.17 38.1417 30.3317 37.7167 29.59C39.59 28.4067 40.9283 26.8033 41.4383 24.985C41.6883 24.0983 40.9217 23.3383 40 23.3383H20ZM31.6667 34.0967C33.015 33.9667 33.8333 33.6767 34.305 33.3733C34.8133 33.045 35 32.66 35 32.0417C35 31.5733 34.8933 31.255 34.6183 30.9917C33.6569 31.2864 32.6688 31.4857 31.6683 31.5867V34.0967H31.6667Z" fill="white"/>
</svg>
