<svg width="70" height="50" viewBox="0 0 70 50" fill="none" xmlns="http://www.w3.org/2000/svg">
<path d="M7.5 0V33.9075L1.7975 39.6925C0.655564 40.8302 0.00948062 42.3731 0 43.985C0.00788552 45.5778 0.644139 47.1032 1.77047 48.2295C2.89679 49.3559 4.42215 49.9921 6.015 50H63.985C65.5778 49.9921 67.1032 49.3559 68.2295 48.2295C69.3559 47.1032 69.9921 45.5778 70 43.985C69.9902 42.3717 69.3443 40.8274 68.2025 39.6875L62.5 33.905V0H7.5ZM12.5 5H57.5V32.5H12.5V5ZM32.5 10V17.5H25V22.5H32.5V30H37.5V22.5H45V17.5H37.5V10H32.5ZM11.0925 37.5H58.905L64.6875 43.2025C64.8861 43.4149 64.9976 43.6942 65 43.985C65.0072 44.1202 64.9859 44.2554 64.9374 44.3818C64.889 44.5082 64.8145 44.623 64.7187 44.7187C64.623 44.8145 64.5082 44.889 64.3818 44.9374C64.2554 44.9859 64.1202 45.0072 63.985 45H6.015C5.87981 45.0072 5.74462 44.9859 5.61821 44.9374C5.4918 44.889 5.377 44.8145 5.28127 44.7187C5.18555 44.623 5.11103 44.5082 5.06257 44.3818C5.01411 44.2554 4.99279 44.1202 5 43.985C5 43.71 5.1175 43.4 5.3125 43.2025L11.095 37.5H11.0925Z" fill="white"/>
</svg>
