<svg width="68" height="68" viewBox="0 0 68 68" fill="none" xmlns="http://www.w3.org/2000/svg">
<path d="M24 43.7234V45.6667C24 49.6449 25.5804 53.4602 28.3934 56.2733C31.2065 59.0863 35.0218 60.6667 39 60.6667C42.9783 60.6667 46.7936 59.0863 49.6066 56.2733C52.4197 53.4602 54 49.6449 54 45.6667V40.1C51.775 39.3137 49.8997 37.766 48.7055 35.7307C47.5113 33.6953 47.0751 31.3033 47.474 28.9774C47.8729 26.6515 49.0813 24.5415 50.8854 23.0204C52.6896 21.4993 54.9735 20.6651 57.3334 20.6651C59.6932 20.6651 61.9771 21.4993 63.7813 23.0204C65.5855 24.5415 66.7938 26.6515 67.1927 28.9774C67.5916 31.3033 67.1554 33.6953 65.9612 35.7307C64.767 37.766 62.8917 39.3137 60.6667 40.1V45.6667C60.6667 51.413 58.384 56.924 54.3207 60.9873C50.2574 65.0506 44.7464 67.3334 39 67.3334C33.2537 67.3334 27.7427 65.0506 23.6794 60.9873C19.6161 56.924 17.3334 51.413 17.3334 45.6667V43.7234C12.6731 42.9343 8.44273 40.5207 5.39202 36.9105C2.34131 33.3003 0.667293 28.7266 0.666687 24V7.33335C0.666687 5.56524 1.36907 3.86955 2.61931 2.61931C3.86955 1.36907 5.56524 0.666687 7.33335 0.666687H10.6667C11.5507 0.666687 12.3986 1.01788 13.0237 1.643C13.6488 2.26812 14 3.11597 14 4.00002C14 4.88408 13.6488 5.73192 13.0237 6.35704C12.3986 6.98216 11.5507 7.33335 10.6667 7.33335H7.33335V24C7.33335 27.5362 8.73811 30.9276 11.2386 33.4281C13.7391 35.9286 17.1305 37.3334 20.6667 37.3334C24.2029 37.3334 27.5943 35.9286 30.0948 33.4281C32.5953 30.9276 34 27.5362 34 24V7.33335H30.6667C29.7826 7.33335 28.9348 6.98216 28.3097 6.35704C27.6845 5.73192 27.3334 4.88408 27.3334 4.00002C27.3334 3.11597 27.6845 2.26812 28.3097 1.643C28.9348 1.01788 29.7826 0.666687 30.6667 0.666687H34C35.7681 0.666687 37.4638 1.36907 38.7141 2.61931C39.9643 3.86955 40.6667 5.56524 40.6667 7.33335V24C40.6661 28.7266 38.9921 33.3003 35.9414 36.9105C32.8906 40.5207 28.6603 42.9343 24 43.7234ZM57.3334 34C58.2174 34 59.0653 33.6488 59.6904 33.0237C60.3155 32.3986 60.6667 31.5507 60.6667 30.6667C60.6667 29.7826 60.3155 28.9348 59.6904 28.3097C59.0653 27.6845 58.2174 27.3334 57.3334 27.3334C56.4493 27.3334 55.6015 27.6845 54.9763 28.3097C54.3512 28.9348 54 29.7826 54 30.6667C54 31.5507 54.3512 32.3986 54.9763 33.0237C55.6015 33.6488 56.4493 34 57.3334 34Z" fill="white"/>
</svg>
