<svg width="26" height="26" viewBox="0 0 26 26" fill="none" xmlns="http://www.w3.org/2000/svg">
<path d="M9.25 16.6462V17.375C9.25 18.8668 9.84263 20.2976 10.8975 21.3525C11.9524 22.4074 13.3832 23 14.875 23C16.3668 23 17.7976 22.4074 18.8525 21.3525C19.9074 20.2976 20.5 18.8668 20.5 17.375V15.2875C19.6656 14.9926 18.9624 14.4123 18.5145 13.649C18.0667 12.8857 17.9031 11.9887 18.0527 11.1165C18.2023 10.2443 18.6555 9.45307 19.332 8.88266C20.0086 8.31225 20.8651 7.99939 21.75 7.99939C22.6349 7.99939 23.4914 8.31225 24.168 8.88266C24.8445 9.45307 25.2977 10.2443 25.4473 11.1165C25.5969 11.9887 25.4333 12.8857 24.9855 13.649C24.5376 14.4123 23.8344 14.9926 23 15.2875V17.375C23 19.5299 22.144 21.5965 20.6202 23.1202C19.0965 24.644 17.0299 25.5 14.875 25.5C12.7201 25.5 10.6535 24.644 9.12976 23.1202C7.60602 21.5965 6.75 19.5299 6.75 17.375V16.6462C5.00241 16.3503 3.41602 15.4453 2.272 14.0914C1.12798 12.7376 0.500227 11.0225 0.5 9.25V3C0.5 2.33696 0.763392 1.70107 1.23223 1.23223C1.70107 0.763392 2.33696 0.5 3 0.5H4.25C4.58152 0.5 4.89946 0.631696 5.13388 0.866116C5.3683 1.10054 5.5 1.41848 5.5 1.75C5.5 2.08152 5.3683 2.39946 5.13388 2.63388C4.89946 2.8683 4.58152 3 4.25 3H3V9.25C3 10.5761 3.52678 11.8479 4.46447 12.7855C5.40215 13.7232 6.67392 14.25 8 14.25C9.32608 14.25 10.5979 13.7232 11.5355 12.7855C12.4732 11.8479 13 10.5761 13 9.25V3H11.75C11.4185 3 11.1005 2.8683 10.8661 2.63388C10.6317 2.39946 10.5 2.08152 10.5 1.75C10.5 1.41848 10.6317 1.10054 10.8661 0.866116C11.1005 0.631696 11.4185 0.5 11.75 0.5H13C13.663 0.5 14.2989 0.763392 14.7678 1.23223C15.2366 1.70107 15.5 2.33696 15.5 3V9.25C15.4998 11.0225 14.872 12.7376 13.728 14.0914C12.584 15.4453 10.9976 16.3503 9.25 16.6462ZM21.75 13C22.0815 13 22.3995 12.8683 22.6339 12.6339C22.8683 12.3995 23 12.0815 23 11.75C23 11.4185 22.8683 11.1005 22.6339 10.8661C22.3995 10.6317 22.0815 10.5 21.75 10.5C21.4185 10.5 21.1005 10.6317 20.8661 10.8661C20.6317 11.1005 20.5 11.4185 20.5 11.75C20.5 12.0815 20.6317 12.3995 20.8661 12.6339C21.1005 12.8683 21.4185 13 21.75 13Z" fill="#2D9CDB"/>
</svg>
